<mxfile host="app.diagrams.net" agent="Mozilla/5.0 (Macintosh; Intel Mac OS X 10_15_7) AppleWebKit/537.36 (KHTML, like Gecko) Chrome/136.0.0.0 Safari/537.36" version="27.1.1">
  <diagram name="Page-1" id="WFfgbdEGj4PnSkhi8SED">
    <mxGraphModel dx="976" dy="612" grid="1" gridSize="10" guides="1" tooltips="1" connect="1" arrows="1" fold="1" page="1" pageScale="1" pageWidth="827" pageHeight="1169" math="0" shadow="0">
      <root>
        <mxCell id="0" />
        <mxCell id="1" parent="0" />
        <mxCell id="LdxUq8u8mY5ZMptnZAze-1" value="" style="shape=image;verticalLabelPosition=bottom;labelBackgroundColor=default;verticalAlign=top;aspect=fixed;imageAspect=0;image=data:image/png,iVBORw0KGgoAAAANSUhEUgAAAgAAAAIACAYAAAD0eNT6AAAAAXNSR0IArs4c6QAAAERlWElmTU0AKgAAAAgAAYdpAAQAAAABAAAAGgAAAAAAA6ABAAMAAAABAAEAAKACAAQAAAABAAACAKADAAQAAAABAAACAAAAAAAL+LWFAABAAElEQVR4Ae2dB7gV1dWGv0ORpoKColgACzbsGnvvGo0x0SRGE0tiSTHGFGsiGjX6a0xMTOy9xJIYe8HewN4VUVEQRbqg9Hb+te5wL5fLLafMmfru5xnOnJk9e6/1rsPda3ZZu6CcpOKeWlFFraeC+mmBHQX1N9V7LTx62qcfnrra0anujH8gAAEIQCArBGabIjPsKNoxqdExwa6MtO+fqJ19ttewwkOaYN8znwpZ1LCusZe2tYZ+WzPopmbcDU3P3lnUFZ0gAAEIQCBkAgWNtXbjbSv1dfscYu3I0MJgjQ+5ltiLy4QDYA1+NyO5izX4+9ib/R52vnbsZBEAAhCAAASyQ6Co4da+PGYOwUPqoicL99X1JqRav9Q6AMXd1d3If8sMcoh97m4H3fap/ikiPAQgAIHUEJhljsBj1v7coQ66x4YMvkqN5I0ETZUDUBxkHTFDtJeB/4npsJ8dNPqNjMkpBCAAAQhETmCW1Xi/tUtXa3s9WhhkfdEpSalwAIo722S9pXScAf6pcV09JWwREwIQgAAE8kVglLVTV9lxeeHxuomGidY+0Q5AcTcNsHf+k4zgj+zokmiSCAcBCEAAAhAICMyw4YEb7Li48Ig+SiqURDoAxb3VT/N0qsE7ysB1SCo85IIABCAAAQi0QsCHA/5rx+mFR/VhK/liuZUoB8C6+ldSR/3JSBxhBw1/LD8JKoUABCAAgZAJzLXyrrWX2j8maTlhIhyA4sE2wj9Fxxugs+1YNmTwFAcBCEAAAhBIAoHp5gRcpDk6v/CUfPJgrCl2B6C4V936/SuNwlqxkqByCEAAAhCAQBQEPKZAOx1jvQHPRFFdS3XE5gBYd38P6+6/0AQ72o7Y5GgJDNchAAEIQAACNSTgIYmvtBUDJxce09Qa1tNi0bE0vBa5b1tT+iaTao0WJeMGBCAAAQhAIPsEPjUVf2STBJ+OWtVIHYDi5vbOv7zOMSV/a0e7qJWlPghAAAIQgEACCcw3mS7QXJ1pcwPmRSVfZA5A3QY9C3SbdfbvEpVy1AMBCEAAAhBIEYHn7NX4EIsd8EUUMkfiAFjc/u2t4b/DFFo5CqWoAwIQgAAEIJBSAmOsvTzYJggOqbX8Ne+Gtzf/75kyj5oiNP61tiblQwACEIBA2gn0sTlyTxb30GG1VqRmDoBNbyxY4z/IFPm3KdG51opQPgQgAAEIQCAjBJYyPW70NtTb0lrpVJOCF+7ad7k1/r55DwkCEIAABCAAgcoIXK7t9PNa7DIYugNgUf3aW1S/a0zPH1emK09BAAIQgAAEINBAoKBbLXrgj8NeIRCqA2DBfTrYQj/v8v9ug+CcQAACEIAABCBQLYE7LXzeDwp3ypcMhpJCmwNQ1+3fUdeZVDT+oZiGQiAAAQhAAAINBA623vXr6trahkvVnYTiANRNUhiiy02Ums9arE5dnoYABCAAAQiklsDhtjjw0rCkD8UB0J46kwl/YZmEciAAAQhAAAItECjqeIutc3oLd8u6XPUcAFum8H1r/G+1WqsuqyzJyQwBCEAAAhDIJwHreLdJgY/W7alTMYGqGu2FEf4et9p9zSIJAhCAAAQgAIFoCMzWAu1SeFxDK62uYgfAZvyvZDP+X7WK+1RaOc9BAAIQgAAEIFAhgYLGWg/85tYTMKaSEiqaA1C3q1+Hutj+NP6VUOcZCEAAAhCAQLUEivYiLt1p8Xcq6oWvyAGo29K3oB2qlZ3nIQABCEAAAhCoisC2mqo/VlJC2UMAxb2s4V+gJ62y9pVUyDMQgAAEIAABCIRKYIFtI7y7bSPsbXPJqSwHwMb9e9i4/1tW+mol10BGCEAAAhCAAARqTeBTmw+wUeEx6w8oMZU3BNBRF1m5NP4lwiUbBCAAAQhAICICq9ti/AvKqavkHgDbm3gnK9i7F0p+phxByAsBCEAAAhCAQFUEitZC714YrCdKKaWkxry4jzppnt6xAtcqpVDyQAACEIAABCAQC4EPbLB+Q9s0aE5btZc2BDBfJ1lBNP5t0eQ+BCAAAQhAIF4CA2wWwK9KEaHNHoDibuptsws/sMKWLaVA8kAAAhCAAAQgECOBor62XvsBhacsUFArqe0egHY6x56n8W8FIrcgAAEIQAACiSFQ0DK2Ym9QW/K02gNga/7XsjX/w6yQDm0VxH0IQAACEIAABBJDYK4tC1zXlgV+3JJErfcALLBtfmn8W2LHdQhAAAIQgEBSCXS0FQFntCZciz0ANvY/wMb+37OHifjXGkHuQQACEIAABJJJYJ7mWy/AExrRnHgt9wAU9Bt7gMa/OWpcgwAEIAABCCSfQAdrxX/dkpjN9gDYuv8VbAbhKHuoS0sPch0CEIAABCAAgcQTmKG56msrAiY2lbT5HoD5OtYy0vg3pcV3CEAAAhCAQLoIdLVp/N6mL5GW6AEoDrKR/+frZg32XSI3FyAAAQhAAAIQSBuB0RYdsL9FB5zfWPAlewCGaC/LQOPfmBLnEIAABCAAgfQSWE1TtFtT8Zd0AIr6SdNMfIcABCAAAQhAINUElmjbFxsCsMl/y9rkv3GmYudUq4nwEIAABCAAAQg0JjDL5gL0Ljykr+ovLt4DMF/fths0/vV0+IQABCAAAQhkg0BnmwGwf2NVFncAijqk8U3OIQABCEAAAhDICIEmbXzDEEBxT3WzuMGTTM1OGVEVNSAAAQhAAAIQWERglvXx9yzcpxl+qXEPwK72ncZ/ESjOIAABCEAAAlki0FmztVO9QoscgAXau/4inxCAAAQgAAEIZJBAsW6pf51iixyAgvbIoKqoBAEIQAACEIDAIgJ71p/WzQGw8f8Vbfzfl/+RIAABCEAAAhDILoHiwuWAE4IegKK2y66uaAYBCEAAAhCAwEICBVsOuLWf1zsA24AGAhCAAAQgAIEcEFj40h84AO20aQ5URkUIQAACEIAABKRNHEJ9D8BGEIEABCAAAQhAIBcE6tr8QnE39TY3YGwuVEZJCEAAAhCAAARkEwFXbGeN/7qwgAAEIAABCEAgRwTmah0fAuifI5VRFQIQgAAEIACBgvq1k/0DCQhAAAIQgAAEckWgfzsLANQ3VyqjLAQgAAEIQCDvBIreAyCbBEiCAAQgAAEIQCBPBGwSoNQzTxqjKwQgAAEIQCD3BNqppzsAvXIPAgAQgAAEIACBPBEoqpc7AMvmSWd0hQAEIAABCEBA3d0BWAoQEIAABCAAAQjkisBS7gB0ypXKKAsBCEAAAhCAQCd3ADrCAQIQgAAEIACBXBGocwDcCSBBAAIQgAAEIJAfAu1o/PNjbDSFAAQgAAEINBDAAWhAwQkEIAABCEAgPwRwAPJjazSFAAQgAAEINBDAAWhAwQkEIAABCEAgPwRwAPJjazSFAAQgAAEINBDAAWhAwQkEIAABCEAgPwRwAPJjazSFAAQgAAEINBDAAWhAwQkEIAABCEAgPwRwAPJjazSFAAQgAAEINBDAAWhAwQkEIAABCEAgPwRwAPJjazSFAAQgAAEINBDAAWhAwQkEIAABCEAgPwRwAPJjazSFAAQgAAEINBDAAWhAwQkEIAABCEAgPwRwAPJjazSFAAQgAAEINBDAAWhAwQkEIAABCEAgPwRwAPJjazSFAAQgAAEINBDAAWhAwQkEIAABCEAgPwRwAPJjazSFAAQgAAEINBDAAWhAwQkEIAABCEAgPwRwAPJjazSFAAQgAAEINBDAAWhAwQkEIAABCEAgPwRwAPJjazSFAAQgAAEINBDAAWhAwQkEIAABCEAgPwRwAPJjazSFAAQgAAEINBDAAWhAwQkEIAABCEAgPwRwAPJjazSFAAQgAAEINBDAAWhAwQkEIAABCEAgPwRwAPJjazSFAAQgAAEINBDAAWhAwQkEIAABCEAgPwRwAPJjazSFAAQgAAEINBDo0HDGCQQgAIFKCbRrL/VaRVqqszT+U2nOrEpL4rnWCDhf59ytR5Br7mxp9gxpygRp5tetPck9CCxBAAdgCSRcgAAESiawXG/p0DOkXX4gLdszeGz+POnjN6V3h0jDhtrn84FTUHKhZKwj0K27NHAHaeOdpQ3tc6X+UvcVWobjjtfo9439W9IrD0tvPyPNm9tyfu7knkChuIeKuacAAAhAoHwCA7aQzr5PWn6ltp+d+PlCZ2ChU/Dha9Y4zWn7ubzlaG/vZFvvL+37U2nzPSXvWak0TZ8aOAKPXCe9Olgq8qe+UpRZfQ4HIKuWRS8I1JKAv/lfbm/5/llJ8iGCD16R3jOHoO6wnoIp4yspKRvPdOoiHfRr6Vu/MIdq5fB18l6B//5FevI2HK/w6aa2RByA1JoOwSEQI4Gf/yNorMIUYcxHiw8bjHpPWjA/zBqSV1ahIO36Q+mo86QVVqu9fJ8Nly45TnrzqdrXRQ2JJ4ADkHgTISAEEkbAu6VvH2vj0b1qK9iMr2zY4AXrIbDeAe8l8HO/lpXUa1Xp1FtsfH/HaDXyoYDHbpSu+I301aRo66a2RBHAAUiUORAGAikgsOYm0mWvxyPoFx8HkwrfeS74/NR6CdI4tr3Z7tLvbypt/kStSE/8TDrzQOnDV2tVA+UmnAAOQMINhHgQSByBfY+RTrwiGWL5vIH6HgL//NDmFcyemQzZWpLi+6dIR1qXv3f/x51mTpMuOFwacnfcklB/DARwAGKATpUQSDWB31wj7XVUMlXwZW8f2QqDBqfAhg58BUJS0uGDpMPPTIo0gRzFBdLFturgkWuTJRfS1JwADkDNEVMBBDJG4Kp3pL4bpEcpXx/vsQg8JoE7BiPekDxWQdTpiHMsZsLpUddaWn0+2fKcQ6Tn7iotP7kyQQAHIBNmRAkIRETAg9PcNdm6r9tFVGENqpk1PViC6E6BOwTuGNR6MtyeR0i/tfX4SU4eVfD0faU3nkiylMgWIgEcgBBhUhQEMk9gsz2k8y2oTNZS/eRCnxDnEww/skmO3jUeRlpjY1t6Z0MRnbqGUVpty5g6UTp2I2nyF7Wth9ITQQAHIBFmQAgIpISAd2F7V3bW07QvF84jsN4BX4I4/CWLtW8T5spNXZe1gEk25OBhfNOSXn5IOmO/dK6uSAvjhMjZISFyIAYEIJAGAutulQYpq5dx6eWkb1h3uB+efIzco+nVRy30z7GfBPda+/ewP6ar8XddttxH+ubx0n3/ak0z7mWAAD0AGTAiKkAgMgJ3jJN6rFhedQ/YksF1tpT6W9eyx7rPSvJucp9DUD/B0Pc38HH0+rTqOtKVb0sdOtZfSc/ntCnSj6zXwj9JmSWAA5BZ06IYBEIm4N3YN35cXqE+A/+wvsEzXZaW1tta2mA7af1t7dhG6rJMeeUlObc3/j6HoN4p2N/eon3ORFrTredK15+RVumRuwQCOAAlQCILBCBgBHzL31NvLQ/F07dL536/+Wc8pPBq6wYOwcDtpbU3t+WF6zefl6vRE/A5Dz9eM9+bNEVPPdIaM9QfFyk3KoNA/gis843ydX7fJs+1lHxcfdS7wfHglUEu3xDHnQHvIfDP/htWtyVuS3VzvW0C3mPjUR9vzcGkz7ZpZDIHPQCZNCtKQaAGBP5um/GUOwnwRGvIvUu80tS5m7TWpot6CXz4wCfokaIhMPp96ej1oqmLWiIngAMQOXIqhEAKCXRYSrrHduLr2Kl04efNkQ60wEFzZpX+TFs5mw4beC9BmpbYtaVfEu//zIZmPLwyKXMEGALInElRCAI1IOA7AJbT+LsIHnI3zMbfy2xu2KC3TTLcwIcNbFLhwB2kfham2B0FUjgEdrE5HDgA4bBMWCk4AAkzCOJAIJEEfPZ+uamarv9y6ho3SvLjiVuCp3zs2h0WHy7wHgJ3DpbuUU6J5G1MwDmSMkkAByCTZkUpCIRMoNyxf6/+/RdDFqLE4nz2uofz9eP2C4LegMarDTa0XoLe/UosjGxaa7MgloHvtEjKFAHmAGTKnCgDgRoRuGGEtPIa5RX+I8tfSrS88koNJ3fPPo16COwN1ycapnmDo3CotFzKz8wJ8P0RSJkiQA9ApsyJMhCoAYHuvcqfaDdlfHIbf0c0aYz0zJ3B4d99l0NferiBHzZksK4teUzD5j0uexTJoxriAERBOtI6cAAixU1lEEghgXVt/L9QKE/wqMb/y5Oq5dzTp0q+CY4fnpquNthwRxs2WBjRMMiRr3/dCSRljgAOQOZMikIQCJnAehVsABTX+H9Yqje32iDPwwbL4gCE9dNKUjk4AEmyBrJAIIkEKooAGNMEwFryazps4CsL6oYNbA6Bz5T3DY+yOmywDMGXavnTiqtsHIC4yFMvBNJAwLv+y3UA/O15+Mtp0K46GX2nvJceDA4vyXf9O+02afuDqis3iU833uUwifIhU0UE2lX0FA9BAAL5IODL58pdQz/yHWnm1/ng01hLXyb35bjGV7JzPt2iQJIyRwAHIHMmRSEIhEig3Ld/r7q1DYBCFC2RRc2ankixqhZqBg5A1QwTWAAOQAKNgkgQSAyBSgIADbNNg/KaJn2eTc0nf5FNvXKuFQ5Azn8AqA+BVgl4fP1y07Aqdv8rt66k5R9jAZOymIgBkEWrCgcgk2ZFKQiEQMBntPcbWF5Bvp5+9PDynslSbt8+N2vJ53N88XHWtEIfI4ADwM8AAhBonsDatg1s+zIXCg1/SSouaL68PFwd81H2JgKOeDPfNs3w7xYHIMPGRTUIVEWgkgBAeR7/d9jFom1C9GxV2BP38EsPJE4kBAqHAA5AOBwpBQLZI+AhgMtNaQsBXK5+peR/4f5ScqUnj++ZQMokARyATJoVpSAQAoH1ynQA/O3XhwDynp67S5o9MxsUPnxVyurExmxYqCotcACqwsfDEMgoAY9732uV8pTz8e+vJpX3TBZz+6S5ofdkQ7NHrsuGHmjRLAEcgGaxcBECOSdQyfK/94bkHFoj9f/zl0ZfUno6eaz0yLUpFR6xSyGAA1AKJfJAIG8EiABYncU/eEV644nqyoj76TsvzM5QRtwsE1o/DkBCDYNYEIiVABEAq8d/9cnpXT430SIaPnBF9QwoIdEEcAASbR6Eg0AMBNq1lzwGQDlp9gzpk7fKeSL7eb0X4OGUdqH/9adSVvc1yP4vr2QNcQBKRkVGCOSEgEf/67J0ecr6bPH588p7Jg+5vRdgwuh0afrwNdLLD6VLZqStiAAOQEXYeAgCGSZA9394xv16svTnH0oL5odXZi1L8pUcl59UyxooO0EEcAASZAxEgUAiCJS7/t+FznsEwNYM55EBr/xtazmScW/qBOn0fSW2/k2GPSKQAgcgAshUAYFUEajEAXj/xVSpGLmwd/1NSvLSQA9cdOaB0ucfRo6GCuMjgAMQH3tqhkDyCHTrLq22Tnly+Ri3zxontU7gqt9J9/6z9Txx3PXARYOs8SeOQxz0Y60TByBW/FQOgYQRWGdLqVDmnwW6/0szoodKvvQX0k2DSssfRS533n69vfTq4Chqo46EESjzf3rCpEccCEAgXAJMAAyXZ3Ol3XSWdM4h0vSpzd2N7po7bifYfg8fs3wzOujJqgkHIFn2QBoIxEugEgeA8f/ybeY77P3cYi2881z5z1b7hI/3+6REf/OfNKba0ng+xQRwAFJsPESHQOgEynUA5s2RPAYAqXwCvsveb3aULjpS+nJc+c9X8sRLD0rHbRxMSEzL0sRK9OSZkgjgAJSEiUwQyAGBldeQeqxYnqIj3pDmzCrvGXIvIuDzAgZfLx3WV/rbsTaZ8rNF98I6Ky6QXrxf+uVW0hn7MdM/LK4ZKKdDBnRABQhAIAwC5b79e53DWP4XBnrNnS09eKU5A9dJW+wt7X64tNU3pU5dKi/ee2ae/a/0zB2S9zaQINCEAA5AEyB8hUBuCVTiALxvE8lI4RGYN1d64b7g6NhJ8pgMG+8s9dtQWnWAtFL/JcM0+z4M07+SRr0reY+M78nwtgUfGvtJeHJRUiYJ4ABk0qwoBYEKCFTkANADUAHp0h7xXoG3ng6Oxk/4Mk2P1+Bp+hTbcbAYnPMvBMokgANQJjCyQyCTBPxtc61Ny1Ntyni6lssjFk5uH9Of9mU4ZVFKrgkwCTDX5kd5CCwksOYmkjsB5SQCAJVDi7wQSBwBHIDEmQSBIBADAeL/xwCdKiEQLwEcgHj5UzsEkkGgkvF/egCSYTukgECFBHAAKgTHYxDIFIFyHQAfh/7glUwhQBkI5I0ADkDeLI6+EGhKoPsKkgcBKid98g77xpfDi7wQSCABHIAEGgWRIBApgXLf/l041v9HaiIqg0AtCOAA1IIqZUIgTQTWsxCx5SYiAJZLjPwQSBwBHIDEmQSBIBAxAXoAIgZOdRBIBgEcgGTYASkgEA+BQkEasGV5dfs+9p++X94z5IYABBJHAAcgcSZBIAhESGC1daWle5RX4fsW/tdXAZAgAIFUE8ABSLX5EB4CVRKoJAAQ6/+rhM7jEEgGARyAZNgBKSAQD4GKxv/ZACgeY1ErBMIlgAMQLk9Kg0C6CJTrAPjOc8NfSpeOSAsBCDRLAAegWSxchEAOCHTqavvMDyxP0c8/lKZOLO8ZckMAAokkgAOQSLMgFAQiIDBgC6l9mTuCM/4fgWGoAgLREMABiIYztUAgeQQqmQDoKwBIEIBAJgjgAGTCjCgBgQoIlDv+71XQA1ABaB6BQDIJ4AAk0y5IBYHaEyjXAZg9Uxr5du3logYIQCASAjgAkWCmEggkjEDPPlKvVcoT6oOXpXlzy3uG3BCAQGIJ4AAk1jQIBoEaElh/m/ILp/u/fGY8AYEEE8ABSLBxEA0CNSNQbve/C8IEwJqZg4IhEAcBHIA4qFMnBOImgAMQtwWoHwKxE8ABiN0ECACBiAm0ay+tvXl5lY7/VJr4eXnPkBsCEEg0ARyARJsH4SBQAwL9N5Q6dyuvYMb/y+NFbgikgAAOQAqMhIgQCJUAAYBCxUlhEEgrARyAtFoOuSFQKYFKxv/pAaiUNs9BILEEcAASaxoEg0CNCJTrAPja/xGv10gYioUABOIigAMQF3nqhUAcBLp1l1Zbp7yaR7wheRRAEgQgkCkCOACZMifKQKANAut8QyqU+d+e7v82oHIbAukkUOZfgnQqidQQgMBCAkwA5KcAAQgsJIADwE8BAnkiUO74v7N5/4U8EUJXCOSGAA5AbkyNohAwAutsWR6GqROkMSPKe4bcEIBAKgjgAKTCTAgJgRAI9FlT6rFieQUx/l8eL3JDIEUEcABSZCxEhUBVBCrq/n+xqip5GAIQSC4BHIDk2gbJIBAugUocAHoAwrUBpUEgQQRwABJkDESBQE0JlOsAFBdIw1+uqUgUDgEIxEcAByA+9tQMgegIdOwkrblJefWNfFea8VV5z5AbAhBIDQEcgNSYCkEhUAUBb/zdCSgn0f1fDi3yQiB1BHAAUmcyBIZABQQIAFQBNB6BQLYJ4ABk275oB4GAQLnj//4UPQD8eiCQaQI4AJk2L8pBYCGBch0AH/v/dBj4IACBDBPAAciwcVENAnUEuq8grbxGeTDet/X/vgqABAEIZJYADkBmTYtiEFhIYF3bAbDcNOo9ybcOJkEAApklUCjuoWJmtUMxCGSNQKcu0nIrScuvbGF97c2+Zx/77G3X7Fi2p7R0j6Dh7rrsos/O3aqj4MMBM76WZk0LPqdOlHyPgK/sc/JYacr44PuX46SJnwXXqquRpyEAgQgIdIigDqqAAARKJdCuvbRSf2mVte2zn9R74VF/Xm4s/1LrbS2fOxN+lJrmzJLGj7LjU2ncws8vbEOh0cOlz+yYaY4ECQIQiJ0APQCxmwABckmgvfneq60r9V1fWt2P9YLvq61T/nr9tAGcMDpwBka/H0w0/OQtacSb5hhYLwMJAhCIjAAOQGSoqSi3BDwAT/8NpbU2s2NTaW377GffvTufFBDwCYe+7fBHr5szYId/fvCKDTNMghAEIFAjAjgANQJLsTkm4OPx69jEuw22kwZuLw3YIvtv9bUy9xcfS+8+L334qvTOc4FjwOqEWtGm3JwRwAHImcFRtwYEeq0ibbq7tMkuQaPfZ60aVEKRdQSmfRk4Aq8/Lr32mDTK9isgQQACFRHAAagIGw/lmkCXZaSNd5Y228MOa/h9/J4UDwFfhfCGOQPuELw62FYhfB6PHNQKgRQSwAFIodEQOQYCPjN/mwOCY8MdJZ/ER0oWgaKtaPb5A0Pvk16w46PXLJgRq5yTZSSkSRIBHIAkWQNZkkOgULCx+y2lbb8lbb1/MIkvOdIhSSkEJo2RXrxfev5u6yGw4YJ5c0t5ijwQyA0BHIDcmBpFSyLQdwNpx4Ol3X4oMZZfErJUZPK5Ay+YM/DMndIrD+MMpMJoCFlrAjgAtSZM+ckn4GP4u/xA2ul70qoDki8vElZHwKMYPvMf6fGbpfeGVFcWT0MgxQRwAFJsPESvgoBHttvuQHvTP9xm8O8meZc/KX8EPDLhk7dJg68LohbmjwAa55gADkCOjZ871b2R9wl8ex1l3fzftUA8XXOHAIVbILBgvvSyDQ08cq1NIrxXmj+vhYxchkB2COAAZMeWaNISAV+25138B/7SIvANbCkX1yEQEJj8hfTojdI9/2BZIb+JTBPAAci0eXOunE/i2+cn0n7H2C55y+UcBuqXTWDeHGnIPdKDVwZBh8ougAcgkGwCOADJtg/SVUJg412kQ34vbbEXY/uV8OOZJQm8N1S644IgxgChiJfkw5VUEsABSKXZEHoJAj6+v9U3pe+fKq2/zRK3uQCBUAiM+ciGBi6VHrhC8m2PSRBIMQEcgBQbD9GNgEfk2+2w4I2fkLz8JKIiMPEz6c6LcASi4k09NSGAA1ATrAkttENHaY2NLardRtLK/SUPb7vCalLnbpJPlKsPbzt9qjRrujR9SrBv+2cfSL5c6kMLrZqUPdvbtZd2PVQ67I8E7Enozy0XYvneA/8+T3roagsuZHMG4k7+/6KfBbNazWJbuEO8+rrSsr1sDkwPyZe++tGunTTj6+D/uE949B0Xx35iGyu9Jw2zoQ62YI7bipHVjwMQGeqYKvJ96Lc/KFjrvvbm1S1986VRw18ONl95ZXCwTWvU46EF++PlS/gOH8QmPDH9pKi2GQLjRkm3nmOrB26IPsrgymsEw1+b7CpttFPQ2DcjYsmX3Nl/62npubvs//qTyXBsShaejOUQwAEoh1Za8i6/ks1+/6m0x49q+3Y8bmSwXOqxG6UxI2pPxyf1/cQmYnkvBgkCSSTw+YfS1Sfb/gP/q610/ibvIav3/LFtQb197Sa7TrNewGctauK9/7SNlt6orU6UHjkBHIDIkdewQo9jf+jp0g7fkTosVcOKmhTtO64NteVSN/8p2IGtye2qv/ZdXzrmL9KWe1ddFAVAIBIC/gZ9xW9s2OzVcKvrvoL0nV9LB/w86M4Pt/TWS3vnuWC44+WHWs/H3dQQwAFIjalaEXTF1aUfnSXtbmFtfQwwruSOwEsPSNecKo18p3op/I+d67Wv9WbUz0+ovlRKgEA0BHx47LGbpetOqz6gULfu5tyfIe1/fDBnJxoNmq/FnRvv5Xj/xebvczU1BHAAUmOqZgT18fBvnyAdYWOPPpEvKcm3Xf2PvbHfcrY0e2b5UrkTc8DPpB9bj4L/4SNBIM0EZk6Tbhok/e+SykIM+yZVx/9VWn7l5FBw5+a+y8zZP8UmBpt+pFQSwAFIpdlMaJ/4c7K9XSR5zbvPLr7wCOmdZ0unPGAL6VeXSz5hkQSBLBH4+C3p7/YGX+oOhD1WlH53vQ197ZNcCj758QLreSzn/3hytcmdZDgAaTS5j4Wfcou0zPLJl95XDnh34V32BuNDBC0lf9M/8lzpm8fFO4zRknxch0AYBPz/wMPXBP8nvp7ccokDbWLfabdJvVZpOU9S7niP31W/C3o4kiITcpREAAegJEwJyvSdk2xC3IU269e6/9OUnrlTuujIYO1xU7m33l868YpkdXE2lZHvEAiTwOSx1htgzq7vNdA0HWjDesfaEFra5r0Mvl76q83XYSfFphZN7HccgMSaphnBvmdv0kef38yNlFzyWcRn7GdBSL4KBPa3/p/+n03ys816SBDIIwF3jH1YoD74Ttr/j79wn3SuzVmoZO5PHu0fs844ADEboOTqj7Mu9INOLDl7YjN6IKHT9pbW3Ur69VXp6OJMLEwEywSBSWOkS6w3YLM9gi2r067UK49IfzyAAEIpsCMOQAqMpO/bTNuj/pwGSUuT0bs/PVgRCQIQyCaBJ/8tnX+Yzfux1QKkxBJI2UByYjnWTrBdf2iT4yzWeJYSjX+WrIkuEFiSwC4/sKidKR6uXFKjTF7BAUiyWfsNtG7yK2sX5jPJuiMbBCCQbgLf/W0QlTTdWmRaehyApJq3y9I2jmYxuDt1TaqEyAUBCECgZQKFgnSSLXn0mCWkRBLAAUikWUwo7/ZfdZ2kSodcEIAABNom4Ct9fnMtvZhtk4olBw5ALNjbqNRnyHsoXBIEIACBtBPwLYp9d1JS4gjgACTNJB7gx4PixLmpT9KYIA8EIJBuAj4hMA2RS9NNuWzpcQDKRlbjB3a3pTPsd19jyBQPAQhESmDp5aTvnxpplVTWNgEcgLYZRZejw1LB9rfR1UhNEIAABKIh8K1fWOCvVaOpi1pKIoADUBKmiDLt8n2pd7+IKqMaCEAAAhESWKpzsH15hFVSVesEcABa5xPt3W9nINRvtMSoDQIQSBOB/Y6VfGUAKREEcAASYQYTYoPtpLU2TYo0yAEBCEAgfAJdl5V2PTT8cimxIgI4ABVhq8FDu9nkPxIEIACBrBPgb11iLIwDkARTdOgo7XhwEiRBBghAAAK1JbDeNlKftWpbB6WXRAAHoCRMNc604Y7Ssj1rXAnFQwACEEgAAQ8RvI1tF0yKnQAOQOwmMAE23T0JUiADBCAAgWgIbLFXNPVQS6sEcABaxRPRzc1wACIiTTUQgEASCHivpy8LJMVKAAcgVvxWuf8nIPJf3FagfghAIEoC/nev/0ZR1khdzRDAAWgGSqSXvPH3SYAkCEAAAnkiMGDzPGmbSF1xAOI2C2//cVuA+iEAgTgI8LcvDuqL1YkDsBiOGL6svEYMlVIlBCAAgZgJrNQ/ZgGoHgcg7t/ACqvFLQH1QwACEIieQO++0ddJjYsRwAFYDEcMX3r2iaFSqoQABCAQM4Geq8QsANXjAMT9G+i6TNwSUD8EIACB6Al07iZ5UCBSbARwAGJDv7DiTl3jloD6IQABCERPwBt//v5Fz71RjTgAjWDEcsoSwFiwUykEIJAAAvz9i9UIOACx4rfK58yKWwLqhwAEIBAPgbmz46mXWusI4ADE/UOYPSNuCagfAhCAQDwE5s6Jp15qrSOAAxD3D2H61LgloH4IQAAC0RPwv30L5kdfLzU2EMABaEAR08n4T2OqmGohAAEIxEhgwugYK6dqJ4ADEPfvgP8EcVuA+iEAgTgITPw8jlqpsxEBHIBGMGI5/fzDWKqlUghAAAKxEhj9fqzVUzk9APH/Bj54JX4ZkAACEIBA1AQ+ej3qGqmvCQF6AJoAifzr5x9JM76KvFoqhAAEIBArgRFvxFo9ldtO9ECImUBxgfT2s9JW+8UsSM6rnzdXmjVNKhalaVMCGMuvbJHKuuQcTMrU/+JjadhQyT/HjpTGjwrs6VHnlu4RKLPcSlK/gVL/DaW+G0hsShO9kadOlD55O/p6qXExAjgAi+GI6csrD+MARInegy+99XTQUIx8V/r0PcnnYrgT0DQtb42Fb1vaZy1p452lzfeSeq3SNBff4yLgy8hefkh66UHp1cHSmBHlS+I7cn5jX2mnQwIbF+gYLR9imU+8/pg52/byQ4qVQKG4h+yVhxQrgZXXkG6o4A9XrEKnrHJ/s3dHa/AN0gv3SrNnVq6Avzluf5C033GSOwik6An4GvKHr5Hu/oc0bmR49ffuJ33rF2bbY6QubNQVHtgmJV14hPSo/V8kxUoAByBW/I0q//sL0rpbNbrAaSgE/C3jubukm88Ov8uxYydplx9IB50orbFxKOJSSBsEvPfmtj9L//2rNPPrNjJXcXvp5aRDTw+cAbczKTwC7nx/zxxn5j6Fx7TCknAAKgQX+mP7HSv96vLQi811gS8+IF1zijTyndpi8PHlvY6SjrnQxpmt4SDVhsCbT0qXWK/LZx/UpvzmSl11gHSS9TQM3L65u1yrhMBTt0nnmeNMip0ADkDsJlgogE9QusUiY3VZOikSpVeOmTaZ74qTpAevilaH5XpLx9mbqfcKkMIj4G+M//yl9Mi1wSTN8EourSSfE/C9k6Uj/mQLp9uX9gy5WiZw8u7S64+3fJ87kRGwXzYpEQR85vmDVyZClFQLMfwl6fhNo2/8HdqX46Q/Hyqd/0ObYzAj1RgTI7xHyvz1dsF4v8/jiCP5MJIPO5y6V22HHeLQLeo6Pe4JjX/U1FusDwegRTQx3PjPXyS2x6wcvHf5/3ZnmwlusRXiTE/cao3WDoFDEKccaa/7s+HG0brekxIwxhuuU/ZctEw07XzjkP/2C+KolTpbIIAD0AKYWC5PGiPdd1ksVae+0qfvkM6ymfnVzO4PE8JHr9nYsTkBEz8Ls9T8lOVOnDtzSdssa5hN1v39btJXk/Jji7A0Hf5yMCE3rPIop2oCOABVIwy5gJvPkqaMD7nQjBf35L+Drvd5c5KlqMcWOOObdBuXa5XJY4M3bf9MYnLn7vR96K0rxzY+fHOZrZZh7X851GqeFweg5ojLrMDnAvjMdVJpBLx7+OKjk7uv+MdvSud8T5o/rzR98p7LgzGdc7BF8fsk2ST8bfZfv0q2jEmS7rGbpPeGJEkiZDECOABJ/BkMvl7y8WxS6wS+niyd/Z3kdPu3JK1HqvNVCaS2CVx3uvTOc23nS0KOB66wYDY3JkGSZMvgwziX4Swl0Ug4AEm0ineX/eUoKaldoElh9n8/Sv6bYj2rey6VfB07qWUC3vD7RNg0pb8fH24kwjTpXoqs3uV/4RFMnCyFVQx5cABigF5SlT4PwJeTNRefvqQCMp5pyN3p6iVxp86D2HgkO9KSBDym/6U/T98YsS/3vObUJfXhSkDAe3RwfBP7a8ABSKxpTLA3npD8DYO0OAFfKnnlbxe/loZvHsHu3+elQdLoZfRhr4/fir7eMGp8+nbbWOqFMErKVhk+PHLb+dnSKWPa4AAk3aC+4cmt5yZdymjlu+tvle36Fq2UzdfmXdwsIVucjfeO3HnR4tfS9M3lT6NDWkvGrz0q/e2YWtZA2SEQwAEIAWLNi7j+jGAzm5pXlIIKfDb9/y5JgaAtiOhdxj55jLSIgE+SHP3+ou9pPHv3+eQELIqbn2/LfOa3WCYZtx1KqB8HoARIichy45nSTYMSIUqsQgy5xyZHfhGrCFVXft+/mNvRGKL36GQh+V4FeU9D7w0a/6QE5Mq7PdrQHwegDUCJun2TBQm66Mh8e9YPXZUok1QkzMTPpef/V9GjmXvIIyW+/lg21PIQ0HkO5e3DOB6Nk4muqfk94wCkxlQLBfXJUr/bJf1vwZVw91DJr9rYYhbSi/dnQYvqdXB7+hh6FpLHpXj54SxoUp4OPqzlLyZX/S65AbnK0yg3uXEA0mjq94ZKx26cv7jabz6VvmViLf2+fJJUVhq+lnQs5bqPF2cp+VyAPCWPiHj8ZpK/mJBSRwAHIHUmWyjw1AlBFDwPhjPty7RqUZ7cWfrj6kGePExwnpMHicna1rDDzDnPQ/K3/uv/IJ24reS7NpJSSQAHIJVmayS0x9g+coDkkeayHjTo3ZSEiG1knlZP0xLytlUlqrjpcyHckc1S+vDVbP8/9F6rp26Tjl7Pliefwx4XKf/t4gCk3IB14k+dKP3zlzYssJF54xZsJovJZxV/8k62NEv6hje1pj1uVK1riL58/52mfUlja9Tu+Yd03g+St01zazJzr0UCOAAtoknhDf/Dk9Vd5yZ8mp3x//qf1vgMNoD1upXymVUHyFc2ZDWtuk5WNculXjgAWTL7Up2lVW04IIspixsjjR2ZRUuVrpPvEpfF9OW4LGoV6LTuVlKBZiMrBsaSWbGk69FvoNS+Q5Y0WqTLzGmLzrNyNn1KVjSpTI+srpnPchCcpXtIq69bmb15KnEEcAASZ5IqBFrDlgZmNWVxaKN9x6xaqzS9Oi5VWr605crib7WxDbwXgJQJAjgAmTDjQiWy2v3v6nVZOkuWCnTJagNYqqWy6gB16VYqgXTmW40egHQabkmpcQCWZJLeKyv1T6/sbUnedZm2cqTvflYbwFIt4XNWspg6Z9BZbWyn1W0JICkTBHAAMmHGhUqsvEaWtFlcl559Fv+ehW+9VsmCFpXrsPzKlT+b5Cd7ZlSveuasBKgnkfpPHIDUm7CRAlnuAehpjWXWhgH6btDIeDk87bNmNpXus3Y29arXyl80OmR0/ka9jjn5xAHIiqE7dZGWWT4r2iypR6EgZW3ssV/OHQB3gLLWkHTrLi2/0pK/3yxd8ZVGWdcxS/ZqRRccgFbgpOrWMj1TJW5Fwg7coaLHEvuQL9vMc/I5AGtmbOXKBtvlw6LL9c6HnhnXEgcgKwbusUJWNGlZj413bvle2u74G1T/DdMmdfjybrp7+GXGWeJGO8VZe3R198ABiA527WrCAagd22hLznL3fz3JTXaROnWt/5buz+0OIqKaW3Drb6bbjk2l/8a+Ta9k8zs9AJmwKw5AJsxoSniErqynLrYUcLtvZ0PLHb6TDT2q1WK9baSsTAZcwzbjysuwTh7+3lT7207B8zgAKTBSSSLmZU35nj8uCUeiM3n3/4Y7JlrEyITzyZ17HhFZdTWtaLfDa1p8ogrP2uTNRMGNThgcgOhY17amvESV22wPaa3Nasuy1qUf8Ivs7tlQCbv9f5b+JZ5dl5X2+Ukl2qfzmbz8vUmndUqWGgegZFQJz5iXHgA3w/dOTrgxWhHPu073P76VDDm85fNX0t54uk3z1C3esVMOf6jZUxkHICs2zeougM3ZZ8fvSmndkOR7p2Q7XkNz9irl2qFnWAO6XCk5k5eney/pkN8nT65aStSufS1Lp+yICOAARAS65tVkdWvV5sD5fuQn/EtK2x8hnyD27V81pxHXlrU4Fj85P50cjjw3f05dnv7epPNXWZLUOAAlYUpBpjmzUiBkiCL6PICDfxtigTUuyrtMT7lFyuoGOGHg2/cYadsDwygpujJ83X/ahy8qoTV7ZiVP8UzCCOAAJMwgFYszJ4f/IY84R0pL5LWjzpN8mRipdQK/vVZaYbXW8yTlbncLvuVOnfdI5S3l8e9NBm2cw19uBq3oKuXRI/d5D6ffJvVaNdlG9dgFB52YbBmTIp3PAzj5puT3lHToKJ1qjX9ed3TM49+bpPwfCVEOHIAQYcZaVN6GAOphe+P/54eTOwa7+Z7Saf/O51tivY3K/fRu9T/cmdyNgjx2wW+sp8KXpOY10QOQCcvjAGTCjKbEVxOzokn5eviucueZE+CzsZOUBm4vDfqfxJKp8q2ylYUIPvXW5MVL8O7+X1wq7XZY+Tpl6YkpE7KkTW51wQHIiuknfp4VTSrTY50tpb8+J/XuW9nzYT/l3f7nPpidvQvC5lNKeR4u2XsCPMhOEpI7cj7k5IGL8p4m5fzvTUbsjwOQEUNq+lRp5rSsaFOZHquuI136irTl3pU9H8ZTvjTRJ/z98b8W3c72LiBVR8BXBVz6cvw7J7pjedFT0o4HV6dPVp6eNCYrmuRaDxyALJmf/5TBMMA59ub90wulzt2itW7vfsFQxPdPtTF/GycmhUNg1QHS31+Q9joqHq47HSJd9rq03tbh6JP2Uny+0VeT0q4F8hsBHIAs/Qzolgus6Y2vxwi46t1odg/ssnTw1n/NMJsYtnuWflHJ0cW3gf7NNYEj4HMrokjeo3T+YOv2vz29UQprwclfNIrFWpRMmRETwAGIGHhNq/vi45oWn7rCvdv2zLukf70qbX9Q+DPxPYa9L++77gPJ3/oJ8lP7n8g635AuftbmBvxHGrBFberru770uxukK9/O90z/lujyd6YlMqm7bgupSZkhMNLeeElLEvCogT4mP2G09PjN0pO2LO8T++NeSfLYAwN3sOhvR5tTYZPUaPQroVj9Mz5B0I+P35IesSV5T9ia/KkTKy/XN/LZzpzEXQ+VNtklfGexcsmS9+TICv/vJE+T3EtUKO4h+nKy8jPw7ufzH82KNrXVY/IX0uuPS++/KI0eLn1mhzcgs2csqtcbd49K12dNG//dJog66JsQeZc/KVkE5s8zp86cgfeGSsNsvsBwmzg4bqTUXMx6t2uftaRV1pZ89YjHHRhgnx7ch9Q2gb+Y8+tOFyn1BHAAUm/CRgosv5J0mzVspMoJeEMy8+tgBn+edlisnFiyn5z2pfS1HZ662qoMn0sQ9eTQoPbs/PtLG4ZxB4uUegLWn0nKDIHJY+0tdoLNhF8hMypFrog3+mndljZyWCmo0G2JPcMzVHGBNOq98MqjpFgJMAkwVvw1qHzEGzUolCIhAAEIGAEfLps1HRQZIYADkBFDNqjx9rMNp5xAAAIQCJXAW0+HWhyFxUsAByBe/uHX/vYz4ZdJiRCAAAScAH9fMvU7wAHIlDlNGZ8BndedAbNmS/SBQNIIvPNc0iRCnioI4ABUAS+Rj/qyp+EvJVI0hIIABFJMYMyIIJZGilVA9MUJ4AAsziMb3954Mht6oAUEIJAcAm/ydyU5xghHEhyAcDgmq5Sh9yRLHqSBAATST+D5/6VfBzRYjAAOwGI4MvLlI9u5bOwnGVEGNSAAgdgJeHCsN56IXQwECJcADkC4PJNT2hB6AZJjDCSBQMoJvPgAk4tTbsLmxMcBaI5KFq4NuTsLWqADBCCQBAJ0/yfBCqHLgAMQOtKEFOjLdb4clxBhEAMCEEgtAd8g66WHUis+grdMAAegZTbpvrNgvvTYjenWAekhAIH4CTx9R7BBVvySIEHIBHAAQgaaqOIeuloqFhMlEsJAAAIpI/DwNSkTGHFLJYADUCqpNOb77APp3efTKDkyQwACSSDA35AkWKFmMuAA1AxtQgrGe0+IIRADAikkQC9iCo1Wusg4AKWzSmdOH7/7enI6ZUdqCEAgPgK+p8ijN8RXPzXXnAAOQM0Rx1yBz+C9718xC0H1EIBA6gg8cp00ZXzqxEbg0gngAJTOKr057/6HNHtmeuVHcghAIFoCvorovxdHWye1RU4AByBy5DFU6F784OtjqJgqIQCBVBJ49r/SmI9SKTpCl04AB6B0VunOeeeF0vx56dYB6SEAgWgI3PF/0dRDLbESwAGIFX+ElfvmQE/dFmGFVAUBCKSSwEsPSh++mkrREbo8AjgA5fFKd+7r/yDNnZ1uHZAeAhCoHYHiAum602tXPiUnigAOQKLMUWNhxo1kRUCNEVM8BFJN4LGbpBFvpFoFhC+dQKG4h4gVWzqv9OdcejnpxhGSf5IgAAEI1BOYN0c6ej3pi4/rr/CZcQIdMq4f6jUlMO1L6c6LpCPPbXqH740JvPV0sHLig1dsCaXFUui5irTFXtI3j5OW7dk4J+dJITBruvTkvyXfCXOK7YTZY0Vpg+2lnQ6RunVPipTJleOeS2n8k2udmkhGD0BNsCa80E5dpCvelvqsmXBBYxDPo59d/BPpiVuar3zpHtLvb5S23r/5+1yNh8CQe6S/mt2mTlyy/u4rSCf8S9rhu0ve40pAYPJY6Sf29j9tCkRyRIA5ADkydoOqHhTo0p83fOVkIQGfAHWOvS221Ph7Nv8DeeaB0oNXgi0pBDxgzVnfbr7xdxmnTgjsSiyMli12+a9p/Fumk9k7OACZNW0bir3yiPT07W1kytltbyBeuK9tpd1RuMSGAm6/oO285KgdAbfDVb+33qzftL3ttW+L/ffjJZ8IS1qcgP8tYInw4kxy8g0HICeGblbNy8zrnz612Vu5vHjX30pX2xuUa06RzvuBNHNa6c+RMxwC3tV/2j42n8UCXJWafHiH8LaL06I3cHEeOfuGA5Azgy+m7uQvpGtPW+xSbr94g/KJzYsoN/mb0wlbST5ZkBQNgdcelX62mfTq4PLre/nh8p/J8hO3nG0hf21VECmXBHAAcmn2Rkrff5nkXYB5Tz5OXGka9Z70q20CZ8rfMkm1IeDbWl90pHSqrcaYMLqyOsZ/WtlzWXzKV0vcUUYPShYZ5FwnHICc/wDkXdl/OUr6alK+SSyzfHX6+z4Lt/3Z1lGvG4ynOldSOATmzZXu/rstXR0QLM2shm2nruHIlPZSZnwl/d+PJN/1j5RbAjgAuTV9I8UnjbFJbcc2upDD0+V6S6usXb3i40YF8wK8R+DFB9qenFZ9jdktwRt+j0z30w2kf/0qHCd1wObZ5VWOZv88QfL9QUi5JoADkGvzN1Let/8cfH2jCzk83d9miYeV3n9R+sM3pZ9bg+PzBDzKGqk0AjO/ljwojb/x+1vq5x+W9lwpufb4cSm5sp3nmTulR2/Ito5oVxIBAgGVhCknmbosbUulrOHqu35OFG6ipjfSv91Zem9okxshfF1+JWlvC1Szjx29+4ZQYAaL8EmY918uPX6z5F3UYaeBO9gcgieldu3DLjk95Y35SPrFlqz5T4/FaiopDkBN8aaw8FXXsSBBL0ldl02h8CGI7JMBT9mzdhuiFKzTbaCFp93th0FkumrnHoSgcqxF+JCJx6N44lbp4zdrJ0q/gdIFj0k+1JPX5KGSfWiqktUueWWWcb1xADJu4IrU29Yi3Z15l1QoVPR46h/y2Ajefe+zpGuZ2ncInIFtDpC2svrCmINQS3nDKNsn8I14XRp6XxB06aPXaj9PYn1r9M6x+Rh53wDLY1YQ8CeMX3FmysAByIwpQ1bENwv6QY5jBPgGQH+2t/Qhd4cMtpXievaRNtzRNrDZLvjsb2+t3mOQ5uTDKh+8Kr37vB3mUL07JAjNG5VOvmfDaf+WOneLqsZk1uMBkDxiIgkCjQjgADSCwWkjAj5OetY99ma6X6OLOTv1t9Vbz7HtkwfZW6qFnY06+cZD7gysZ2+wq68n9dtAWnlNyXsOkpi8sf/sA2n0+9JH9pbvPSgfvGy7Kc6MXlp3nA77gx1/TL8TVS09D5x0+r6SL1UlQaARARyARjA4bULAJwVe9JS09uZNbuTs60sPShceEe2ba0uIOywVDBW4Q+DHahZ3YIVVg61ve60idVmmpSfDue6bIX051rbbHR/Mzh89PGjwPx0WLCtLwrry7r1sMud1wbBKOFqntxSfV3GS9SrVYlJleqkg+UICOAD8FFon4LPXL7FZ8b37tZ4v63e9wfMNgJ7/X7I19a2el1/ZJruZ3XzCm2+F2956c3xSp78Vd+tus+AXftZr4uvt6/czmPZlcNUnjPkxZYId46RJXwQO0NzZ9U8l83Pbb9lEtyvyPdmv3jITP7Mw1VtLEz+vv8InBBYjgAOwGA6+NEvA3zT/at25eZ+x7nB8q+DLTwregJuFxcVYCLijc+xfpN0Pj6X6xFXqE1lPsmWPzPhPnGmSJFDKZxglCWWGZfHu3UHfjmcsN2lYd/2hxfy3bu+DTpQ6dEyadPmTx+dDHHiCdJ3NPaDxD+zv+1GcdRCNf/7+N5StMT0AZSPL8QNb7BVMDOzYKccQGqnujtG1p9qStntrv5StUbWcGgFfoupLJ486zyZH2moJUkDAJ2J64+9hqEkQaIMADkAbgLjdhABOQBMg9tW7WW/5k/Tsf3AElqQT/pXNdrcwwdbwr7Nl+GWnuUSfy3HOwbZ01VbvkCBQAgEcgBIgkaUJge1sOOCMO5K7HK2JuJF99aVv/7skCLaS9MlykUEJqSJf/bDz92zo5dfSWpuGVGiGivElfh7ox51QEgRKJIADUCIosjUhsNMh0sk3Mw7eBEvd18m2TO7+IdzacgAAE49JREFUy6SHr7UZ2J81l4NrpRLwpY17HSX5Rk2+uoG0JAFv/C+wyY9E+VuSDVdaJYAD0CoebrZKwIMEnXGn5EvPSEsS8OBBrz9hm9vcJD1jb2YeXZDUNgGfY7L5nsGkPu9tSmrgo7Y1qX0O72n686HSc3fVvi5qyBwBHIDMmTRihTx07dk2Cc7Xl5NaJuCN/xvmDPhWrP7Hun7dfctP5OvOUp2lzfaQdrQxbN8bgd9T2/b335BP+PNIfyQIVEAAB6ACaDzShIBHCjzvoSDoTJNbfG2GgP/hfuUR6VU/Bku+I14e04qrB2/6PrHUj1pHMcwS46kTLbzvPhZq+ZUsaYUuERPAAYgYeGar85C07gTkPWJgJQb22PmvPx5smPP2s9mdN+Dj+QMtOI3vb7DpbkEo40p45f0ZdxhP2zsIwZx3FuhfFQEcgKrw8fBiBHqsaAGDbPc8336VVDkB/wM/bGiwoY6vLPDtc/2NL01p2Z7BbP21Ngs+17OQtDiH1VvwPftdnGXzIr4cV31ZlJB7AjgAuf8JhAzAx3JPukba1SYmkcIj4PHcPfDQZ8MXfbqjMP5TKa4lhz5Zb4XVpJX62QZFAxZtTrS69Qb1sg2KSOESeOJW6eKjJY/0R4JACARwAEKASBFNCHiUNt+G9bAzg4htTW7zNWQCk7+QJoyWfPmhb1rku/V5j4EfHhnON/Wp/5zb5LuL0rmbLee0dfb+2XHhZ/13//S3+R4r2NE72HXQN4jy8XuW5YVsyBaK822pbxoUBJvycxIEQiKAAxASSIpphoDP6P6N9QYwuasZOFyCQAkEZn5tW3JbHAQC/JQAiyzlEmAzoHKJkb90Ar7k7edbsClJ6cTICYFFBHxy6Ak2n4bGfxETzkIlgAMQKk4KW4LAZx/YH7GtpEeuXeIWFyAAgRYI+LbT7jyPereFDFyGQPUEGAKoniEllErAw7ke91cbZ7bJYyQIQGBJAj7B7zLbavqBK5a8xxUIhEwAByBkoBTXBoG+G0in2B4Ca27SRkZuQyBnBPxt//zDbNnnGzlTHHXjIsAQQFzk81qv/5E7YWvp9gts69wFeaWA3hBYRMBn9t/9d+lnFlGTxn8RF85qToAegJojpoIWCay/re0oeJO08hotZuEGBDJNwGM5XPhj6a2nM60myiWTAD0AybRLPqR6b4hNdLK3Hp8gyPrmfNgcLQMC/nv3cf5jNqTx5zcRGwF6AGJDT8WLEfAY8SfaH8TV11vsMl8gkDkCn38o/e1Y6c0nM6caCqWLAA5AuuyVbWk7dJS+c5L0o7NYKZBtS+dTu3lzpf9eLN14Znzhm/NJHq1bIIAD0AIYLsdIoN9Amyh4me0ct32MQlA1BEIk8MYT0t9/FuzlEGKxFAWBagjgAFRDj2drS2Dr/W1m9CW22Uz/2tZD6RCoFQHfrOmGP0iP3lirGigXAhUTwAGoGB0PRkKgUxfpwBOkQ09nT4FIgFNJKAR8A6Y7L7Llrueze18oQCmkFgRwAGpBlTLDJ+Dbyx7952Cb4QKLV8IHTImhEJg/Txp8vXT9GbYr47hQiqQQCNSKAA5ArchSbm0I9F1fOnyQtMN32Wq4NoQptRICvqzvpQek66yn6uO3KimBZyAQOQEcgMiRU2EoBNb5hnSYja1u9c1QiqMQCFRM4LXHpKtPlj56reIieBACcRDAAYiDOnWGR2DjnYNlgxvuGF6ZlASBUgi8Oli6aZD03tBScpMHAokjgAOQOJMgUEUE1tpMOsh2Udv1UKld+4qK4CEItEnA96946UHp5j9Jw19qMzsZIJBkAjgASbYOspVPoM9atmrgl9J+FmmNbYfL58cTzROYN0d66nbp1nNZy988Ia6mkAAOQAqNhsglEFhxdelbv5D2OkpatmcJD5AFAs0QmDxWeugq6b5/SX5OgkCGCOAAZMiYqNIMAe8F2OaAYHjAdx8kQaAUAh++apv1XCk9ZgF85swq5QnyQCB1BHAAUmcyBK6YwPrbSAf8XNr+O9JSnSsuhgczSsCD9zz5b+nef0oj3siokqgFgUUEcAAWseAsLwS6dZe2/Za02+HSprsRTyAvdm9Jz/q3fW/8Z37dUi6uQyBzBHAAMmdSFCqLwGrrSjt/X9rzCKl337IeJXOKCUwYLT1xazC+P2ZEihVBdAhUTgAHoHJ2PJklAr50cJNdggiD231b6rFilrRDFycw8TPp2f9Kz9xpa/eHSB69jwSBHBPAAcix8VG9BQK+18AGNmFwx4ODY/mVW8jI5cQT8Eb/ubuCRv9db/RtHT8JAhCoI4ADwA8BAq0R8J6BDbaTttxH+sa+0hobtZabe3ET8Ab+A5vB//JD0osWm/+Dl3nTj9sm1J9YAjgAiTUNgiWSgA8NbLl3sAfB5ntKPqGQFC+BrydLrz8ueUz+F++XJo2JVx5qh0BKCOAApMRQiJlAAh06Sr4p0UY7BYf3FHTulkBBMybStCnSO89Kbz4lvf2MbcLzurRgfsaURB0I1J4ADkDtGVNDXgi072AOwZYLnYHtpXXNOei+Ql60r52eEz8P4u57Y//W07ZG/03G8mtHm5JzRAAHIEfGRtUYCPTsI629eXAMsE+PRrjM8jEIkpIqZ3wlffK25Gvz/Xjb3vTHfpIS4RETAukigAOQLnshbdoJ+AqDldeQ+g2U+q4v9d9QWt0+V7d4BB2WSrt2pcs/e4b06TBp5LvSKDtGvhN8jhtVehnkhAAEqiKAA1AVPh6GQEgEfPhglbWDY6X+gZPQ+LNT15AqirCY6VODt3d/g68/vvg42E3vC7vGkrwIjUFVEFiSAA7Akky4AoHkEViut9RzFTssJoGvRPChBf9cbqXgmg8rdFlG6rqstHSP2sjvgXOm2wQ8b9hnWMhcn33v4/NTxttOeV9IX44Nzn0Wvl//alJt5KBUCEAgFAI4AKFgpBAIJIyAOwJ+dLNjqS7BfgeNHQNfrdB4yMF3vJszM1DCG3qfae9p5rQgPr6Pzfs5CQIQyAwB63ckQQACmSPgDbYfEzOnGQpBAAIhEbAZSSQIQAACEIAABPJGAAcgbxZHXwhAAAIQgIARwAHgZwABCEAAAhDIIQEcgBwaHZUhAAEIQAACOAD8BiAAAQhAAAI5JIADkEOjozIEIAABCEAAB4DfAAQgAAEIQCCHBHAAcmh0VIYABCAAAQjgAPAbgAAEIAABCOSQAA5ADo2OyhCAAAQgAAEcAH4DEIAABCAAgRwSwAHIodFRGQIQgAAEIIADwG8AAhCAAAQgkEMCOAA5NDoqQwACEIAABHAA+A1AAAIQgAAEckgAByCHRkdlCEAAAhCAAA4AvwEIQAACEIBADgngAOTQ6KgMAQhAAAIQwAHgNwABCEAAAhDIIQEcgBwaHZUhAAEIQAACOAD8BiAAAQhAAAI5JIADkEOjozIEIAABCEAAB4DfAAQgAAEIQCCHBHAAcmh0VIYABCAAAQjgAPAbgAAEIAABCOSQAA5ADo2OyhCAAAQgAAEcAH4DEIAABCAAgRwSwAHIodFRGQIQgAAEIIADwG8AAhCAAAQgkEMCOAA5NDoqQwACEIAABHAA+A1AAAIQgAAEckjAHYAFOdQblSEAAQhAAAJ5JrDAHYC5eSaA7hCAAAQgAIEcEpjtDsDsHCqOyhCAAAQgAIE8E8AByLP10R0CEIAABHJLYI73AEzNrfooDgEIQAACEMgjgaK+dAdgUh51R2cIQAACEIBAbgkUNAkHILfWR3EIQAACEMgxgToHYFyOAaA6BCAAAQhAII8ExrdTQZ/mUXN0hgAEIAABCOSWQEEjfQjgk9wCQHEIQAACEIBAHgkUcQDyaHZ0hgAEIAABCHzSTnP0HhwgAAEIQAACEMgRgQV6v13hKU20eQBjc6Q2qkIAAhCAAATyTODzwuPBMkCpqLfzTALdIQABCEAAArkhUAjafJ8E6On14IN/IQABCEAAAhDIOIE3XL/AAShqSMaVRT0IQAACEIAABAICz/tH4ADMk38pBtf5FwIQgAAEIACBjBIo2ry/upf+OgegbiKg9GFGlUUtCEAAAhCAAAQCAsMKj2iyn9bPAfDzR/0fEgQgAAEIQAACGSVQ0OB6zRY5AAU9XH+RTwhAAAIQgAAEMkhgwaK2fpEDID1pqs7KoLqoBAEIQAACEICANFPT9Uw9iAYHoDDYLjMMUM+FTwhAAAIQgEDWCDxcGGpOwMLU4AAs/H5n/Q0+IQABCEAAAhDIFIHF2vjFHYAuuttUZRggU/ZGGQhAAAIQgIC17R30QGMOizkAhXv1td28v3EGziEAAQhAAAIQSD2BewsP6avGWizmANTdWKBrGmfgHAIQgAAEIACBlBMo6OqmGizpAOxQt0ZwVNOMfIcABCAAAQhAIJUERmpbPd5U8iUcgMIgLbCgwFc1zch3CEAAAhCAAARSSeCqura9iehLOAB199vrMvv0ZYEkCEAAAhCAAATSS2CGvdZf0Zz4zToAdXGCC7qxuQe4BgEIQAACEIBAaghcXXhck5qTtlkHoC5jQRfb5/zmHuIaBCAAAQhAAAKJJzDXhvQvaUnKFh0A6wX4yB66uaUHuQ4BCEAAAhCAQKIJ3FB4TB+3JGGLDkDdA+01yD7ntPQw1yEAAQhAAAIQSCSBuSrovNYka9UBKDyskfbwda0VwD0IQAACEIAABBJGwFbz2R4/n7QmVasOQN2DBf3RPqe2Vgj3IAABCEAAAhBIDIEpmqcz25KmTQfAPIjx1o1wblsFcR8CEIAABCAAgQQQKOjswlOa2JYkbToAdQV0t1mERQ1vqzDuQwACEIAABCAQK4Fh6q5/liJBoZRMnqe4p3Y0J+ApOy35GX+OBAEIQAACEIBAJAQ8ku9ONvP/uVJqK60HwEqyoYBn7OPKUgolDwQgAAEIQAACERMo6vJSG3+XrGQHoE6Nok62TzYKqoPBPxCAAAQgAIHEEBipjjq1HGnKcgDMs5hq3QuHWQVECCyHMnkhAAEIQAACtSOwwIo+ovCQviqnirIcAC94YffCBeVUQl4IQAACEIAABGpEoKA/FR7V0+WWXrYDUFfB3Lr1hWVXVq5w5IcABCAAAQhAoBUCRT1p8XrPaSVHi7cqntFf3E29bQbBq1byKi2Wzg0IQAACEIAABGpFYLQ6aHPr+p9QSQWV9QBYTba94DhbEHiInc6upGKegQAEIAABCECgYgKzrA0+uNLG32ut2AHwh21p4BAT4Md2WvTvJAhAAAIQgAAEak6gaG3vT6wNfrGamqpyALxiE+B2+2gz5nA1QvIsBCAAAQhAAAILCRR1mrW9t1TLo+I5AE0rLu6hy+zacU2v8x0CEIAABCAAgdAIXGoz/n8ZRmlV9wA0CPGofmbn1zR85wQCEIAABCAAgTAJ3KTt9KuwCgzNAbCuhKJ66FgT7M6whKMcCEAAAhCAAATqCNxhbeyRhUHyoD+hpNCGAOqlKR6s9pqiq+z7kfXX+IQABCAAAQhAoEICRRvvn2eR/p6yf0NMoTsALltxkK0uGKJLrU/g+BBlpSgIQAACEIBA3ghcqkd1Ql0ve8ia18QBqJfRJgb6WMXFdoQ21FBfNp8QgAAEIACBDBPwpX5n22z/QbXSsaYOgAttTsDB9nGDHV38OwkCEIAABCAAgVYJzLYe9KNs751bW81V5c2aOwAun4UN3sb6AHxyIGGDqzQYj0MAAhCAQKYJjK6L8FdlkJ9SCEXSNW9hg4davOJNTaDHSxGKPBCAAAQgAIEcEnhGc/WNaiP8lcotEgfAhamLVzxXe9vpeXbM92skCEAAAhCAAASsTSzoLFvmt6vN9B8bFY9IhgCaKlPcXVubsh7GcI2m9/gOAQhAAAIQyBGBUTZEfnjhET0btc6R9QA0VswmNrxgExw2s+NKu85GQo3hcA4BCEAAAnkgsMBehC+z4fGN4mj8HXAsPQCNLVvcUzuaC+CBgwY0vs45BCAAAQhAIKMEhlm7d4y9DD8Xp36x9AA0VtgmOzyjyRpo1060Y2rje5xDAAIQgAAEMkRgiulyik+Kj7vxd6ax9wA0Nqz1BqxoXtHZdu0oOzo2vsc5BCAAAQhAIKUE5ljbdrW1aoPqJsQnRIlEOQD1TIq7qq9NijjN3BN3BDrUX+cTAhCAAAQgkCICc03W22yO/1mFJzQiaXIn0gGoh2SOwJrmCJxkjsARdq1r/XU+IQABCEAAAgkmMN1ku87e+v9qXf0fJ1XORDsA9dAskmBPcwKOs+Ondq1v/XU+IQABCEAAAgkiMNJkucpeXC+3mf2TEyRXs6KkwgGol7xul8HntIc5Akfbtf3t6Fx/j08IQAACEIBADARmWp33Wbt0tbbV44VBWhCDDBVVmSoHoLGGxQO0jGbpAOtiOcSu72EHmw01BsQ5BCAAAQjUisBMa/AHW1N/hw1O31e4V1/XqqJalptaB6AxlOI21vgvo53NGfBQw+4MrGtHJnRrrCfnEIAABCAQCwEPWDfMjket0X9YM/R0Yaj8zT/VKZONZHFn9dJStgOhrEPGIw6qLs5An1RbCuEhAAEIQCAqAmOsorfteM1eJYfaLP4htqndpKgqj6qeTDoAzcFbOJFwPTNmf7vfz47+5hysYJM1etpnT/vuRzs7fF4BwwkGgQQBCEAgQwT8jX2WHT5GP8nagkl25o36eDsfaZ+f1B3tNCwNE/hM1qrT/wPPLP0EqjsDhwAAAABJRU5ErkJggg==;" vertex="1" parent="1">
          <mxGeometry x="185" y="221" width="38" height="38" as="geometry" />
        </mxCell>
        <mxCell id="LdxUq8u8mY5ZMptnZAze-2" value="Reddit&amp;nbsp;&lt;div&gt;(70 million active users, 510 uers)&lt;/div&gt;" style="rounded=0;whiteSpace=wrap;html=1;" vertex="1" parent="1">
          <mxGeometry x="45" y="210" width="130" height="60" as="geometry" />
        </mxCell>
        <mxCell id="LdxUq8u8mY5ZMptnZAze-3" value="&lt;h1 style=&quot;margin-top: 0px;&quot;&gt;Reddit Post Analysis&lt;/h1&gt;&lt;div&gt;I was worndering , if as a data engineer taliking about real work how one could imagine the flow of data for such big platforms&lt;/div&gt;&lt;div&gt;Here is how i was able to decode this with my skills&amp;nbsp;&lt;/div&gt;" style="text;html=1;whiteSpace=wrap;overflow=hidden;rounded=0;" vertex="1" parent="1">
          <mxGeometry x="39" y="10" width="750" height="120" as="geometry" />
        </mxCell>
        <mxCell id="LdxUq8u8mY5ZMptnZAze-15" value="" style="edgeStyle=orthogonalEdgeStyle;rounded=0;orthogonalLoop=1;jettySize=auto;html=1;flowAnimation=1;" edge="1" parent="1" source="LdxUq8u8mY5ZMptnZAze-4" target="LdxUq8u8mY5ZMptnZAze-12">
          <mxGeometry relative="1" as="geometry" />
        </mxCell>
        <mxCell id="LdxUq8u8mY5ZMptnZAze-4" value="Data storage&amp;nbsp;&lt;div&gt;(Distributed Storage)&lt;/div&gt;&lt;div&gt;HDFS, Cloud Storage&amp;nbsp;&lt;/div&gt;" style="rounded=0;whiteSpace=wrap;html=1;" vertex="1" parent="1">
          <mxGeometry x="45" y="340" width="130" height="60" as="geometry" />
        </mxCell>
        <mxCell id="LdxUq8u8mY5ZMptnZAze-6" value="" style="shape=image;verticalLabelPosition=bottom;labelBackgroundColor=default;verticalAlign=top;aspect=fixed;imageAspect=0;image=data:image/png,iVBORw0KGgoAAAANSUhEUgAAAgAAAAIACAYAAAD0eNT6AAAAAXNSR0IArs4c6QAAAERlWElmTU0AKgAAAAgAAYdpAAQAAAABAAAAGgAAAAAAA6ABAAMAAAABAAEAAKACAAQAAAABAAACAKADAAQAAAABAAACAAAAAAAL+LWFAABAAElEQVR4AeydCZwV1ZX/T72mm82wugNi2FExivsWNToTNZAxE7sb6AVN8pf/JBPALRI1EU2MGE0Uk0wG5p8h9AK9mGWUxGSCURP3BVRUkEUxCorKqmzd9Kv/77zuh03Ty1uq7q2q97ufT3/69auqe+79VnXdc8899xxHWEiABEiABEggggQuX+D2695NpjoiV8QdGY7f/dHN9fhZFo/J/PopzuMR7HbKXQIPFhIgARIgARKIDoErF7g9duXLNRjgvotefaaTnj2LYzNrS51nOjknsoeoAET21rJjJEACJJB7BIoWuROduNyHng9Lsfcuznsgz5EbFpU4b6d4TSROowIQidvITpAACZBAbhOYvMgd0xSXezGoXZIhiV2OK3c3dZe76ouc3RnWEarLqACE6naxsSRAAiRAAq0JFNa5A5wGuRWD2TfxfbfWxzL5DHPAu1AEbq4tlUpx8CnChQpAhG8uu0YCJEACUSVwwaNutyM3ytdcV+5AHw/1up8Y+h9visnM+hLnJa/rDkp9VACCcifYDhIgARIggZQITKpyL8LU/F6cPC6lCzI/KY5Lq2MxuWHxFGdT5tUE80oqAMG8L2wVCZAACZBAGwKFle6ImCM/wteFbQ75/ec2x5E52zfLfQ9Pd/b6LcxU/VQATJGmHBIgARIggYwIlFW4vRvhpY9Z/yxxpHtGlXhxkSOrxZXrsG1wiRfV2a6DCoDtO0D5JEACJEAC7RNwXae4Ssow6N+FE45s/yQr3y7FssBMLAu8ZkW6R0KpAHgEktWQAAmQAAl4R6Cw2j095spc1Himd7V6WlMjLBK/bGiUW39/lbPN05oNVUYFwBBoiiEBEiABEuiaQOFCd1AsT+7EmaX4CcMYtQXLArfHu8vPET+gqeseBueMMMANDi22hARIgARIwBcC2M/fM69RpmNb3y0QcIgvQvyt9CXkF5gZpvwCVAD8fSBYOwmQAAmQQBcEWsL33o/Tju3i1DAcXhKPy/T6cuetoDeWCkDQ7xDbRwIkQAIRJVBc6Y6HkV/j9p8XsS42wD/gP/fslVse/LrzcVD7RgUgqHeG7SIBEiCBiBL4ykJ3YH6efB8D0LfQxbyIdlO7tRHxA24bs0b+3+zZSFEUsEIFIGA3hM0hARIggagSuHqem7+9F2L2Y1BEH/tGtZ/t9Ot5hBaeWVPmPNXOMWtfUQGwhp6CSYAESCB3CEyqdL/sOnIPejzSRq9hkn8gJvIYfquToY2YAmoBqMh35aaqMuc9GwzayqQC0JYI/yYBEiABEvCMAML3jsbA+1PM+i/zrNL0KloJxeOauhLnz3rZ/qiCjtyIP3ukV5UnZ++ENeCeHvtkzq+vcvZ4UmOGlVAByBAcLyMBEiABEuiYwJRqt/++uNyINfBrcFZBx2f6dqTT/fkW8wokO/wO4gfcUlvmVCS/MP2bCoBp4pRHAiRAAhEmMHu2G1s5XEox674bA8zhFrraiIF1AYIJ3YxQvR91JX9yhfuFuIPMgo6c2NW5Ph1/tCWs8Cs+1d9htVQAOkTDAyRAAiRAAukQKKp2L4Sv+30WB9OMYvRf8Kjb7ciN8jU3Lj9E2w9Lp88enZtIO1wQl+sry50PPKqzy2qoAHSJiCeQAAmQAAl0RmDSYneI2yR34Jyyzs7z8dgaDNw315Y49dnICMCyxVYsmdzVlC/3IqxwQzZ9SeVaKgCpUOI5JEACJEACBxEIgEPdNgyYc7Zvlvsenu7sPaiBGX4RAMfFN7CEci0cF/+YYRdSuowKQEqYeBIJkAAJkMB+Apqmd5FcgbV23dZ3zP7vzX1ImMyxdn4D1vk3+SUWSxoXw2NfQxSP9UtGF/UuRUdn1Jc6r3dxXkaHqQBkhI0XkQAJkEBuEiiuck9DzzV879k2CGBAfrxJk+6UOC+ZkN8qeNHtkNfHhMw2MhJph90C+T6WBba3OZbVn1QAssLHi0mABEggNwhgnf9od5/cirX2b6DH2NpvtiCAz7sY/G+uLZVKcfDJcJm8yD20KS7fw6BpJXwx5G5GpsQfeJl2mAqA4YeI4kiABEggTASQprcgtlf+DQP/D9Duz1ho+y4M93c3dZe7MAPebUH+ASIDkMBoGXhoWOG/H9CwDP6gApABNF5CAiRAArlAoCVN71z09bMW+quz/AfyHLlhUYnztgX5nYoMQArjJU6efLtmsrO+04Z2cpAKQCdweIgESIAEcpFAcYU7Fkb+e9H3L9roPwamFxPr/FOcJ2zIT1XmxHlur96HyLdhmtf8Aoekep2H5+2G7Pvd7vJDWEc+SbdeKgDpEuP5JEACJBBRAjD3D8Du81sxMFhZ58aU/72YI7ODmj63o9teuNAdhMiDd+J4KX5sjKsbsCPjpnT9I2w0tCOG/J4ESIAESMACgVae7rMhvp+FJiQ83fNFvldd6uywIN8TkYXV7ukxV3TJ5ExPKkyzEgzoz0GJmlFb6jyTyqVUAFKhxHNIgARIIKIEWva667a+4y11cYl0k5m1k5x1luR7KjaZCwF2gB+j4iM8rTy1ytR3oireKN+pv8p5v7NLqAB0RofHSIAESCCiBBD2dmSTizS9IhMsdXEVZsvXLC5z/mRJvq9i90dJFJkFZaC7r8LarzyRdnj7VrmzoyiJVADaB8dvSYAESCCSBC5f4PYr6Caz8PKfaWlgSqTp3TRYfvHYhc6+SEJu1akWRUvzJBS2+trkx7W4zze1lyeBCoDJ20BZJEACJGCRQFGVO1X31GNAsJHxbh9s0//RDU5+2Na31SIGK6Kx1PJFsNedFbbCCv8ZWyqntd5SSQXAyqNAoSRAAiRgjgC8+3vGGmQeJNrK1ve/iGl/jV8x7c2RzE5SK2fLW1FT/+xqS/9qDPiboYSVwUnwYb2aCkD6DHkFCZAACYSKAOL3L0CDr7TQ6A7NzxbaEhiRrbZbfhON6ma0Ya7shSXi3Jpy5wUqAEbJUxgJkAAJmCVQVOlORsrcRWalyg7I/AHy2t9vIq+94b55Jg75BU6MxxOJlS70rNLUKnorXiBjqACkBotnkQAJkEAoCUyqcl+A2fcUQ41PpOlNZQuaofaEQkxLWGHdijnMVIMRQXAKFQBTtCmHBEiABAwTQEjfExDSd4UJsTArPwFFY0ZtmbPMhLyoybhygdtjV75cg0H5JvTNRFjhh6kARO0pYn9IgARIoIVAcbX7rwgR+xufgWQUhtbnNoW2+tJK96hGkdnw0PM77fKbxnM6h/ausOEkQAIkEDYCcRnia5NdWYe15JMx668QBzYAlqwJVJU574HnNChuN2RdWecVHEMFoHNAPEoCJEACoSXgOj57mDsyHMmDXp5U7V6tIXBDCypADdfEQti1AYVK7vG5Wd14w3wmzOpJgARIIMoEsI58FBzK5q0aIc8h0NA5Ue6rn33TWA1QpG5EVsFVkKPxGnxfoqcC4OcdZd0kQAIkkCMEdKcBRqy/Y/Zah/C3Q3Ok2550U3cBIFDT61Ck5qBCEw6AiXabDUDgCSpWQgIkQAIkEFACOmstRJKhL02qdO/usU/m/PoqZ09A22q9WcWV7njM8++TuJxnozG0ANigTpkkQAIkEG0CveB/cCu2ta3BIFcuLv5i2U/gKwvdgVgumYvB/zl8aWXw18ZQAdh/S/iBBEiABEjASwIY9QdjkFs4qUoehSLwOS/rDmNdmgsAHGYU5Mk6sJmOPuTZ7AcVAJv0KZsESIAEcoAA5v/nQxFYpt7tCH97RA50+aAuIhvgxdt7y0sJk79I34NOsPAFFQAL0CmSBEiABHKQgI43ZYh9v0q93S+93+2eCwwKK93RmPX/AVES/oL+HhekPlMBCNLdYFtIgARIIPoE+qm3e5+B8gosAhOi2l3shOiPRExzYo68gln/ZUHsJ3cBBPGusE0kQAIkEHUCroxCFx+CErA0FpOZi6c4r0WhyxoQaeVwKW2Kyz3IiHhYkPtEBSDId4dtI4EIEUCgkzxEjTsTXRqBnyMwMwq6Z3gDzNXvY3/78/VlztoI3YqgdeVicF6OvAU/29sgP/j9Vc62oDUw1fboOv9KV+7F+Sekeo3N84L+D2iTDWWTAAl4QECznO3uJt+GI9j1eOEc7kGVNqrQDHe31JY6D9sQnqlMbDW7Dsz9DimbafMOvs6VD52Y3NKUL7+qL3KaDj4hmN8U17jDZZ/8BK37l2C2sP1WUQFonwu/JQES8IDApMXu0W6T/B5VneZBdfarcGRuPF+uC8vgFDoF4NM7/FIcywL1U5zHP/0qeJ++/Cv3Mz0K5GYMpDNhzwqdUyOdAIP3TLFFJBAJAvpyxOD/J3QmGoO/3hVXZsQa5ceRuEEpdKJ/T5Ge+Smc6P0pJ8Xi8piGFYYSeaz31WdXo67zw7P/qp7dZTXW+W80PfjrzP2oPtknC6ACkN1zwKtJgAQ6INCju9yJQ+M6OBzer125Fmu9F4a3A6m3vE8PkbOOgdPGQBFLqeMKoUS+PqnK/UFZhds79Zb7dyZCHJ+9cqQ8i0H/vyHlSP8ktV9zX9yTU4eIHO9BNAUqAO0z5rckQAJZECipcgdjlnJ1FlUE+lLs6b4t0A30sHHw0JdjB4icjfQ+OuvEwGe69IQj5i0NMXkDSxqltsIK6zMNi0Q1fFmegCXoVNMQusNl/3ioGzr4qxLgRaEC4AVF1kECJHAAgX2uXI4v7BiPD2iJb3+cU1rpHuVb7QGsuEAHIMw6Tx8s0s+jASjNbg6C7lFZXC1PFVa7p6d5bcana5peDPzf3yfyBiqZgh+jKhB2y8hnkwrYZ7wVTgUg48eCF5IACXRIICbjOzwWjQMxuKjnZGx7XRY4BbPQcVB/etjZSH5mzJVn1D+gsMLFAoV/pSVNr8YnuA0/vfyT1H7Nh2LR4yxYXoZjCSbPh9Hazu1rv6/8lgRIICIEEOntcKPTJAvc3Fiwg7z4iUTv7RHIWn8ohsT12LX/9haROOz0Bos2oRDLE5diWeBHvRrlXi/TDsPBz2qa3s9gP8EohBBSJ0w/iw86hZ/NZd0kQAJhIIC3c+QnF1ByPgrDvfCzjTorHQ7z9DnHwj/AY/N0iu0+BM/aj3bny2oM2uUpXtPhabbT9OaD52gM/KfDruH34K8QIv9P2uGd5gESIAESyJyA6+TJq5lfHq0rkw5qRyPH3eoPRT7ea7x/Q7AyvxC7M6ZCMZtZX+qsSKcFWOcvyGuU6bj2FlyHXpgt2EooQyBV1/rzDSYIpgXA7H2mNBIggWgQeKFmsvNONLriXS901qqz17FwFjQ5kCV7gN0ZX8CgthzWgP9A2uFDk9939hu+BBNiDfIqBv+7cZ7xwX+grvODmZr8TTOjBaCzJ4PHSIAESKAdAtgKNrudr/kVCOji/CBsFzwSSwLqG7B+q3H/gDw04t+QX2Ay0g7PQVjhexG5saHtzSle6I5y8+Sn+P5LbY+Z+FsDLI2AiqK+FLYKLQC2yFMuCZBAKAlggFtYV+L8MZSNN9joPIAaBu919WK3NMgl0g4jcuMKBO/ZP8gn0/RKnqxAE/d/bwqNzvJHYuDXWb8lLvu7SgvAfhT8QAIkQAKdE8CAUdVUEN0AR533PrOjOtPVLYNH78RGerhN7jpoLp5ZvSlfhbTDsNgsgal/CQL4PIrdCjdhzR2qidmCZ0eOhmVkOAb/AoPr/J31kgpAZ3R4jARIgASaCazHLrfvIRtgFYFkRiCx1o1tg+9sF3kLSwONCKRguEzA0sAEs7sVm3uovhG6xq/b+4JUqAAE6W6wLSRAAgkCeEn/DrO11VZxxKQJTmXvow3Pj10rz82e7cStticCwtXb/Zh+zVsG120W2QBlwMaAbAqlBkoaiYHftqm/o/5SAeiIDL8nARKwRgADRRVm27+11gAK9pWAroOPORxb36AM6LbBzbt8FWe8co2PMBR90xwKGso3qIUKQFDvDNtFAiRAAhEn0LtA5ORBIh/CP0AVgd2N4e6wjvWHw6tfZ/2WwiSnBZAKQFq4eDIJkAAJkIDXBA7rLTIQ/gG6JKBLA/tCuNjSR8P3wqphKVFSRreECkBG2HgRCZAACZCAlwTUVK5LAocjfsCb2C2w4WPUHgIHAc2SqMl6BqHdiSAIXkLxuS4qAD4DZvUkQAIkQAKpE+gO/wCNJDgIMflWQxHYtjv1a02eqQ6Ng9FGHfy7hTSiDhUAk08MZZEACZAACaREIJF2eLDIB5+IrIEisCdA/gGapleT9miMgzAXKgBhvntsOwmQAAlEmIA61ekWOk07/DZCClsIK3wA3V5wWhyNQD4a0yAKhQpAFO4i+0ACJEACESag2+o0rLBmG1wHa8B76h9gsGiaXpU/GD4KqpREpVABiMqdZD9IgARIIOIEdGvd8Uc2KwIm0g7rYB+08L1e3mIqAF7SZF0kQAIkQAK+E9DQumcMabYEqKOgH2GFB2DZQcP3HgKzf1QLFYCo3ln2iwRIgASiTADT86OQXEcd8tQ34J1t3qQd7gXHPk3YE9TwvV7eUioAXtJkXSRAAiRAAkYJJNPrqqn+pY3ZRRMc2r95W1+Qw/d6CTekuxe9RMC6SIAESIAEwk5Awwrr7D2botEIc2XwV05UALJ5WngtCZAACZAACYSUABWAkN44NpsESIAESIAEsiFABSAberyWBEiABEiABEJKgApASG8cm00CJEACJEAC2RCgApANPV5LAiRAAiRAAiElQAUgpDeOzSYBEiABEiCBbAhQAciGHq8lARIgARIggZASoAIQ0hvHZpMACZAACZBANgSoAGRDj9eSAAmQAAmQQEgJUAEI6Y1js0mABEiABEggGwJUALKhx2tJgARIgARIIKQEqACE9Max2SRAAiRAAiSQDQEqANnQ47UkQAIkQAIkEFICVABCeuPYbBIgARIgARLIhgAVgGzo8VoSIAESIAESCCkBKgAhvXFsNgmQAAmQAAlkQ4AKQDb0eC0JkAAJkAAJhJQAFYCQ3jg2mwRIgARIgASyIUAFIBt6vJYESIAESIAEQkqACkBIbxybTQIkQAIkQALZEKACkA09XksCJEACJEACISVABSCkN47NJgESIAESIIFsCFAByIYeryUBEiABEiCBkBKgAhDSG8dmkwAJkIDfBOKu3xJYf6YEXA/uTbdMhfM6EiABEiCBaBN4Z7vIviaRkYeJFORFu69h6t2WXSJvfCiSrQ5ABSBMd51tJQESIAGTBDDCvPexyAc7RYb2Ezm2v0iMdmOTd+AAWbsaRFZ/JPIR7ocXhQqAFxRZBwmQAAlEmEBTXOTNLSLvQxkYfqjIEYdEuLMB7FojrDDrt4q8s03Ey2UZKgABvNlsEgmQAAkEkcCuRpEV74ls6CUyCssChxQEsZURalOLBUZn/aoEeF2oAHhNlPWRAAmQQEAIxBxp9MJZrG13dA362X+IDO4Li8BAkW5cFmiLKOu/t+6GuR/r/B/vzbqqjipopALQERp+TwIkQAJhJ+DKO351QRULNUm/v0NkGJSAwfARcPwSlkP17t0nshYzfl1uydbJrwtsb1MB6IIQD5MACZBAWAk4MVnpYv3ez9KI+tUjfQN2DIzGskB/LA+wpE9A/Sx0nf9t/Hi5zt9JS1bRcNMJHR4iARIggTATWDzFWYX2P2uiD5/AQ/3FDSIvbRTZDV8BltQI6Cx/0yciT2NJ5S04Whoa/NVcs4AWgNTuEc8iARIggVASgFn+LgwyvzXVeN2ipj4CiW2DWBrI47pAh+h37Gm2nmzHb8Nl1aaj5UFaAAxTpzgSIAESMEmgptT5HRaTf2lSps5i34Ip+8n1WBqAj4Dfi9km++aFrAas86/cJPLcuyIWBv+diOVwxWMXOvtoAfDibrIOEiABEggwgXh3mek0SByT8W+ZbGZyoNsI/wDdNti3h0npwZOlitHbcJxcv1mkSW3/hgtEvgfT/yQsDb2momkBMHwDKI4ESIAETBOoL3Ia6kqdf4fn/hUYBDDvNFt0lvsC9iO8hlmvernnYvlA1/nfFlkHD39Lg/8DbqOMrytx/pbkTwUgSYK/SYAESCDiBOrKnN/s3imjHUdmoasYkswVnfC+h+WApzAIvokZsDFnN3NdbFeShu9dDsfIVxBAyZJz5ErXkUugABbWX+W837qRVABa0+BnEiABEog4gYemObtqSpy7sP47Fl2txI9RY3QyrPCT65sVAqPCDd7b5PZInfVvhmOkhbIFd3ZmvEDGYdb/5/bk0wegPSr8jgRIgAQiTqC61NGlgPJJFe4v3Jjch89nmuyyLgXoksBGWAXUP+Az3U1K90+WKjTaJw3m40f43hRa3oiBf0EsT27GWj9a0XGhBaBjNjxCAiRAApEnUFPuPDt2rZyDQWMqOosh2WzRkLfPqn8AjNMNPsS7N9mbZIhk9fC3NPgvhYf/ybVlzrSuBn/lQguAyaeDskiABEgggARmz3Y0XmBFYZ3727y9cj1msbPgLW5uTg6Bmnb4I8QP0JTDQ5BjIExph3VtX2f8GtDHUlmD+3VzbYlTn458WgDSocVzSYAESCDCBLBb4JOaMmd2XkzGoZtpDSZeYNFZ8xoMpBoVz6uc9160q6M61JtfHRp1nd/S4L9NHTp3bJFx6Q7+2idaADq6s/yeBEiABHKUwKISZw26XjSpyr0IY5z6B5xgEoXOqDWk8ADkFdD8Ar2Dlna4xWKhyoqlZQu12FTDSnIDTP0ZL9vQAmDyqaYsEiABEggRAUQRfGTTIDkZs8xpaDaGO7NF19SfgTXA4pr6QR3W8L0awU8dGG0M/o4rjyOi0ym1pU55NoO/dowWgINuL78gARIgARJIEtCQsfg8H/4BDyCa4K2OyDfxt7GxQ9MOazhhDaRjM+2wwTS9SfQH/AaGdzH431xTiq2bDj55UGgB8AAiqyABEiCBqBOAf8AWBJOZAbPzOIw+fzLd3+S++md0Xz0sA6aKxi3QFL1PrW92VPRk5E2v8bsw3N/mFsgoePdXeDX4axOMaXHp9ZdnkwAJkAAJBJEAzM6r0K5Lixa5E7F3QP0Dhpls506NrIe0w4f2bvYP6Jnvn/QPEcDnjQ9E9tgJX6y6xgPIpnjDolIHao/3hRYA75myRhIgARKIPIG6Kc5DiDI3VqPNobMw0pstuktAve/f+FBkn7rEeVg+3tucu+BlOCLaGPwdkRcx+p+Hdf4iOGT6MvgrLloAPHxo/KrqygVuj135Ugwz0Fex13M4Hoz+eEDegrwXJS7za8udV/2SzXpJgARIoCMCmmQIx+ZOWuzWu3G5E8pAGf7G68lM0XwC72xr9g8YeWj2MvdiG+LrcO7biJgE6IvxApHIGCDfrS0RT039HXXE2I3qqAH8vmMCcLrJizXK1Rjkb8O/FDbDdFBc+SPCPl7XYprr4CR+TQLmCBRXubpG/MWMJTryVexr/m3G1/NCKwQKq93TY67MhfAzrTRAR7RsBu5sr8+803sg+t6mAvmRxmLIvJr0ruQSQHq8jJ1dVO1eGGvADN+V/+h08NcWOXJZPC4riivdeZMXuR7owca6SUEkQAIRIlBf4jyH2evZeCcVoVtvG+9aNoO/Njbb6zPr8BKs8x+PLZc3mRz8talUADK7Yb5dBVPaEMyeKmDu/yuEfC4NQd3wT3c1FIE3oAjMUOtBGtfyVBIgARLwhgC2qGlUul075Tj1XkeliPbP0g6BVbCWXIp1/olY53+zneO+f0UFwHfEqQkoq3B7T6p0Z7tNshpX6DpapmUAFIH7YD1YMbnSvSTTSngdCZAACWRDIJF2GGGF4Wg2CvUYTzucTdt9vjaRphcBlsYtLnOMb6ds3TcqAK1p2Pjsuk5xtVvYEJPXXUduRRN6eNSMsYgW9TCsCQ9NqXaHeVQnqyEBEiCBtAho2mGNWhePyYW48KW0Lo7WyfuwxDAfcRRGYz//3JYAS1Z7SAXAIn7k4T61uFqewENRh2Yc41NTJiBhxcqiKnduSZXbxycZrJYESIAEOiVQP8V5HGmHT8H7bipOzDh+fadCgnvwEThzp5ym11Q34HjIYpoA1vmPdvdhtu/INyDbmBIG/5b3Yo7MHrNG/l9L+k/TXae8HCHAXQA5cqMz7OblC9x+Bd1kFgagmXgPmks7nGF7s7gsozS9WchL61Jjg09arYroyXDMK1AHPazzr1KHPXTTKH/8sx2FuNrzVo2Q52AROCeimNktEiCBgBP4/VXOtroyZ5attMMG8HyiDpCZpuk10L6ECAYCMkQ6ETazAftjHfmsIZEdioEl4BQoA3/HLK05zKSPkaY6bAQPkAAJ5DyBZNphbHu+GAOmhhU+PuRQNCZh1ml6TTEwOgM11akgySmucMeqORQxsx9Eu6wP/q3YQAeQQvgHvK67DzTaYKtj/EgCJEACxgjUlThL++60l3bYo44+i3rO8SJNr0ft6bIaKgBdIsrsBJj7B6jjHYz8K1BD5hHRMhOfzlW9dPcBQg2vwfJEuWBXQjoX81wSIAES8ILA/GlOY02JMx/5BUbDSnk/6kRg3uAXtPVddWxEAKSzMPg/E/wWf9pCKgCfsvDk09Xz3Hxd58c+/HUYSaej0lAE5EFbB2N5YuGkKnkU7U8nAJEn3FgJCZAACSiBZNpheM2Pw59/DjCVXfCpugtpesd6nabXVJ/pA+AhaV3H2h7ydSzM/88HkmVYtgjNOpaHt5BVkQAJBIQAkpytRFMusZV2uAsMS5w8+XbtZGd9F+cF+jAtAB7cnuKF7igMmA/BieUvqC7sTixKRJ+LMoQVXjWp2r3x0vvdKG/T0f6ykAAJBJRAm7TDmqfPZlmGgEaapndiTcgHf4VIBSCLR0n3shZVunNA8RVUMyGLqoJ6aT+YuOb0GSivQMGJYv+Cyp3tIgESaEVA0w5r9DzMusdoND0cUm97k+UjyJ0J/4TTEdDoCZOC/ZTFJYAM6M6e7cZWDpdSmMvvxtr54RlUEa5L3EQs74egBCxFGMuZSDv8Wrg6wNaSAAlEgQBm3RvRj2mIovpfbiyRdvhsn/vVCCe/X+aLfK+6zNnhsyzj1dMCkCZybJm7YOUIWaYOczYGfywzPI4mfxc/W9JsuhenX4xlgeXIXfATtX54USHrIAESIIF0CdSUOy/A6/5cDM5X4lpVCvwo/yPdZGxdqTMD+QwiN/grMCoAKT42iKM/GDPgCsz6/4pLjHvJJ7ea1JTKhVh/moP80SPUAxVtaUixC16dlg9T2LXd82Wd7nZg2mGvsLIeEiCBtAgg7TAG54VIOzxSo+7h2j1pXd/xyW/g0GV4z15eO8lZ1/Fp4T+CSSxLZwQmznN79e4l38HAfyPOsxEsZxce7rubustdWAc7KK92YaU7GlrcT2GRuKyzfvh4bCXYXINAHkHeruNj91l1ewSgLGua08zjXzjyVeSU/217dfM7EmiPAHKsDEGY9TtwLNN06lsxublt02D5RRAy9bXXR6+/owLQEVFN07tIrsADcQ9O8StTX0fS9XtM+iXlUL0toTQ1eMZYvdhCWQKrxAyE9nzTgmyKDBgBKgABuyE51BxdpsWkRMMKp2qp1TS9/x3vLrdgkvVhDqHCvJHlIAJwMDmjxcHkjIMOmvnieWw1mQFv06fTEafb9foOlJlYGrgZ130mnWs9OncPHqh78uMyp7Lc2elRnawmhASoAITwpkWoybo0GWtEwrU4lgYcOayTrv0vHJuvzVXHZioArZ6MRJreuNwJbVBNSMbZYMr/HuR+97i1UplNut7CBe6RsQL5EfoxFfXZ8PPYgL7MqiuRasE6XSvE/JgjBKgA5MiNDng3NcfJ7m5SBIvAV/FCH4GXUX+8ENfj7xeRGv2/MPDrFu6cLcYHuSCS1jS9sb3ybxjyb0f7+lhoYwMezP9MbDXx0NsUTnrj0Sc1hZ1noU+qQr2AJEgzasqcp6zIp1BrBKgAWENPwSSQMgEbs8OUG2fiRA0zibj9K1sGShuDv66d+7LVBIEzlsGT9fNYzvgyWK43wfMAGa6cCk37CQwGdYUVrg0/igOawz9IgARIgAQ+JZCzCkCbNL3DPkVi7NOqmCuXakhJvx3nNJQmtsoc7zgyC737xFgPmwWplakQ62wrmXbYMHmKIwESIIFOCOScAhCANL1bsDY/c9MgGbe4zNGtUkbKQ9OcXUi1eRdCP+ougUr8mF6bT6Qd3p0vq7E0UW6k0xRCAiRAAiTQIYGc8QG44FG325Eb5WvwkNd9ood2SMS/A4mtJrE8uRmOJx/5Jya1mgur3dNhgZiLs89M7QrPz3pMFSEsU7zsec2s0DoB+gBYvwVsAAl0SSAnLAC6R/6IDbIcg/88ELEx+D+C7SgnY7CbFoTBX5+K+hLnubFr5ZyWnQKbunxSvD/hAvhdaNrhirIKN/r5FLznxxpJgARIICsCkbYATKl2RzY1z/gLs6KU+cVrMMjdjIhm9ZlX4f+VWBY5JG+vXI81gVlob3f/JR4kYRv8E+Y05cu9mvXroKP8InQEaAEI3S1jg3OQQCQtADqgqcNZU1xW4J7aGPw/0djUO7bIuKAP/vrMY9D9BFv1ZufFZJz+qd8ZLom0wwjcsQL37UuGZVMcCZAACeQkgUilA06m6UV6nB9j+9kRFu5oHDKr4fF+A0z9NszqWXUZuxHWoIKiSVXuRbAGaPyAE7KqMN2LkXYY920JZo9MO5wuO55PAiRAAmkSiIwFQMP3Ik3vUzBhLwQDG4P/s5B7Drb1lYdx8G/93NSUOo9gl8LJMMtPw/c2HBYTaYeLqty5sOb0bd02fiYBEiABEvCGQOh9ADRN7z5B2FuRUvwY7w9myu/C3H9zbSm21kUw7K1um8Sq/K0A+03wNW4xgtzNcN78ARJ1/BxLFU3ePPasxW8C9AHwmzDrJ4HsCYTWAqBpenWdH4P/amCwEbt/Fwamu9wCGQvv/oooDv76eGHQ3YKc2zOwrDEOyo6xuAXJRxsyB0Ktuw+hmp/Hbo7PJ7/nbxIgARIggewIGJ/RZddcXP1pmt67MTgMzbq+zCrQ8L3/vqjUeTuzy8N3FZY1VqHVl2roZMT3V/+AYUZ74WBJwpXHMbNcEo/L9Ppy5y2j8imMBEiABCJGIFQWAASvOaW4Wv6Ovet1uA82Bv9lSNN7Xkv43pwZ/Fs/8xpWOA6rhwbxwfc7Wh8z9HkCrBGvFVW6c778K9dGymND3aQYEiABEvCXQCgUgNJK9yiEj52HyHXPAcc5/iI5uHZYGt5ThzgMfKfXT3GeOPiM3PpG9+pj2WNuvitjoAjMR+9194PJ0hP348ae3WXVpGr3at39YVI4ZZEACZBAFAgE+sV59Tw3HwP/jEZHVmEd+GoAN93eRgz+9yNN7xjE0Z9PJ7QDH/mqMuc9jW6IJYEzcOTJA48a+etoje6I3R/PwB/kbCMSKYQESIAEIkLA9ICaMjZda97ey26aXvi8+5KmN2UIITmxptx5obZEzoOSVoQm/8NCs09j2mEL1CmSBEgg1AQCpwBMXuSOwf7vhzGrfBADynALdNXZ7TJd56+d5KyzID+cIrEFUqMeIu3wWI2CiE7sMdwR7BhMpB1+XXeHXLnA7WFYPsWRAAmQQKgIBEYB0P3mGvgFHt4r8Ca/xALFrerYpml6Mfg/bEF+JEQm0g4jrLCTJ6PQIU07bLr0hjXgVqYdNo2d8kiABMJGQGdNVktQ0vQi0MwtWOP/0CqMCArHbPwCDMi6bfBzlrr3KHYNzMQ2xlcsyc9JsQwElJO3nZ0OGQGrFgCNOY80vctspenFwPRXuK+PV0c2Dv7+PLlIMvQY0g6Ph3VlKhwqP/BHSqe1Xgir0nIMSEw73CkmHiQBEsg1AlYsAAFI07sW/gU3hSFTX5QeyMsXuP0KusksbOG7Bv0qsNC3rZB9F9MO+0+eFgD/GVMCCWRLwKgFoKzC7a0OWhbT9O5sSdN7Agf/bB+d9K///VXOtroyZ5Y0JcIK/yH9GrK+oj+sTXNiDfIKnkOmHc4aJysgARIIMwEjoYCTaXobHPkxYNnI1Afrs1TFG+U79Vc574f5hkWh7bVTHc3fMAGx/S+GQqb+Accb7tdoLP8k0g5jCWhGfanzumH5FEcCJEAC1gn4bgFA+N7TEajlSZjcF6K3xgd/rHFo9MCzNU0vB3/rz9sBDagrcZb23Sknt4QV3n7AQTN/XIx/gJeYdtgMbEohARIIFgHffAAKK9xj4H2tM34NDuObnE5wvgOp36mdIrVRzdTXSd9DdwjLQ4c35MkdUAa+hsb7rpi2A2gT/ANuHrNGFsyejSgULFkRoA9AVvh4sUcEsL38EGQSLcFYUIgqNa5MH/z8A38vR3LxeQhi9qxHokJZjecDs6bp7dVbbgSNG/DT0wKVXTDv/nj3J3K37km3IJ8isyAwabF7stskc1HFeVlUk82lmvBpBnM+ZINQhApAdvx4dXYENIz8jkPk3+Hz8z3U1L+T2v6GmCUzayY7yzs5J7KHPFUAWlLF3g9ax1oitgQ389u4mestyadYjwi0PEuqCHzWoyrTrYZph9Ml1up8KgCtYPCjUQIZ+Bapxa8aFusbEC9kk9HGWhbmiQKAhD3jUdFczLzPtdSfZXAmm4k953+3JJ9ifSAA813PvEaZDi3+ZlRvI/Xvbsi+f0+D3PHg152PfehiZKukAhDZWxvYjrVsL/8pGjghw0bqLrF7tm+VOx+e7uzNsI5QXZbVWivi9h+qDlRYT3nOxuAPpWOzOpBpml4O/qF67lJqLIIz7UYWxrviTTIWF2hYYd3NYbIk0w6vhJJbLi6echYSIIFAEdD4IkWV7pyW7eWZDv7ap0QY8T4DZEVxtas+A5EvGb3QdH0Fmfq+iYH/dhBSpwrTRdP0/tItkO9jkLDhPW66v5QHAphVnpawNImcZQnI8y3+AU9bkh8asbQAhOZWhbahye3lGIf82l7+iMRlZm2582poIXXR8LQVgMTabJPcC+jqUWmjLMVNmY6bstKGcMq0TACz8OIqKcPzdxdacqSF1jCmRArQqQCkAImnZEygcJF7fiyeiCFyUsaVpHbhPtgd/zuWJzfDP+Cj1C4Jz1kpKwCaphcx1XV95VJL3XsDBthrsXf8j5bkU2yACGhUyUZHbsAzoTtObKT+TawX9tgnc359lWM69XGA7kT7TaEC0D4XfpsdgZIqd/A+kR+hllL8pDx+ZSc1cfUWKAK3bxosv3jsQgdNiEbpEiAcK/rvc2U2TvwmumwkcmAbtIzf3gYI//yUQGGlOyLmJF4IttbsmFfi09ux/xMVgP0o+MEDArq9vHcv+Q4U/u+gup4eVJlpFatirlyzuMz5U6YVBOm6DhWA/Wl64/JD6FmHWWh0wvTCNL0WyIdQ5OQK9wtxJ7E0daKN5uPF9Nc8JDli2uFm+lQAbDyFEZSpS36L5ArMvu9G74YGqIdL8P8+Y1GJ82aA2pR2U9pVABIv01hifWVc2jV6cAFfph5AzMEqAqC0JvYTY1fKdbmeXpoKQA7+A3rcZYSRPwWzbY0Fco7HVXtVXQMcgv4zX+R71aXODq8qNVnPAQqArq80ivwCX37ZZCNayVJz6vXI1Pc/rb7jRxJIiwDiBwxwGuR2PMfTcKGNZStdL7yptsyZl1bDI3QyFYAI3UzDXSmtdI/a58idGFzLIDqrreqGmr4RYcRn1UyRqrCFnd+vAEyqci9C0JPFlsz9HwPgHds3y325EoDB0IOZ02KKK9wT8Pq4FxAutgLClZoCV75RWe7stCLfolAqABbhh1T0pfe73bEH/xo0/yb82Aj8lS25Z5FFZEaY8gskZkfw8D8RHv4PYfA37VzBLVXZPnK8vkMCLft3/6klNKiGqB7b4cl+HHBkElJg90QAoa+EbWbgBw7WSQIdEdi/vbw5YU9HpwX9+zPcmDwN5fcBjKfX15c7/wh6g2Mwlxagsb9BQ00P/k9CWzqdaXqD/oiEv32adnjHFjlZzXTojemQvv+CuAVXh58ie0AC3hMorHLHYcBcirHgQUxAbcWW8bJjalUvRF6B1yZVujdducC1sUU55f7E8hrgYSkyIuUrsj9xA9ZHp9aWyHkwlbyQfXWsgQS6JqBLSxpWGP+Yw2B2UmtAU9dXeXbGDRq1zLPaWBEJhJyA+uloGHn8UyxDVy4KeXfaa/4hcGa/Y3e+rE6EEW/vjAB8BydLKTfUjt2Qc/uunTIKzlEVNIkaok4xBxDQaF51pc4MzDjOxIGnDjjo1x+Y2bw+0lqiLL96xXpJIG0CulNnUrU7PdYgazFVno4KbDjppt3uLC4YAsvGQlg5/qpL7VnU48ulOis5zpeaP61U1/lrscwwBub+Wx+a5uz69BA/kYAdAmp9ghXqXLyESvCAvut7K1zf/8987wIFkEA2BDAI/vMRG+RlOJvr1r7+2dSVybX4P/8DlgFvwP/85kyuz/KaCzEGLoOz/S81iV6WdXl2uSoAgzyrrb2KXMTtL3UmhcEhor3m87sIE3Act6bUWdTQKBrv4jU/e4qXzlA/62fdJBBUApqmF2bwB9G+P+PH7wlnexg0et+lsPxNwDLgPU0FMgon/Qw/pkP65kEJ+b9QBHRZYIYm1WuvsSa/UwVAf/wrjsyF5lcBrecI/4SwZhLIjIDuEOieL0/g6uMzqyHlq6z/s6fcUp5IAh4Q0HwdcISbnUjT68hED6pMt4pt6viLwFyfax26F0G6tmBSOj3uygnwR7ORW6Y/lgXu236IvAo+X0q3U16e7+/g39xSlVEGrWcV1n5u1L2eXnaAdZFAJgSKF7qjoJg+5LjyF1zv9+CfSRN5DQmEk4CG7610yxtishaOcLdisDP9zteInJUFcRmtjr8Y8BvaA1lf5rwBf7QvoY3/hOOvt3eOr9+5Mgqyl+A99BdMkK28g0woAEmG/bD2MweBHlYUV7u2Erck28LfOUrg8gVuv6JKdw7sXq8AwYQcxcBuk4AvBBC+9/TiajjXwvENAo70RUjnlT6GWf143V6OAFwfdH5q81HdJtx3p5yE62bim+2pXOPxORdjgrxcd0Vgd0Rfj+vutDobHpgjAboOWs9SbMmaCa9sX9deO+09D+YMAd2Gt3K4lELjvhvr8YfnTMfZURIwQKBwoTsolid34t1uOk1vsnfvQPYtiR1myW/S+D1/moMo+DL3Kwvdqvw8+T7eEd/C33lpVJHtqfmQqbsjSmA9+QGS4P0clgvftyqbtAC0BZTQetDZeUHyimzbSP4dfgKFi9zzV47AfmPMSjj4h/9+sgfBIYAZa09d2sXgvwqt0tj9+BczWnZhGe+2no0t28uzFP27qc7mxDbhPDkNVf0ty+rSvhxOggNB8L7YXnke/kmfT7uCNC+wYQFo3cR8dPZqmD+ugCJwuymtp3UD+Dm6BDS5Fdx8fyRxa7OS6MJlz3KeQCJ8b4Pcj0HrWAswIFZ8C7lbM9lZjvrPT/QxnggcZraPDiKXuvI4LOVLMD5Oxy66t/xgbNMC0Lo/AxJaT4OsgNbzxdYH+JkE0iUwcZ7bS72PMfivwbU2ZiXpNpnnk0BoCGCyNh4D098S4XttDP6OvIDB8Vys8xf5vb28borzEHYRHGcpjLg+ExM0rLD6LX35V+5nvH5IgqIAJPs1Fjf2T3i4HsLe0WHJL/mbBFIioN7HcDDt1VteT3gfiwQ6DndKfeJJJBAQAlgfH6iOapisPYcmnWehWZp2d9rYNXJGTZljJoonOom1+N26myDelEgmVomv1PpgsvREv2/s2V1WQvkqR3Ixz5ZZgqYAJKFOaHJlpT5sfmg9SSH8HR0C8D4+Bd7Hf8e/Zh16NTQ6PWNPSMAuAQ1Yg4FnRkGerMPIo+F7TTrHaecbMOLev3uvjMFAPH/2bNgeLJT6qc4G3V0A0WeAw9MWmjAIytdCvOeehV/TWV7ID6oCoH0r0IcNWo/GD7iayVS8uN3Rq6O00j0KL6d5iPSls5JzotdD9ogE7BHQQFnbe8tLukSLVhjdotbS6yV5joxVx7wHv+6YzuTZLngoAc/XlOBdg6R2OOH9dk/y98vTYnF5EpbyisIFblZbLYOsACQRHo34AfNWjpRnsa57dvJL/s5tAprGWmcljQ68j+FIChpheJZz+6ax96EhUFjpjsb/1x+wJKuBso6z0PCVMHRfgsF24qIS500L8jsXiTDiuuUQwYZGgNFtOHlP5xd4fhTzYymL5cta9XfKNO1weF6arpyKB+IJaD11hRXuMZ7jZIWhIaCeudgvu7JlVtInNA1nQ0kg4ATge9VfHc5iDgJlOXKZheZuwcx6JhzvxiFAj+YOCHRBsKGd8EeYjbDCmk+k3kJje6u/E9IOZxRgz/Y2wHR5qdZTCK/IL0HrubvHPpnz66sc05pXum3m+R4RQLyIMYgrfi9WAC/xqEpWQwIkAALJQFn7XATKcqwEymrEwL8A8QRu1pTdYbspCCu8Fm0umlzhfiHuyL1Qnkyn/h2h/k9YsvkrlkyuAUONdNplydoCcPghXcrw44ReLVrP6/D6/lc/BLDO4BBQ72OYI/8D+2FfhQZofPDPx39J/57B4cGWkICXBJCi9iIEytJ1/oX4/7IRJfNhTOpOhEl9WhgH/9b3YnG589dNg+UUDMbfxvdbWh8z8RnLEV/Ae/JFjIs/wzLpgK5kZq0AjDtK5JTBIp8xne6huWefBejfYFngUQwQn+uqszweLgIXPOp2UwdQeB/rOv+/ofVmvY/xNjwKO2/POlbkMDuKbrhuGFsbKgKTFrtD1JEMHvZL0XA1YZsua/B/XYR1/ssw8K8yLdwveY9d6OyDMvNzzMRHwH/tLshpNxmRX/JRbzeMi/+OZdK16iel79GOZGWtAGjFOjs6YwhSqiHhL17WNsoFeJCW6cOMFJQ2NFgbfY60TJ2VHLFBlqkDKDp6qOnO9u8lciY8TY4/0tozbbrLlJcjBJJpet0mWY0ua6As0yWRpnfHFhlXW+LYWDc30l84L26tK3NmwT/gRAzIfzQi9EAhibTDeI++iqWBdv05OtQMDqwnhb90tgR3rEN7i7wFw8c7yKmEl7fJospMGVJQToDWc1vfXfIfLQkeTLaBsrIkACekkVjn/wkenYlZVpXR5T3zRUZC3bC0tJVRm3kRCaRKAKbhSXtd+am+rlO9xsPzmjAQ/goh329BcJ0PPaw30FVp2mE08Etg/y/o/z34PMJwg0djaeAPkP97JybfQpjjjUn5nlgAkpXpb2RSklGHNc+eBkIZsFASWg/2rr48udI1vl5sob+REIm4/X3gfXw3AkC9CmuO8cG/G/4TdOA/C7N+Dv6ReKTYiVYELr3f7Q6r2nwMQIttDP4YgB6Hc9ypus6fS4N/q1sgsHb8D6weJ2BycyO+Nx/TwJXLEc1wuVpXk+3yXAFIVty7QOTko0XGDxLRzxbKWDxwD2NZ4C/wHj/egnyKTIGAeh/DYlOOuP1vwPv4elxi9GnBy7B5nX8owgf2RzAB3/4jUoDBU0jAJwJ9BsrPMfD8H5+q77BayHwXSsfUmlK5sL7EeanDE3PkwMPTnb0IavTjhib5LNjcj243mew63neHQ+4SvHPHq1zfX3cDWtZS1Sqg1gELRdMOq3/APfCKtBHJykKXwyES4SzPhffx85jxL0SLsdputvSF78pp6rsCyd29Wwwz2wlKI4EuCGDGdwUG4W90cZrXh3eiwlvcgpY0vQic47WAMNe3P+1wXM5EP5403JceeOfWaIhnI689zOzkmH7NPgJvboZKuM14NgWdVV6X1yBXQvP5AdMOG37c2ogrXOgOwn7fO22l6dXBfsRAaBzwWVELAAsJRJkAtkzfCAXAVFFJD8AD/gY4wb1tSmhY5dSUOy+g7edaSDs8clsv+YrvFoDWN0b3U4+GJeB0rLPa2FeNJ3Mg3vj3xfbK8/CK/HzrtvGz/wSSaXox+Ce9j42Ov4huJsOwM/bsoc3KqFHh/uOlBBI4iEBhlXscBv9TDzrgwxf4f3oO1Z6NbX1FHPzTA6xph3ftFF2qvh0/u9O7OsOzHSk3qgAkm6kxAzR2wOfgI6Be18aLIyerUwqWBR5CWOHPGpefgwJVw0Wa3tc0gBO6j4Uhs0V3p5yFgX8YZv55Vp56s/2lNBJQAlB6x/hNAhOr92DlnTZmrZyFwf8Zv+VFtf6Hpjm7wO9WOOqNRB8r8QO0/hWMgWOMLAF01IXD8FIeiKHg7a0i6/GD7V+mywQ4fV0Ea8A93ZvkLo3rbLoBUZenaXqRqW8uzP1WMvWpsqlWp35Y72chgVwjgFn5YF9HEZE3sc5/Zk0Obevz+xnStMOQUY7lao3O+BPf5Dky1PpcSM2yn1Wz7LEig7Ama2FRtic0oe8hfsBqph327lHT8L1FVe5cDP7Polbjg78GpEouN3Hw9+6+sqZwEUAQGr9trMMQcW657uRB4Be8zVmyJZBMcY6x8O5s6+riet39HIzSHS/ssYgkeDqWBtQ720JpTjs8Qp5h2uHM6atnKV4GMzAAr8PbYDpqMrr3Qx1Oh8DhVBVK/c03Uub3kleSQIoEBuEfbeGkankGy6rq1c6SAQEbKc4DowAkefXpIXIqlADNMdDDb901KfTA36dBj2Xa4QOZpPQXllIuRgAmNVvdhwuMb7nULadnwMFUZ/7BUW1TQseTSCD0BLDUcDo68SSUgArEXsF0jiVVArZSnFv1AegIjs7ajkDylUNb+QfAlGWyaBM07fBlsAbcw7TDnaMvrHRHQ5P8KVxWLuv8TH+OaqApjeKnjn4sJEACVgnopLIMsVf+Vd+d27fKnRr8xmqLAizcdorzwFkAWt8r9dZWr20152pWNgult3qt786X1Yk1LgsNCLJIxO3vj/C9c+DH8Qpm/cYH/2T4Xp31c/AP8pPCtuUggcS7s88AWYEY9IU52P9Ou6ypetVHCorSCsw2rYWsD6QFoC25HmilRms7Ckbl1R+IfNLQ9gzf/x6ia1wwbV0Jq8BMpK58xXeJARag4XtXDpdS7Nq4B2vuMLgbLviPOQoWIovRJQ13mOJIILQERsIyWId35yPYCTSzttx5NbQ98aDhmpr3yI3yNbdB7kB1sFvaLYG2ALRFMwDOgYkUrVhdshRW+EJobMt1jStX0w5jnf9CDP7LVSHCj/HBf/8zAIXQ0jPQ9rHk3yRAAl0TuAiB53W3wDyYva0PfF031/szbKc4b69HobAAHNBwnf1hu+BhmAEm0g4jrLBh/4DEGpemHca2wbua8uVeZLcyb5M4AIr/f0xa7A5B/vA7oM2XYeA3XtQKNBzLQXrvWUiABEJJoBveHVdjEnUFFIHbNw2WXzx2oYM8YNEu8JEagWXSH8GNLXBLIaGyALR+TJLrv2oRsLT+2991ZU6sUVbA2eVLrdsWpc+wdPRG/2Zj8E+G7zXavYQfSEucCA7+RtFTGAn4RWAAFIH7jtggK6Kcsj357sQgq8segRv89eaGzwLQ5pHsBQ/wkxBSeMsu+Ad8aME/wJVRcBRcgmWBpQhkOKO+1Hm9TRPD+SeCehQvkisa3EQkKuTMM1vUyHA4rDwjscigs38WEiCByBEY05KyfQmSB81A/oA3o9DDpI9UgyN3oT9YrAxuCa0FoC3SAOwBvxgwX1LPzrCnHYYyc1pxtTyhzjvgbHzwPyAWBAf/to86/yaBqBGY0OTKSn13llS5oV7kQ+jz05Hi/ElYOBbiJgV68NeHKDIKgHYmAFHg8jFznY60w+s0Gh4UAaNR8JRBNgXr/Eerkw7q0IQeZ2dTVybXajTI4+HgeRpUDkvRIDNpNq8hARLInkCBvjsbRVaFMSS7pjhX53CEPtd355nZ4zBTQ6QUgCQy23Hg4ewRqrTDyRCUWOdfpU464Gj0udB8EEP7I1vfsc1OfviThQRIIAcJ4H//KPhWzVs1Qp6DRcB4DpF0kSdSnFe7NyLF+SpcW4afUL2+jL7o04Wb7fnJtMOJsMI2TMnNwblN+wAAQABJREFUaYcfg2ZYg7TDcFcMXtEgHUjm8YY65aB1xsMtacRHDfSkkfwYvjd4zwdblNsE1BJnwwcHk6hTMJL+XWfVOrsO3F2AjxSCoE1GivNV6gyO9uFNZrbouzNbbSPSCoDeDgXUepCBs4npohKLEUBolUbN+/KvXOODbHsdxlrVSfDuf6xlnf/Y9s7x8zvrypmfnWPdJBARAv16wDI3tFlBt/TuLMPserXuRIKl0k6auDb3Esuk4+Ej9TiWnBfhkHEfqdbvzjZNS/vPyCsASSJJM7PONjWssHk9QHrigbmxZ3dZiQfIWupM/BMlQlBireoF7F44P8nH1O/WyzP9A/HvbKrnlEMC4SSgW3F1ic7iu7OXhmRHtJXmkOyW0g4nU5xj8HgOd/I803fTj3dnzigAyZvVHUsBGlb4VOhtqt1aKInUmdAgny1c5J5lSn4yTS/M/UzTawo65ZBAhAi0fnf2tfDuxKRtMAbfhZOq5FG1YJpCm3x3RjHFec4pAMmHRh/gU6AEqNe5PtgWymmxeHPqzMIFLlQS/0pLml4N36vr/P38k9R+zbpFUwM2MU1v+3z4LQmEiYC+O3UCZevdqZZLWDBfVP8Av9MOt7w7X255d1pJce7nu9PO0BeQp12XATS6nAaceXuryHr8GA4rrE0oi+U3p870Ou1w8UJ3lOQhkI8rE2wg1yBNo+DcZylSo40uUyYJ5ASBALw7dfKqaYcnYtvgnO2b5T4v0w7bTnFu6t2ZsxaA1v+lybTDZ8LZRR0GLZRk2uE3Ev4BWTbg8gVuP3U4xGY+zVpofPDXJD3q1W8xTHOWBHk5CZBAKgQC8O7sp174fQbKK7AIZP2us53i3PS7M6ctAG0f8F75IrplcDDCCr9hI6ywyDG6xoUHOaO0w8kQlKjjx+gbFjcMF0wLmKbXMHOKI4EAEEi+OwdZDMkODA/h3bm0JWX7a+lgSb47cy3FOS0A7Twl/bFmfQasAWMxhKrnpYWyP+0wvPYRDb/rAofC8xGC8kVVIHC28cFf0/SeoeuC8GZgmt6u7xfPIIEoEkiEZLf77rxYU7ZrWGG1hKbCeHKF+wWbKc51N5StdyctAB08IbrGNQj+AboksG6zyLvbBEvpRktijQte+52mHUbs7MHIp/kjiUspWqfNNlqYptcobgojgcATSL471bfqTTvvzkRI9u75Uool1dvj3eXnSNne1BZccY07XPbJnUjiZiVTXxDenbQAtH0q2vyt0enUe12DYQzs3eagmT+b0w43yCvwSL0sKTIRghLBMTD4J9P0Gh38maY3eSf4mwRIoD0C+fbfnYm0w5hErcC784vJNibT9GLwt5KmN0jvTloAkk9FF7/VK/NkpB3+4BORNR+J7G7s4gLvD492XPkDTFsPouqHMdrfAouE8RCZqmUcCcvICDj5afIeFhIgARLojEDy3fkh3p2r7bw7x+Ld+Sf4B9SjnY81iHwPv33det0ej8S7E0HoRmBCGZR3JxWA9u5UJ9+pWeswWALe3d68NLAP9iOTBQ/RlyFPf4wXTdM7GgM/M/UZR0+BJBB6Aofh3albgm29OwFQTf1WzP367tQt0f0CFv2UCkAG/1bJtMPqH7AGa1zvfYxKDDsIZNDsjC/RQEkjBjbP/FWLZbFLAMFPxsDR6RtoxT/j51j8YF4RseLKbzBjs90ptfN9gFY8h//5urFrpG72bMewym8bgbfyW7871+LduTHq705YSXXGfyT+Q4P47qQCkMXzXQB6Gg1rCOJDrf5QZNueLCoL4KXJ/AnHIg64rlux2CVwwaNutyM2yl0Y/KejJfzf9f92YGOwDMKL+ytQ8L8CT/HvFla5k+tLndf9Fx1tCfruPA7vzkF4d66J6LvzGLw3PzsA784gjvwtjxdf6x78n6l5R8MKn4BVJUthhT3oxYFV6FKHJv8Yjpk/B/8D2dj4KzH4b5DfYSC6FvI5+Nu4CY6ciBfm07BMnGZDfBRlJkOyR+3dqU7jajUN8uCvzxMVAI/+q1TJUzPP2bjxqvXp7DmMJZlq8kQERLKRBzyMzEy0+YgNcgfkTDAhizI6JQAXWPm9ZtXs9CweTJlAlN6d4weL6Luzp9qOQlA4k/D4JulsWWfNSdPWJni+hqFowKPhcFI5Gq+3kOouYcCcURsRnnRYkyszM7qYF/lB4GhsLbsJFV/vR+W5WmdY350a+Cz5zg/bu5MWAJ/+23T2rGGFT8fSgC4RBLUknXLUZKWBj8L2AAeVq5ftQoKqq1AfNqKyBIjA1zVNbIDaE5mmhOndqe9MtfoOhi9DGN+dtAD4/G+jg/9pUAI27hBZ+5FIY5PPAtOo/lCEPB4JD9XeHFrSoGb+VFfkYvNSKbELAv2295ZTcM4zXZzHwxkSaP3uXId3Z0OA3p0aFE63RGuMgzAXKgAG7p5qhqopqo/A21uspB0+oJemUk0eIJR/ZEwACsDQMM4uMu5wSC5EFrpj0FQqAD7er6C9O3VtX4OgWcoa6zlpKgCeI+24QvUIHQb/gKOgDKg1wLR/gK5V6ZY+3baIjFksISGAx4Z7zwN4r5xYlKN/BAu47Xenyh+Kd6e+P6P07qQCYOE5Vy1S/QOO3om0w1AEdiE2pZ8loUVj0Fflw1J2Qz+7lwt1v4NOGg/7nAtgs+qjK3pfWAwSsPHuVMdonfVHMcspFQCDD29bUbqOdBZ+/PQP0FSTo7DOr9v7WMJJwHXkL4hlfmY4Wx/ZVm/ZNEheiGzvAt4xvju9uUFUALzhmHEtidk5NEzNL6CpMzds9yaqsGrKI6G1akAflnATwD/pr+H/dCN6EXKXo3Dfhzat/9VjFzpIxslii4Bf707dhaDO0VFZ5+/s/nAluDM6Bo+paX7M4dg2CLeibAPwHNOvOX0xB3+DN9BHUYtKnDfxsvuJjyJYdRoE4JT5LtaE70zjEp7qI4HW706d+GRThuDdqRFQc2HwV05UALJ5Wny4Vk312W4t0YxbYY1E6APSSFTZVCDfw8DzYCQ6E+5ObI/F5StQyraGuxvRa33i3ZmlAqCW2Fx6d1IBiN7/AXsUQQL1RU7TB4Pkq+jaj/GjWepYTBNwZTk8wM+sKXe49m+aPeX5QoAKgC9YWSkJeE9A15xrS50bpUlOQO13YxPaK/iNEFMsPhFoVHM/Qrz9Bnv+i8euk1MXT3FW+SSL1ZKAcQJ0AjSOnAJJIDsCtVOd1ajhOy0/2VXm09VFVe7D8Fu4JOPqHflqbYnz24yv54UkQAJdEqAFoEtEPIEESIAESIAEokeACkD07il7RAIkQAIkQAJdEqAC0CUinkACJEACJEAC0SNABSB695Q9IgESIAESIIEuCVAB6BIRTyABEiABEiCB6BGgAhC9e8oekQAJkAAJkECXBKgAdImIJ5AACZAACZBA9AhQAYjePWWPSIAESIAESKBLAlQAukTEE0iABEiABEggegSoAETvnrJHJEACJEACJNAlASoAXSLiCSRAAiRAAiQQPQJUAKJ3T9kjEiABEiABEuiSABWALhHxBBIgARIgARKIHgEqANG7p+wRCZAACZAACXRJgApAl4h4AgmQAAmQAAlEjwAVgOjdU/aIBEiABEiABLokQAWgS0Q8gQRIgARIgASiR4AKQPTuKXtEAiRAAiRAAl0SoALQJSKeQAIkQAIkQALRI0AFIHr3lD0iARIgARIggS4JUAHoEhFPIAESIIHcJOC6udnvMPTai1vTLQwdZRtJgARIgATME3hnm0hTXGT4oSIFeeblU2L7BLbsFlnzoUi2SgAVgPb58lsSIAESyHkCOsBs2CGy6RORzw4QGdJPJObkPBZrAPbsE1n3kch7H3vTBCoA3nBkLSRAAiQQWQL7YAVYg4FnI5SBkYeJHNorsl0NZMfUCvP2VpH1+IlnO+1v1UMqAK1g8CMJkAAJkEDHBHY2iLy0QWQAFIBRUAQOKej4XB7JnoCO9R/A+qLK157G7OtrWwMVgLZE+DcJkAAJRIQAzPWNfjjybdkl8tw/RI7BksCxWBroRndyz5+Y7XtEVmOdX3/7VPZRAfCJLKslARIgAdsEMIN81682qClaTdK6LKD+AYOhDNA9IHvae5tE3sSMf4Ou83to7j+oZa68TQXgICr8ggRIgASiQQCD9Cq/J+cNGLDewEz1PSgCuizQr2c02JnuhSpUyXV+XfP3u7iO/8+G331g/SRAAiRAAh0QqC91Xseh5zs47OnXO/aKvAB7w0sbsV4Nb3WW1Al8uFPk6bfh4b+5edtl6ldmfqbjyEK/lcPMW8crSYAESIAEsiYAs/yPs64kjQo+ahnM3txibjBLo3mBOvVjKE0vQml6GUrTbh+c/Drp7Jq+n8jvqQB0QoiHSIAESCDsBGpKnQewljzfZD/UhP0mZrNPYVarSwN+LmWb7JdXspLLJupIuRVBfQyXPbghk+ZPcxrpA2CYPMWRAAmQgGkCO7bK9D79IdWRq03K3oulgNc2waFtu8jow0U+092k9ODJ0h0ZGl1RrSMaW8F0gfgPMOufUlPmLFPZtACYvgOURwIkQAKGCTw83dlbW+ZMgwIwGYPAe4bFyzZsZXv2HZHXoQzo7DcXiy6NPIMZ/2p4+Fsa/B90m2Q8LEKPJPlTAUiS4G8SIAESiDiB2hKnpntcRjqu3Iau+rfDvD2O0Dx0y+CT65uXB+IWZsDtNcvv73Zp8CSs8euPBlKyUN6Ax/+X6kqdf6mf6iCM06eFCsCnLPiJBEiABCJPoLLc2QkT8GwnT0ahs5WmO5zwD4AJXGfDmmMgqqURlg6N4Kf91Nm/hbIVnv6z4gVyYl2J88f25NMHoD0q/I4ESIAEIk6gZrIDo7yUF1W7C5y43IflgRNNdnkXvN5XYDHiXYQVHn1YhMIK6xoLgvioqV+VAAtFbSvVGPivqy9yEKGh40ILQMdseIQESIAEIk8As8NHx66Tk+EZPlWdxEx3eCvCCj+L3QIrI+AfoB796uugjo+WBv9HYzE5ubbUKe9q8Nf7TAuA6aed8kiABEggYARmz4YNQKRiSrX7EBzUboTp+Br8XWCqmVA89qcdHj4wfGGFvU7TmwH3d6DA3QJHz4p0rqUFIB1aPJcESIAEIkxgUYmzta7MmYWwtCdiUP6D6a6qd7yGFX4GFoHNdtbN0+ry/ngH65vN/mld7M3JO9Whs2ejjEp38FfxtAB4cxNYCwmQAAlEhkB9mfMGOjMB/gEXY4CZi8/Hmeycessvh9f8ob2b/QN65puU3rUstVj4maa36xYkYis9AEfO61p8OVK45OBTaAE4mAm/IQESIAESAAH4Byztu1NOwnAzE38inI/Zot7zGk1QrQI29s6319sd2DypOQ/UgXGP2fC9yeY8H4/JOVjnL8pm8NfKqAAkkfI3CZAACZDAQQQ0ZCzMy3MRwGc4Zr734wSjvu3J6HlPrm+OoqezbxtF0/Sqo+JzGPy3mw/fq13eCN+MaWPXypn1U5ynvWDAJQAvKLIOEiABEog4gd9NdRDdX2ZMWuz+GhHldFngPJNdVq96tQRoMCHdNmgq7bCm6dVQxpqpz5IVYjeUoPv3NMgdD37dwQZD7woVAO9YsiYSIAESiDwBmJ2Xo5OfL1rkTsTeAbUIHGuy05pBT03w6h8wBvkFevg4imma3tVQOgxn6muNcwkiJk6vL3feav2lV5+zXgJQ8wwLCUSdAJ/zqN9h9i9dAnVTnId27ZTjW8IKYze/2dI67bDO0r0sFtP0JrvxEsL3no91/ol+Df4qKGsF4Gk4aEQ5nGPybvB3bhJIbvNR8x8LCZDAgQQemubs0rDC8ab9YYU9HooPlNf2r+T/p/oHaNrhbEtymcFSml4EY5TN6nCJKH6nwgHzb9n2p6vrszaeqGlEvSE3whwz+lCRXsZCR3TVNR4ngSwI4DW2AattmtNcU5qykAAJdEygJclMeeEid34ewgrj3+eUjs/2/kgy7TAG0KzKq+9LYn9dVpVkdnEjRv+fNeXL7YjgZ2y3RdYKQLKvGrThafwc3UdkBBSB/LzkEf4mgXAR2I5tPrrup79ZSIAEUicA7/QnxHVPK66SMgxod+HKI1O/OvszszU/ZHt9hj1YivC9MxdPcV7L8PqML/NMAdAWKLwNMMNogIRhIQznmDFFXhgJAjqLWIsEHu9j5m/pRRAJjuxEjhNwHLcWYYXLKtzfNDpyA/6XZkEZ6J7jVA7uviOr8aK5Duv8Sw4+aOYb9QHwPCtzY0s4R03wsMXOfkkz9CglEgSS6Uk14Ihm8fJp8LcTMiQSd4idCCOBZNrhvJiMwz/VQ2Hsg09t3oZ6r+n7iZxgc/DXvqkFYAN+hugfXpdPEM5x2bvBDefodX9ZX/gI6DafN5D/TJN5+FmgVEC9YCGB3COA/AJr0OsvT65wv4AIdvfh87jco5DosU62qwvicj2UI+NZF9tjrgrA6/jxRQFICtTtGluwSeSY/iKfHSCSl62nRrJi/iaBDAnswF7i1fgX3GZonT/mivH1vQzR8DIS8IXA4nLnrxc86o4/cqN8E9tqZ0MIRoScKY/BCjITERVfDlKPY1ib+bWJBuk+zfVbRHS7hvoJ+GVnNdEXyggvAYQzTUQTe/4f5gZ/POvrxqyTJ8NLjS0nAW8IPHahs6+mxLkfk8BkWGGfbW/etDuLWjRN79TaEvlC0AZ/7VMsni+/xW810RgpDbjdyXjKmlSBhQRMEFAF9O2tSCyy3nw8cScmP27Jt26iq5RBAoEnkEg7XOrMgE18PBr7SOAbnH4DYfeWW/an6YVjZPpV+H9FDHsOG3ATvgpRRiM56eD//DtWMyr5T5cSAkFAl580sMcaePhbiOX9PzVT5L8CAYKNIIGAEagvdVbAEe5iNyZfVktZwJqXSXN0oK9H+N7j0K87fn2VE+hpru4CEL0JsbhMRMuNOiYoKY0i+DTco3R5wOtwjto3ltwlkHBChYvrMvzoZ9MFri6L4fBTIgHV/k3zoDwS6IiAhhXesVWOx/Hv4gd7cUJZnkWrz8bAX4TwvZhyBL8kFABtpjpo5Gv0JgvbNZqgCaxFxDVVBDSGAAsJZEPggG2oRu1a+1u9RdN21pQ6U3Qr1P5v+YEESKBDAg9Pd/Zi8JyT78poKM8LcaJ6zYehbGxZ5z8L7X8mDA1OtnG/AqBfVJc678JR4cuwBlyEP1ckTzL1W8MKv4Kwwi9i66AmY2AhgbQIQJHUeOBPrze/zt/Szn14EcxHHO8xcHSan1bbeTIJkECCQFWZ8x6U5yvjjpyOlfMnAoylAa+c+7GVbizGzYowWvrQ9oNLq+0aX3Pj8kPsFDjs4LP8+2Yrggc9C/+Aow4RGQXJDCvsH+uo1LwVM33NFW7D1K8Mkbnrr/BsvgbhPF+JClP2gwRsEqgvcV5EWOHPFy+SK6BY3422DLXZnjayl+D/fQacGd9s832o/mxXAdAe6HYN/Jo/pdqt34c9mzDJfBN/d3i+XuNp0dkcVoI+wov9WOwWHdIPWxbQCBYSaE1ArUYavtdiRsq1UJBvQuau+tbt4mcSIAEPCDSHFa6fOM/9Q+9e8h0o2t9BrT09qDnTKlYhpsc1i8ucP2VaQZCuO2AJoL2GJbdrIFmBRm96uL1z/PxO0zOq9/YzcKnQgEIsJKAEkmlAn37b2uC/U/OgY5vPuFoO/nwoScBXAsm0w5iBjoKgSvxgimi0bIHEmZsGybioDP5KL+UZPUybq3D+ZUWL3IlOk9yLWc9wk/h3wYv7pY0iA3oh7TCWBXoz7bBJ/IGRpf/172OdX51GLaXp1SZUxRvlO/VXOUgeykICJGCKgPqpQZamHf4VfNU0rPBJPstWv57/juXJzRgDMRWNVunSAtC2u7pdo+8uGavaEI7hVWy26J5utQboeq+FPd1mO0tpBxDQ2BEvwjfktU3WBv/nEcv8HHj6lnPwP+DW8A8SMEoAaYcfH7s2sWttKgTjjeBLeQT7EE6Gg9+0KA7+SiyrVfXSSvcoLMHORi1fR115vtyCTiotgETNLTAY/gFZdaQTGTYO6b51VXQyLeMHNVtKMr0+aNcFIE3vBii8N9WWwvTIPf0pPR5FVe7D+J+8JKWT2zvJka9iaUWjlLKQQKcECuvcQ/L2yvUwzXmVdngNBpSbc2FpL20LQOs7ods1VDvCy9HKdo1kXHeN8qY7B1iiRSAZvvdprPP7mKa3M2i7kbTkLt3WF9ZtPp11jsdIIAoEEM32k5oyZ3Yi7TDi2mXRp0/Ur2fHltzx60nZB6AzqHg5LsPx8xL+AXH5GT4P7ex8r49pzACNHXBo72b/gJ6IaMQSbgKapnc1lnnUy99SWeLkybdrJzvrLcmnWBIggTQItKQdLiqqdi/GQH4vLj0hxcs14FA1HN1vgKnfr+WEFJti9rSsLABtm6r+AQh9ejy2avwAx4zPyXWXgM4W34SDmHqJs4SPgCpzL0CZexkOn5YG/2VY5z8P6/wTazj4h+8BYotzngC25C7tu1PGIxrntYCBFGCdlr9B0T9V/XpybfBXKp4qAFqhhj7FDfg+giSMxRpgnX5nsqjZ+E3kFXgKisD7iCOAP1lCQECXc1YiE4UGgNpmXHVMANqEF8Y34Fh0GhyMnggBMjaRBEigAwLzpzmNiMZ5LyakQzQsN05bih8N2vMRBoXl+PkVIg2egYH/fCj6yzuoJvJfe7IE0B4lmGMwBEvxpAr3p8j0pNs1zmzvPL++U8exV7FJ6x/bmqMJ9uvhlyTWmw0BrLHLu9tF1sFqY2lXRyOa8Eu3QL6PtUS0hIUESCAqBFpycWhYbobmbuemem4BaCujptx5FrOqc6BxTcUx4+sr+7eOQRmwtG+8LRL+3UJAdzo8CwdOi1s6l2Kl6KQ65CXn4M/HkgRIINcI+GYBaA1y9mxHV+Qryirc3zQ6cgNmXF5t12gtpsPPkJfwIv8APgJDsWXwWGwdZFjhDnH5fkCDOq1GSA2LkR3fgJ/KtViq+qPvnaUAEiABEggoAd8tAK37reYYj7ZrtK425c+J8LHwD1BHQYux41Nub9ROVBO/5bDOW7EeOAvb+k7k4B+1p4v9IQESSJeAEQtA20Ylt2tMqnIvwuxc/QNS3a7RtqqM/lbv8hVIO/xuS1jhQxhWOCOOKV+Em6z7+HXWr7kdLBS1QFXDIeh6KKFwNWQhARIgARKwogAksSPn8yMXPOqefORG+Rqcwe7A94cmj5n4rSlkNaywph0eifwCGlmQxVsCW+DRvxpDrq00vejNo9jfOxNbfF7xtmesjQRIgATCTcCqAqDokmmHEc7xAadBbsXWwW/ia3PtapmdauAZDSvMtMPePNB7sAtjHWb8OvO3VN6B4+ktiQh+lhpAsSRAAiQQZAJGfQA6AwEv7C3qja1phzEmG8+1nFyfVq/0j7KIw99ZH3PhWDJN71PrrQ3+yTS9ozj458ITxz6SAAlkSsDcTDvFFsJUq2mHL7WVdninph1GMh6mHU7xhrWcBqVNPvik2clvj53wvdqEBxDV6zoE9kA4IRYSIAESIIHOCATGAtC2kUw73JZIcP/WWAsavlcdKy0N/sk0vUUc/IP7nLBlJEACwSIQOAtAazwazhF/z0Xa4Tp80LTD38DfxpQWjVL3DiIJakjhYfAPiFra4dasM/m8Fx79b2Kdf4Ou8+v823zZCLnfZZpe8+ApkQRIIPwEjA2m2aBKph1G7ObTUc+T2dSVybW6dU2j1WnaYUtx6jNptm/X7E/Tux6D/w6IMT/4J9L07t7LNL2+3WRWTAIkEHkCgbYAtKVfX+K8KK57XvEiuQKDzt04PrTtOX7+ncxUp2mHxxwu0iNU9LwhE4Q0vfG4TK8vd97ypkeshQRIgARyk0AoLAAH3BrHcWtLnPpdO+U45Hy+DceM545Lph3WqHZN5me/B+Aw9YcqPy++azFNLzJ4IXzv+Zqml4O/qbtOOSRAAlEmED4FoOVuPDTN2aVhhTEJH4WvKvFjdCjW7W5vI9N0YrsbzOBGhRt8IjVNb3L5Y6txVUvg9iGbAXdmvLuchvC9fzPYdYoiARIggUgTCL0Ru7rUwbxUypF2+BdIOzwXn88wecc0w+BryHGoKW1HIZpg34ikHQ5Kml7E7WeaXpMPNGWRAAnkDIHQWgDa3qGWtMNnY7Y4FceMpx3ejq1wz0MVeQ1ph3XWHOaiaXo1RLLNNL0ICHUy0/SG+Sli20mABIJOIPQWgNaAk2mHEVb4t3l75XqY5Y2mHdZ1AA19qwFxhvZH2mH8YCALTbGepteR1UgcfS2Wdv4QGmhsKAmQAAmElECIhqfUCSOs8CdW0w5DEXhT0w5jFh2GtMO6zdFymt5tiTS9+TKOg3/qzznPJAESIIFsCETKAtAWRDLtcFG1ezF2DNyL4ye0PcfPv5Nphzcg7fAo5Dk8pLuf0jKou8ViwTS9GbDjJSRAAiQQcgKRtAC0vSfwHl+6aZCcjFnmNBzD5j2zRdfUNcnQSngm6Gw7CEU9+p9FxHx1YLTUpkexZDIe2/rKK8sdJAxmIQESIAESMEkg0haA1iDbSTv8LRzPa32On58x2U5EzVP/gGED7YUVZppeP+8y6yYBEiCB8BDICQtA69uRTDsscTtphxsRP0C9659+Gxvcd7Zumb+fmabXX76snQRIgATCRiBnLABtb0xtubMS3zWnHY7Lffg8rO05fv6tHvfLN4poWOHRiB/QM98faWp5CEKaXoTvvR4R/LAQwkICJEACJBAEAjlnAWgLXdMOI9jMWI02h2Oa2sZoSYYV9mPPvfU0vY68AOfLc7HOX8TB3+hjRWEkQAIk0CWBnLUAtCaDZQHMx2XupMVuvdskc/C5FD+IQmumaHY9TTv8AWIIjIA1INuiaXo1IJGmMVYLgIWyAXJn1U2RakHuBgvyKZIESIAE5MoFbo9d+VKMl/kVwDEcP4jOIuvxswwvx/m1Zc7L+JyzxdggFybCCCt8ho2wwklGelOyGTWzvT7Zjgx+74Hse/LjMgee/QY9HDJoKS/xlUBRlfswnoVLMhbiyFeR9Ou3GV/PC3OaAILB5cUa5Wr4et2GqVxn06r/RbC2axdPcV7LRWC0ALRz1zWsMNIOn9WSdvgenHJMO6f59lU2g782KtvrM+zYEqbpzZAcLyMBEvCMAOK+XOjshV+XIyemYMf9Z7y3XiqudP8bCcdugTUYLtq5U3LeB6DDW/1p2uGxLWmHEe2fpR0CK5Gm9xKm6W2HDL8iARIwRgBLuEOKq9wKvK//mhj8U5fcDedfHWuQN6AIzLjgUTdnJsZUALp4SFqlHR6JU42nHe6ieTYPb4GpYSYcKMch0NKfbTaEskmABHKXQFmF23tSpTsb/lurQaEsCxL9oQjcd8QGeRVWhMuyqCc0l1IBSPFWadphjVoXj8mFuCSXHUcascRw/95GGQ4HmrkwmQUktmGKN5KnkQAJRIOA6zrF1W5hQ0xehxXyVnSqh0cdGw0rwh9gTfhLcYU71qM6A1kNFYA0b0v9FOfxsWtlPGa/U3Gp8bTDaTbX69OXJtP0/v4qB/sWWEiABEjAPAE4ap9aXC1P4D1cB+l++WhdLDF5GQ6tc0uq3D7me+m/RHUYZ8mQwOUL3H4F3WQWIM6E6ShoqX4y7FU7lyFNL/7RroMFZEk7R/kVCRxEgLsADkLCLzwggHX+o919mO078g1UZ3IC+xHegT+Eo+DPo2T1NAnQg9sfrCp0FlxX5szCVpMT0bIoDo6JNL07NsuJHPyD9eyxNSSQSwSwra9AHfSwzr9KHfbQd9Nj16HqHwBHwecKF7nnRoV9zng7+nnDaqc66nwysSXtsIYVPt5PeQbqRsYCqS5A+F5m6jNAmyJIgAQ6JFC0yJ2IUG26rW9YhyeZOzA+Fpe/wz9giZMn366Z7Kw3J9p7Saa1KO97EKAaNe1w35320g57hOIxmLqYptcjmKyGBEggMwLqgIeB9k9OXB5EDUEY/Ft3ZAKsEa8VVbpzYJ04pPWBMH2mAuDx3Zo/zWmsKXHmY3vcaPWWR/Vh8ZJ/BwP/1NoS+UKuh8f0+JFgdSRAAmkQwIA6QB3vYORfgcu+mMalpk/t5ThyI6wTK7E8UY7gcaHzqaMC4NMjA0eRLXWlzgxNOwwRQd4nv0sDHfVslFEY+CsYu9+nB4LVkgAJdErg6nlu/qRqNxGQByPpdJyc1+kFATmItg7G8sRC7Ep4GhaLMwPSrJSaQR+AlDBlflJL2uFLEutYFtIOd9JyGCjkAabp7YQQD5EACRghoP5T212s87uh9p86A7CehBJQje3SNyC/QOC3idMCYOTxFmmTdhh5+iwWpOnF6H8ePPuZptfibaBoEsh1AlOq3ZEYMOtghfwLWITdeVpvp46pZZhYrdXohJfe7wZ6ezgVAL1lhgqWBRo0eh68R8dA050Pseptb7JsxJrVtLFr5AwsTzxpUjBlkQAJkECSgMZQUQe6pnhinb8w+X2Efh+i0Qn7DJAVGq0wqP3iEoCFO4OtIxshdhqiWf1XS9rhs31uRgNm/P+ZL/K96hJnh8+yWD0JkAAJtEtg9mw3tnK4lGLN/Mc44Yh2T4rWlyMx2auDleMRTPdmYkn41SB1jxYAi3cDaYdfgNf9uRicr0QzVCnwvjjyG5ijxqhDIvIZcPD3njBrJAESSIEAAuicv3KEvKgOczjdxuC/FHJvwY+NMOYXYXFgGawB92HZo38KuIycQgXACOZOhCDtMAbnhbt2ykj1xseZXqUdbk7TW+JcUV/uvNVJC3iIBEiABHwjgDj6gzEDrkAAnUch5CTfBHVc8VooHUXwefon/NyBLdrDMemysUU7H9aAGU2urA1K2mEqAB0/NEaPJNMOwz9gFARr2uFMC9P0ZkqO15EACXhGYOI8t5c6wu2T/Wl6sWPOaNnZssV5XG2JU5+UHIAt2gOgkGja4RWTK91Lku2y8dv0DbHRx1DKxD/OBXAi0bDCn0uxA43QLhfE8uRmbD/5KMVreBoJ+EKAyYB8wRqOSjVN7yK5Au+ju9HgoRYajQm+VMUb5Tv1VznvdyU/AFu0l+Q5MmNRifNmV231+jgVAK+JelgfImLlxRqR+CKOpQFHDuuwalf+iIH/Ogz8qzo8hwdIwCABKgAGYQdIFEz9p2FQmYsR+CxLzXoSoYNnqn9VOvLxru2JRD/X4prv4qd3Otd6dO4eTPh+6ubLnbBQfOJRnV1WQwWgS0T2T7hygdtjV74Uw5z1VSgCun7VHzfuLbTsRSgH84PmWWqfGFtgmwAVANt3wKz80kr3qH2O3Il3Uxkk21hafsd15ca6UqnJJppp4UJ3UF6ezEE/StAPG+PjRlhOvltbimVg+If5fRdtdNDvPrF+EiABywSoAFi+AYbEa/je7b3kmxgqb4fIPobEthazGwP//Xsa5I4Hv+54FmANW7RPNbRFu3Vf9n/GwPwigsTM8DteC+MA7EfODyRAAiRAAqkS0LXz7U1yr1olU73G4/MSKXlrfUjJm1hCcN1zW3wZ7kG7j/G47Z1Wh6n/KVACNO2wr+HabZhqOu04D5IACZAACQSXwORF7hgMTH9MpOm1Mfi7shzr5edjS99EBFVb7xspmOB19wC2aI/V3QSQ49UW7VSbrBb6QuQVWKm7KXQpONULUz2PCkCqpHgeCZAACeQwgWSaXgQW0zS9l5pGgdFwM9bHZ8a7y2l1Jc7fTMn3cIt2pk3upWGF4Qe2xuu0w6phsJAACZCApwToA+ApTquVXfCo2+3IjfI1Ny4/hLm/491I/rWyESbxX7oF8n14yG/3T0xqNWewRTu1ilM/6zFVhJBX5uXUL2n/TFoA2ufCb0mABEgg5wlMqnIvQsCaZXC0m2dp8F8KZ7iTNJR5EAZ/fSBqypzHxq6V8RiEp0Ix+cDCQ3IB7sUyja5YVuEeno18WgCyocdrSYAE2iVAC0C7WELzZWGlOyLmyI/QYFuZ7N6A2ftamPr/GGRomtWwoJvMwkA6E4OyjdS/25Dhdc72zXLfw9OdvemyogUgXWI8nwRIgAQiSgAzyt7qcIaBQbPW2Rj8t2JAm4V4/ScGffDXR+D3Vznb6sqcWYjHciL+XKLfGS79YJ2Z02egvAKLwIR0ZXMbYLrEeD4JkAAJRI2Ahu+tkrIGR+5C14600D1Y+qW6IC7XV5Y7NszqWXW5dqqzGhVMLKp2L8aOAQ3hfnxWFaZ7sZvIIfMQlICl2DUwE1FhX0ulCloAUqHEc0iABEggogQKq93Ti6vlKZiwF6KLNgb/RzFonYxtfeVhHPxbPxawWiztu1NOVic9fG/DYfFi7NJYjiW4ubo80bpt7X2mD0B7VPgdCZBAVgToA5AVPiMXa9hb5BC5E8JK8WNjLHgHA+Ut8GavMNJhw0K+stAdmJ8n3wfYb0F0nmHxKk4zw96ObZM/hwNlU3vyaQFojwq/IwESIIGIEtDEN5Oq3Rsx+GvyMI3db3rwT6bpHRXVwV8fnd9NdTbr7oW4I6diWeBx/c5wSaQdRpKjF7A08fn2ZNMHoD0q/I4ESIAEIkgA2/q+4jYksvUNsdA9XeevyHflpqoy5z0L8q2IrC9xXoLgC4qr3ULMyG2kSD5JFRD4B9RjqeXb8A/YlARBC0CSBH+TAAmQQEQJYNZfgAHoZ9i3/lt00cbg/xTknol1/qtyafBv/ThpWGHsbtCwwt/H9ztbHzP0ubBJ/QNaWQOoABgiTzEkQAIkYItAbC880135dwvyNb3t1NoSOReD//MW5AdKJNbidyOQ0A+cPHjtuzIfjVOriLGCtZ6joID8CY6fJ6lQKgDG0FMQCZAACZgnUFTpXo5V/n8zLHk3Avn8ANv6mtf5DeS2N9y/rMQhidFG+D9Mi8fkXFRkWjHqGXNlsYZ4pg9AVreRF5MACZBAsAkgot93Yfo3WZZgK9r0+nLnLZNCwyirforztLjuGRbSDo85/F35F1oAwvjUsM0kQAIkkAIBTd2Lwf/0FE7N/pRWaXo5+KeBsyXt8O69cgKumoOlgbRD+qYhbf+pWA6YSgVgPw5+IAESIIFoEUAGv7F+9wgDiZU0vX73y3T9D37d+Rh+Et91uslIyK70Xb4jY7kE4DtlCiABEiABSwQcePz7af93ZR229Z0d9gh+lu5Ou2LhH/AODpQjmNbLUK7uafckb74cSguANyBZCwmQAAkEjkDclXxfG+XI8IaYvFBc6Zb7KieHKtcIghrKF4O/5mXws+TTAuAnXtZNAiRAAtEnMETzCCDQzJUtiWheiX6Xve/h1fPc/O295JtgeRtq7+u9hINrpAXgYCb8hgRIgARIIH0CF2oiGigCFUgrfHj6l+fuFZpFcHtvWY7B/z5QMDL4K21aAHL3mWPPSYAESMBrAjqpLMOywATkG7irKV/uRfCbBq+FRKW+4oXuKKQJ+gn8NCbY6BMtADaoUyYJkAAJRJtAf9eVOUhE8wpmt5dFu6vp905T9SJA0xyE4tPlEiuDv7aaFoD07x2vIAESIAESSI3AaISe/QOWBZYi5u2M+lLn9dQui+ZZs2e7sZXDpRRREu+Gk5/1ZRJaAKL5nLFXJEACJBAkAhdjsHlJvduRmMjYGneQAEyqdC9YOUKWqcNkEAZ/ZUMFIEhPCNtCAiRAAtElkI+Bb3peg6zDtsEZUATyotvVT3tWUuUOVsdIzPr/im8/9+kR+5+oANi/B2wBCZAACeQMAcQlGqje7vAPeA6z4vOi2vGJ89xe6N/sfSJr0Mcy/ED/CVahAhCs+8HWkAAJkECuEBiPWfHfMDt+aNJi99jIdNp1neJqt7BXb1mJ/t2KfvUIat+oAAT1zrBdJEACJJAbBCa4TfK6esVjWeCQMHe5sNo9pbha/o5tfXXoxzFB7wsVgKDfIbaPBEiABKJPoKfjyI1YFliVCCuMWXSYulxa6R6Fds+LufIc2n1OWNpOBSAsd4rtJAESIIHoExikXvKTquUZLA2cGfTuwmJRoA6NjY6sQruvRntDNaaGqrFBfxjYPhIgARKIEoE+WL0usBAtBo6Cp4Pjk1hL/6/Ji9wjgsgUbftXWCxWqkMj2tfHdBsP6529VyEVANN3jfJIgARIICQE+veEPXuoyLABmNqaN8rHsJb+DeQXWKfe9Jfe73YPAjYoJGMQz+BhtO03aM8w023qXSBy8tHYT4ifbAsVgGwJ8noSIAESiDCBPIwSwwaKnH2syFGfsdLR3upN32eAvKre9VZaAKEw9w/QQEZQSFZAF7rEdDu64T6MPkzkTChkAzH796JYMO540WzWQQIkQAIkYJJAD4wWxx8JJQBx/FZ/IPKJ+RQ/I9S7Hr4BjyCs8DUIK7zi/7d3rjF2VdcdX2fGYxvbJMYxYMemBvzAEUFqoCXJh1Sp6Ie0IhJROx5jz0BNpHxIFENQeSRQMqFNeSUBolYpEZIxMza2J1GqCgVFQQKUhDQEQgqkBgwY4wc2fmMe9oznnv7XPPwY29fXc8/Z59xzflu6zJ055+61129fvNdZe+21Quj/+SfiMdO22DVxr31X8qaGkHmkDHe8fFwbDLMleWzCqZPwABxJmvcQgAAEIFCVwBRtC3xGB9wu1M58S8ILUlXBhy9epoXrDx51L3d8qgvywu74srM32/MqbPSAxKcq67B6h9+dMcHs03ri/4RYJ734uxQ8AIdZ8w4CEIAABGohoMfS6XoqPVOn9tfvMtu4x6yiyL2AbYxH3csd/w8yBG7fNtP+48m/jpR0L5nW2hXPUczDv0mlTLYcJrQMPvGfnXJWBDwAyXxf6AUCEIBA6Qj4vvRcPRe7R2BqQvvSpwhxikfh6yn9xSu74rr35Tsejid6wKHUeknjCL74D8RbKODS9/nTXvydMx6AU/y2cTsEIAABCBxNYIIi0/9cUem7PlB8wPZM4gPmVyJ7TPEBjzZHdu3KxdEbR4+w+m/DZXp7I7tbdwY/duj7/NMUYDlHxtS4gKsyHoDq3wuuQgACEIBAjQSm+J61vAEere7egQza5f2xrfVofVXhq+lsvtL3Xqoyvb+RJ2G5xht88fdcC5ecMxhgGXLx97kJaGtk8FVAJAQgAAEIBCWglL52zmStpHqi9fiATYoPCBseYGM1hKV9cuEvXBF3zl9nD3Z2RpWREFqXxzOamu0ODa5d1/whPGjzxX6OjldOk5kSXPiQptnYaEExIwwCEIAABEIT8Kh19wRcKo+AJxQK3bSoTvfo/Zfn2DPyCBzKzz9QpndFfJMW/5c1puBlej2h0qwzzD6rfX4PpMxq8ff5wAMQ+luJPAhAAAIlInC68vddPNPsnX1m63aa7dejecgm78MlWmR/pfiAbr1/Uu87ZRjI6R62+UJ/lrwic/XUP15R/nloGAB5mAXGAAEIQKDABHzx8y0BPzboRwZ9a+DgMU75VAH4EDr0H3/iD97cCJonb0gWnpBqymIAVKPDNQhAAAIQSIzAsPvbI95f22G2VV6BwPEBielSS0e+DXKejvXNVEyEWyB5axgAeZsRxgMBCECg4AQ8AM7TCnuwoB8b3LO/WAp7IORMpUyeLXd/RqchagKKAVATJm6CAAQgAIGkCQwfgdv6rjwCig84kFguv6RHWnt/fhTS3f2TlBsh7w0DIO8zxPggAAEIFJiAu8Y9Gv4sxQds2G32pl6B0wonQteTIc1TIp+MMiKOSgcMgFFh40MQgAAEIJAkgeGyw34u/nXFB2x7L8ne0+vLXfy+z+/bGR7j0EgNA6CRZouxQgACECg4AS+Ec9F07aErrfAr2aQVro2wFvvp8lq4uz+jqoi1jbPKXRgAVeBwCQIQgAAEsiEwXAp3i+ID3CPQ25/NOI4n1UsizzurMfb5jzf+4b9hAAyT4CcEIAABCOSKgHvUZ2hLwCvjva4gwQzSCh/FY7xWTI/s95iFIjQMgCLMIjpAAAIQKDAB32f3tMJ+tO5VeQN2vh9WWY9PmKU9/nO1199o+/zVSGEAVKPDNQhAAAIQyA2BiYq0/5TKDm+XAeD5Az5MOa2weyD8dMJcRffnJX1vkpOBAZAkTfqCAAQgAIHUCZw5UcftdN5+097BrYE00gp7joILtPB/NINCRqkDHBKAARCKNHIgAAEIQCAxAsNlhz2t8Bu7kosPGKf0vedr4Z+hfnOZvzcxglQDTBAlXUEAAhCAQGgCfgTP4wOma8F+YWt91QY9xsDd/b7nX4ZWEjXLMJXoCAEIQKC8BNxlP7HOMru+31+Wxd+/KRgA5f3/Bc0hAAEIQKDEBIgBKPHkozoE8kogjq19QVd8aZbj0x7zQb3e6Y/s9xe+ar/r7IzCVrDPUnlkl4IABkApphklIdBYBHT86kt5CMCSIWJNeq2dYxvauuLbVrdbl0VRkUvYN9YXhdHWRYAtgLrw8WEIQKAkBGbJIFnetsK6W9fEDVDotSSzgpp1EcADUBc+PgwBCJSMwKKmPvOq9VeXTG/ULSABPAAFnFRUggAEUiQQ21Vt3fHlKUqgawgEIYABEAQzQiAAgYIRuK1g+qBOCQlgAJRw0lEZAhCom8BftD4c/1ndvdABBDIkgAGQIXxEQwACDUsgiprtkw07egYOARHAAOBrAAEIpEGgP41O89Sn/vFUZXgaBBqXAAZA484dI4dAbgnoH5ZtuR1cQgNTVqB3EuqKbiCQCQEMgEywIxQCxSagBDrPF1tDq8S99r8F1xH1Ck4AA6DgE4x6EMiCwJjI/kty+7KQHUjmr3uWRKo9R4NA4xLAAGjcuWPkEMgtgRXt0Sbly/1xbgdY58CUDPjbdXbBxyGQOQEMgMyngAFAoJgElDD3Zmn2YgG1u2dVR/RkAfVCpZIRwAAo2YSjLgRCEehZEL1X6be/VQ79Z0PJTFuOYhvurYy1b6Yth/4hEIIABkAIysiAQEkJ9FwdbT6t1z5nsd2oLYGGjZpXdcLn4si+sKYjul6GTeGPOJb061o6tSkGVLopR2EIhCXw0JJovyTeoyp6P2g6YJ+uRDZXv5/dFOWh4G9VFr2Vim2NWuyZVQuj16veyUUINCABDIAGnDSGDIFGJDD05Py0xu4vGgQgkDEBtgAyngDEQwACEIAABLIggAGQBXVkQgACEIAABDImgAGQ8QQgHgIQgAAEIJAFAQyALKgjEwIQgAAEIJAxAQyAjCcA8RCAAATySkBHN2l5JZDA5HAKIK+Ty7ggAAEIZExg4x4zJT+y2Sp8PIbHxYxn47D4vTpY++p2zc3hP43qHQbAqLDxIQhAAALFJ+CLvxsB2/aZnTfFbOZky33yhiLPyoGDZq/tMNuq+ah38XdOGABF/ragGwQgAIEECPQq9+EreuLc8q7ZvDPNzjgtgU7pomYC/RWzTXvN3thp1p/Eyj8kGQOg5ingRghAAALlJrDvgHIibzKbOtHsAhkCp7WUm0cI7be/L+NLSbT36+k/6YYBkDRR+oMABCCQEwIqW3wwDZ/9Di1Kuz4wm6VtgXO1LdBMfEDiM/6ujC3f59/zYeJdD3d4EANgGAU/IQABCBSMgLzFm1TIKJVWUefr5ZLeohiB86eazThdYtISlooG+ezUt1vW79LEiWuC3v7jKfsWBsDxsPA3CEAAAgUgIA/AK2kvyge0YK3dNhgfcIEMgY+MLwC4DFRwg+otLfpvavE/qD3/1FtsL+O4SZ0yAiAAAQhkQ2D1VdFLXso4hPS9clX/fqPZi2+ns18dQoesZPh2yu/eGozwD7L4S1HZG914ALKaceRCAAIQCEBAT5bfjyJbGUDUgMt623tmO7Wg+bHBcz5q1sRj5gnRv987eLrCDYDAbX08zn7K1ASmjjgIQAACIQms6Yge0TbAspAy/Sl2nc6rP73B7G0dHaQdTWCYjz/1B1/8YzsQVWyBynP34gE4el74DQIQgEDhCFRa7GtNvQN5XzpCKudH1/6k+IC3lbhmnuIDJo0LKT1/sjyob7PO878u46gvxD7/sQh2yRhsX9URPeuXiNk8FhB/gQAEIFBIAm1d8RL9q3+3lNNyHLb5YjNDRwbP19bA2OZ0ZD+/eXD7YbS9XzzDbMqE0X66+uf8Sd+TKbnbP4sWR/ZLbcd8ZdWV0ZvD8jEAhknwEwIQgEAJCFyxLJ48dozdrLiAb0jdsaFV9poCA/EBMgaaEl6B8mgAfNA3+MTvsREZtddk9H1r9eKoZ6T8hPGP7J7fIQABCEAgjwTalsfzrNm+r7FdnsX4Jsr0mCs/hGcVTKrlyQDw9L0bdutYn15+xC+D9r6OgX5v726747GlkdIKHdswAI5lwl8gAAEIlIbAghXx32ihuE8KX5iF0u5y9/oCkxLwReTBAPC1fqsCH19TkiQv3pNB8yF0V/rsxp4l0dZq8jEAqtHhGgQgAIESEPjKA3HL3gn2VbmKvyN1dXgvbNN2hM2U1HrLDmdtALw7VKZ3j35m0YTxGa3+165uj/6nFvkYALVQ4h4IQAACJSDwpeXxx1qa7TYtDF+TuimF6p0YpAcH1lN2OCsDIOkyvScmdMIrm5WE4Vur263LIvlzamwYADWC4jYIQAACZSGw8JH4U3H/wLbAX2Wh8+k6LjiassOhDQDf29+o9L2euz9UBr8R8/FhHNsPldTnX3Wu/5TDDDEARtDkVwhAAAIQGCSwYGX8RSWNuV+/nZcFEw8QnH+W2fgaM9aENADSLNNbI+tHo2b7+pHH+mr83KHbMAAOoeANBCAAAQiMJNC6Jj6tuc+W6knzFl3zmn9Bmx8VPEdHBn1rwI8QVmshDIB9Q2V6d6dXpreain7tD3LyX6dkPr862Y0nu44BcDJCXIcABCAAAdO2wMe1LXCnULTrFXztGCcvwJyPmU37yImFp2kABCzTe9xvm4DvlBH2L5Vx9u9y96sGY/0t+CTWP2R6gAAEIACBrAi0dcd/qYXjfm1/fzaLMXi5YY8PmKyfI1saBoAWXdvk6Xt1rC+jff4+DeFH8Vi7TQu/RpJcwwBIjiU9QQACECgHgTiO2rqtQ36Au6TwtNBK+8I1TZsRc5RIyD0Dwy1pA8DT97663ey9jNL3Sq/HlU/o2p726P+GdUzyJwZAkjTpCwIQgECJCHQ8HE/si+wG5Zm/SWof55k8XRjNigmYpfiAcxUf4LECSRkAnq9/nRb+HTIAMmqviOn1axZHP09TPgZAmnTpGwIQgEAJCLStimfbQbtDqrZmoe6EFiURkjdgixzkO+tYtC+abubJfPxoX0bpe3crKdJd/S12r5frTZslBkDahOkfAhCAQEkIZJ1W2Bc07ZePutX7+VELNuvXwH/cW7F//tnVkaINwjQMgDCckQIBCECgFAQ6O+OmtbMHTgp8TzECCtejnYTAEyrTe90ji6IXTnJf4pcxABJHSocQgAAEILBoRXyGouZvyqrscAPMwEY99d+6uiN6OKuxYgBkRR65EIAABEpAoLUrvkCxej+QN+DvSqBuLSoOlOkdf9DufGhJlFHZoMFhYgDUMl3cAwEIQAACdREYig/4oTr5RF0dNe6HPTzhJ5WK/VPPVdFbeVADAyAPs8AYIAABCJSAwBFlh2+XusrpV5IW2bOqqXCt0vc+nSeNMQDyNBuMBQIQgEAJCFy5Mp7ar4h3LUCZlB0OiHiLYiC+M3+dPdjZKRMgZw0DIGcTwnAgAAEIlIVAW1d8sWID7pO+nyuYzr3y9//n/gN2639/OdqXV90wAPI6M4wLAhCAQEkIDJUd9viAcwug8qPa51+qff71edcFAyDvM8T4IAABCJSAwBcfiCdMnGRfV/GdW6XupAZUea3S935D6Xt/0ShjxwBolJlinBCAAARKQKB1eTyjqXkgrXAmZYdHgXiXzvPfnmSZ3lGMYVQfwQAYFTY+BAEIQAACaRJoXRFf2hTb/ZLxmTTl1NF3nxb+ZTJWblEWvx119JPZRzEAMkOPYAhAAAIQqEbgUFrhyO7WfWdXuzfwtceH0vf+KaOsic4AAAGdSURBVLDcRMVhACSKk84gAAEIQCBpAofKDpvdrFMD45Lu/xT6W6d7r1/dHj16Cp/J7a0YALmdGgYGAQhAAAJHElB9gbn9sX1XfwtddniPzvPfuXen3ffY0ujAkWNq5PcYAI08e4wdAhCAQAkJLOyOL9M5e88f8MmU1ffkPSvk7r9B+/zbUpYVvHsMgODIEQgBCEAAAvUS+PwT8ZhpW+waHRt0j8DUevsb+fkotqf6Vaa3Z3H0x5HXivI7BkBRZhI9IAABCJSQQOuaeErUa9/WYvZVqT+mXgTyLGzS4n/L6nbrskjvCtwwAAo8uagGAQhAoCwEVF9gvuoL3KtF7Quj1PkDLff39I+zu3oWRB+Oso+G+hgGQENNF4OFAAQgAIFqBIbSCnt8wPnV7jvimj/l/6Q5shtWLo42HPH3wr/FACj8FKMgBCAAgXIR+Mdl8fj9Y+x6peb9pjQ/YVphLYDPDOzzL4p+Wy5Cg9piAJRx1tEZAhCAQAkIXLEsnjx+rF2lQMG/l7pz9Jqi13otfM9p4X+wZ1H0VAkwnFDF/wcIxQpmY1D4TQAAAABJRU5ErkJggg==;" vertex="1" parent="1">
          <mxGeometry x="185" y="332" width="68" height="68" as="geometry" />
        </mxCell>
        <mxCell id="LdxUq8u8mY5ZMptnZAze-7" value="" style="endArrow=classic;html=1;rounded=0;exitX=0.5;exitY=1;exitDx=0;exitDy=0;flowAnimation=1;" edge="1" parent="1" source="LdxUq8u8mY5ZMptnZAze-2" target="LdxUq8u8mY5ZMptnZAze-4">
          <mxGeometry width="50" height="50" relative="1" as="geometry">
            <mxPoint x="235" y="400" as="sourcePoint" />
            <mxPoint x="285" y="350" as="targetPoint" />
          </mxGeometry>
        </mxCell>
        <mxCell id="LdxUq8u8mY5ZMptnZAze-9" value="Web Crawling / Scrappping" style="text;html=1;align=center;verticalAlign=middle;whiteSpace=wrap;rounded=0;" vertex="1" parent="1">
          <mxGeometry x="125" y="290" width="60" height="30" as="geometry" />
        </mxCell>
        <mxCell id="LdxUq8u8mY5ZMptnZAze-11" value="E (Extract)" style="text;html=1;align=center;verticalAlign=middle;whiteSpace=wrap;rounded=0;fillColor=#0050ef;fontColor=#ffffff;strokeColor=#001DBC;" vertex="1" parent="1">
          <mxGeometry x="95" y="120" width="60" height="30" as="geometry" />
        </mxCell>
        <mxCell id="LdxUq8u8mY5ZMptnZAze-17" value="" style="edgeStyle=orthogonalEdgeStyle;rounded=0;orthogonalLoop=1;jettySize=auto;html=1;flowAnimation=1;" edge="1" parent="1" source="LdxUq8u8mY5ZMptnZAze-12" target="LdxUq8u8mY5ZMptnZAze-16">
          <mxGeometry relative="1" as="geometry">
            <Array as="points">
              <mxPoint x="310" y="490" />
            </Array>
          </mxGeometry>
        </mxCell>
        <mxCell id="LdxUq8u8mY5ZMptnZAze-12" value="Data Ingestion&amp;nbsp;&lt;div&gt;(DataBricks)&lt;span style=&quot;background-color: transparent; color: light-dark(rgb(0, 0, 0), rgb(255, 255, 255));&quot;&gt;&amp;nbsp;&lt;/span&gt;&lt;/div&gt;&lt;div&gt;External , Managed Or DBFS&lt;/div&gt;" style="rounded=0;whiteSpace=wrap;html=1;" vertex="1" parent="1">
          <mxGeometry x="45" y="460" width="130" height="60" as="geometry" />
        </mxCell>
        <mxCell id="LdxUq8u8mY5ZMptnZAze-13" value="" style="shape=image;verticalLabelPosition=bottom;labelBackgroundColor=default;verticalAlign=top;aspect=fixed;imageAspect=0;image=data:image/png,iVBORw0KGgoAAAANSUhEUgAAATgAAACeCAYAAACmTRYtAAAMTGlDQ1BJQ0MgUHJvZmlsZQAASImVVwdYU8kWnltSIQQIREBK6E0QkRJASggtgPQiiEpIAoQSY0JQsaOLCq5dRLCiqyCKHRCxYVcWxe5aFgsqK+tiwa68CQF02Ve+N983d/77z5l/zjl35t47ANDb+VJpDqoJQK4kTxYT7M8al5TMInUCHOgBLTASaPMFciknKiocwDLQ/r28uwkQZXvNQan1z/7/WrSEIrkAACQK4jShXJAL8UEA8CaBVJYHAFEKefOpeVIlXg2xjgw6CHGVEmeocJMSp6nwlT6buBguxE8AIKvz+bIMADS6Ic/KF2RAHTqMFjhJhGIJxH4Q++TmThZCPBdiG2gD56Qr9dlpP+hk/E0zbVCTz88YxKpY+go5QCyX5vCn/5/p+N8lN0cxMIc1rOqZspAYZcwwb0+yJ4cpsTrEHyRpEZEQawOA4mJhn70SMzMVIfEqe9RGIOfCnAEmxGPkObG8fj5GyA8Ig9gQ4nRJTkR4v01hujhIaQPzh5aJ83hxEOtBXCWSB8b225yQTY4ZmPdmuozL6eef82V9Pij1vymy4zkqfUw7U8Tr18ccCzLjEiGmQhyQL06IgFgD4gh5dmxYv01KQSY3YsBGpohRxmIBsUwkCfZX6WOl6bKgmH77nbnygdixE5liXkQ/vpqXGReiyhX2RMDv8x/GgnWLJJz4AR2RfFz4QCxCUUCgKnacLJLEx6p4XE+a5x+jGovbSXOi+u1xf1FOsJI3gzhOnh87MDY/Dy5OlT5eJM2LilP5iZdn8UOjVP7ge0E44IIAwAIKWNPAZJAFxK1d9V3wTtUTBPhABjKACDj0MwMjEvt6JPAaCwrAnxCJgHxwnH9frwjkQ/7rEFbJiQc51dUBpPf3KVWywVOIc0EYyIH3ij4lyaAHCeAJZMT/8IgPqwDGkAOrsv/f8wPsd4YDmfB+RjEwI4s+YEkMJAYQQ4hBRFvcAPfBvfBwePWD1Rln4x4DcXy3JzwltBEeEW4Q2gl3JokLZUO8HAvaoX5Qf37SfswPbgU1XXF/3BuqQ2WciRsAB9wFzsPBfeHMrpDl9vutzApriPbfIvjhCfXbUZwoKGUYxY9iM3Skhp2G66CKMtc/5kfla9pgvrmDPUPn5/6QfSFsw4ZaYouwA9g57CR2AWvC6gELO441YC3YUSUeXHFP+lbcwGwxff5kQ52ha+b7k1VmUu5U49Tp9EXVlyealqfcjNzJ0ukycUZmHosDvxgiFk8icBzBcnZydgVA+f1Rvd7eRPd9VxBmy3du/u8AeB/v7e098p0LPQ7APnf4Sjj8nbNhw0+LGgDnDwsUsnwVhysvBPjmoMPdpw+MgTmwgfE4AzfgBfxAIAgFkSAOJIGJ0PtMuM5lYCqYCeaBIlACloM1oBxsAltBFdgN9oN60AROgrPgErgCboC7cPV0gBegG7wDnxEEISE0hIHoIyaIJWKPOCNsxAcJRMKRGCQJSUUyEAmiQGYi85ESZCVSjmxBqpF9yGHkJHIBaUPuIA+RTuQ18gnFUHVUBzVCrdCRKBvloGFoHDoBzUCnoAXoAnQpWoZWorvQOvQkegm9gbajL9AeDGBqGBMzxRwwNsbFIrFkLB2TYbOxYqwUq8RqsUb4nK9h7VgX9hEn4gychTvAFRyCx+MCfAo+G1+Cl+NVeB1+Gr+GP8S78W8EGsGQYE/wJPAI4wgZhKmEIkIpYTvhEOEM3EsdhHdEIpFJtCa6w72YRMwiziAuIW4g7iGeILYRHxN7SCSSPsme5E2KJPFJeaQi0jrSLtJx0lVSB+kDWY1sQnYmB5GTyRJyIbmUvJN8jHyV/Iz8maJJsaR4UiIpQsp0yjLKNkoj5TKlg/KZqkW1pnpT46hZ1HnUMmot9Qz1HvWNmpqamZqHWrSaWG2uWpnaXrXzag/VPqprq9upc9VT1BXqS9V3qJ9Qv6P+hkajWdH8aMm0PNpSWjXtFO0B7YMGQ8NRg6ch1JijUaFRp3FV4yWdQrekc+gT6QX0UvoB+mV6lyZF00qTq8nXnK1ZoXlY85ZmjxZDa5RWpFau1hKtnVoXtJ5rk7SttAO1hdoLtLdqn9J+zMAY5gwuQ8CYz9jGOMPo0CHqWOvwdLJ0SnR267TqdOtq67roJuhO063QParbzsSYVkweM4e5jLmfeZP5aZjRMM4w0bDFw2qHXR32Xm+4np+eSK9Yb4/eDb1P+iz9QP1s/RX69fr3DXADO4Nog6kGGw3OGHQN1xnuNVwwvHj4/uG/GaKGdoYxhjMMtxq2GPYYGRsFG0mN1hmdMuoyZhr7GWcZrzY+ZtxpwjDxMRGbrDY5bvIHS5fFYeWwylinWd2mhqYhpgrTLaatpp/NrM3izQrN9pjdN6eas83TzVebN5t3W5hYjLWYaVFj8ZslxZJtmWm51vKc5Xsra6tEq4VW9VbPrfWsedYF1jXW92xoNr42U2wqba7bEm3Zttm2G2yv2KF2rnaZdhV2l+1Rezd7sf0G+7YRhBEeIyQjKkfcclB34DjkO9Q4PHRkOoY7FjrWO74caTEyeeSKkedGfnNydcpx2uZ0d5T2qNBRhaMaR712tnMWOFc4Xx9NGx00es7ohtGvXOxdRC4bXW67MlzHui50bXb96ubuJnOrdet0t3BPdV/vfoutw45iL2Gf9yB4+HvM8Wjy+Ojp5pnnud/zLy8Hr2yvnV7Px1iPEY3ZNuaxt5k333uLd7sPyyfVZ7NPu6+pL9+30veRn7mf0G+73zOOLSeLs4vz0t/JX+Z/yP8915M7i3siAAsIDigOaA3UDowPLA98EGQWlBFUE9Qd7Bo8I/hECCEkLGRFyC2eEU/Aq+Z1h7qHzgo9HaYeFhtWHvYo3C5cFt44Fh0bOnbV2HsRlhGSiPpIEMmLXBV5P8o6akrUkWhidFR0RfTTmFExM2POxTJiJ8XujH0X5x+3LO5uvE28Ir45gZ6QklCd8D4xIHFlYvu4keNmjbuUZJAkTmpIJiUnJG9P7hkfOH7N+I4U15SilJsTrCdMm3BhosHEnIlHJ9En8ScdSCWkJqbuTP3Cj+RX8nvSeGnr07oFXMFawQuhn3C1sFPkLVopepbunb4y/XmGd8aqjM5M38zSzC4xV1wufpUVkrUp6312ZPaO7N6cxJw9ueTc1NzDEm1JtuT0ZOPJ0ya3Se2lRdL2KZ5T1kzploXJtssR+QR5Q54O/NFvUdgoflI8zPfJr8j/MDVh6oFpWtMk01qm201fPP1ZQVDBLzPwGYIZzTNNZ86b+XAWZ9aW2cjstNnNc8znLJjTMTd4btU86rzseb8WOhWuLHw7P3F+4wKjBXMXPP4p+KeaIo0iWdGthV4LNy3CF4kXtS4evXjd4m/FwuKLJU4lpSVflgiWXPx51M9lP/cuTV/ausxt2cblxOWS5TdX+K6oWqm1smDl41VjV9WtZq0uXv12zaQ1F0pdSjetpa5VrG0vCy9rWGexbvm6L+WZ5Tcq/Cv2rDdcv3j9+w3CDVc3+m2s3WS0qWTTp83izbe3BG+pq7SqLN1K3Jq/9em2hG3nfmH/Ur3dYHvJ9q87JDvaq2KqTle7V1fvNNy5rAatUdR07krZdWV3wO6GWofaLXuYe0r2gr2KvX/sS913c3/Y/uYD7AO1By0Prj/EOFRch9RNr+uuz6xvb0hqaDsceri50avx0BHHIzuaTJsqjuoeXXaMemzBsd7jBcd7TkhPdJ3MOPm4eVLz3VPjTl0/HX269UzYmfNng86eOsc5d/y89/mmC54XDl9kX6y/5HaprsW15dCvrr8eanVrrbvsfrnhiseVxrYxbceu+l49eS3g2tnrvOuXbkTcaLsZf/P2rZRb7beFt5/fybnz6rf83z7fnXuPcK/4vub90geGDyp/t/19T7tb+9GHAQ9bHsU+uvtY8PjFE/mTLx0LntKelj4zeVb93Pl5U2dQ55U/xv/R8UL64nNX0Z9af65/afPy4F9+f7V0j+vueCV71ft6yRv9Nzveurxt7onqefAu993n98Uf9D9UfWR/PPcp8dOzz1O/kL6UfbX92vgt7Nu93tzeXilfxu/7FcCA8miTDsDrHQDQkgBgwHMjdbzqfNhXENWZtg+B/4RVZ8i+4gZALfynj+6Cfze3ANi7DQArqE9PASCKBkCcB0BHjx6sA2e5vnOnshDh2WBzzNe03DTwb4rqTPqD30NboFR1AUPbfwFwjIMkIb2NPwAAAIplWElmTU0AKgAAAAgABAEaAAUAAAABAAAAPgEbAAUAAAABAAAARgEoAAMAAAABAAIAAIdpAAQAAAABAAAATgAAAAAAAACQAAAAAQAAAJAAAAABAAOShgAHAAAAEgAAAHigAgAEAAAAAQAAATigAwAEAAAAAQAAAJ4AAAAAQVNDSUkAAABTY3JlZW5zaG90tcDkjwAAAAlwSFlzAAAWJQAAFiUBSVIk8AAAAdZpVFh0WE1MOmNvbS5hZG9iZS54bXAAAAAAADx4OnhtcG1ldGEgeG1sbnM6eD0iYWRvYmU6bnM6bWV0YS8iIHg6eG1wdGs9IlhNUCBDb3JlIDYuMC4wIj4KICAgPHJkZjpSREYgeG1sbnM6cmRmPSJodHRwOi8vd3d3LnczLm9yZy8xOTk5LzAyLzIyLXJkZi1zeW50YXgtbnMjIj4KICAgICAgPHJkZjpEZXNjcmlwdGlvbiByZGY6YWJvdXQ9IiIKICAgICAgICAgICAgeG1sbnM6ZXhpZj0iaHR0cDovL25zLmFkb2JlLmNvbS9leGlmLzEuMC8iPgogICAgICAgICA8ZXhpZjpQaXhlbFlEaW1lbnNpb24+MTU4PC9leGlmOlBpeGVsWURpbWVuc2lvbj4KICAgICAgICAgPGV4aWY6UGl4ZWxYRGltZW5zaW9uPjMxMjwvZXhpZjpQaXhlbFhEaW1lbnNpb24+CiAgICAgICAgIDxleGlmOlVzZXJDb21tZW50PlNjcmVlbnNob3Q8L2V4aWY6VXNlckNvbW1lbnQ+CiAgICAgIDwvcmRmOkRlc2NyaXB0aW9uPgogICA8L3JkZjpSREY+CjwveDp4bXBtZXRhPgqvhmTVAAAAHGlET1QAAAACAAAAAAAAAE8AAAAoAAAATwAAAE8AACTPgXLc/QAAJJtJREFUeAHsXfeXHFV6/bpCd88ogSLKOeeEckIJBYRACC0sNrvrcNY+/tl/hn+w1z5er8/ugtklCiSEJJSzhHLOaVDOKM1Md0Xf+2pGSKDR1MBoNN396qBJ3V1d9d7M5Qv33i8R4hB96BXQK6BXIA9XIKEBLg93tR7cUpgpl6CsVBLJlBgNG9WDK9KXUIgroAGuEHf9Kd5z6LkS3Lop7qmj4p0vEbNJM7F79xOzdTtJ2LZIIvEU312fWq/AoyugAe7R9dDf/dQVQKUjuHtXvCvnJbt5vbgbV0iArxNFxWINHSfpV+aJ1b6zGE2ek4QFoNOHXoE6WAENcHWwyPn+FqHjSHD/rpStWCLuykUSXL2gUlMxLRGWeD1HwkxG7FfekuKZr4vVtj0eT4oYZr4vjb6/Z7wCGuCe8Qbk+tuHvielX38lzqd/kPC7GwAtgBqBi8AWBrg9pKSGgc/43nUlkUqLNWm2FM2YK3bnbrl++/r66/kKaICr5xtUXy8vuHdXsnu2S/bz98W/elGBFzFMAZnjihQ3kESrtiL37khw/SIitiKFdeo5piFGi9Zij35J0lNni/UCnqcPvQJPYQU0wD2FRc3nUwal98U9vF8ya5ZKcPKwBHe+Ewl8FaWFrqPqa1b/4ZIcP02sTl0kvH9PMts3i7tioQhSWbEQ4fFAlJcobihm2w5iDUeNbspsMRs31k2IaHX0x1paAQ1wtbSQ+X6a0MmKc/iAONs3in9sv/hXLomABqIAC2lqCJCz+g4R+8Wxkuw7WAEX6SGh54l/7Yo4AEN3xxbxd2+TsPTuI0BnPN9cjI5dJDl6snq92bAhmq2625rvv1N1cX8a4OpilXP8PZwjB8Xdu008RG7+t6clvHe7AtgQufmBGF17iT1wqNgDhondvY/qlP7wloMgEO/UcfGO7hN33y7xjh8WuY/ojx1VPMaandmpuxjde0ty2BhJ9h7w2PP88Lz6e70CT1oBDXBPWp0CfoyRl3fxnHiH9oqzf6f4B/dEkZdZ0UBA48Bo0UbMXn0BbiMkOXRkRYrJhkLVh4oEjyGa27NN/MP7xANgSjkiQRtdVXDoFND1GYRzAiz7DUGa202Mxk2qPqF+RK/AE1ZAA9wTFqcQHwrR6QxuXRcXEVZ23w7xNq0SgSrh+9qZIYnGTcXs3F2sgS9KeuI0ABsAqIYpJZsU7pEDkt26VnyQgoPLF6JaXsKQ0Ee3NYlua6+BYo8YB6Jwf7HadZREGo0KfegVqMEKaICrwWLl81ND30fqeUe8cyXojm4T5+vFEt6+roi6UfsTH9EZNVq3FWvIaDQFZonVsvXPXhLVjd2/S5yln4EYfBFk4VsAOtWOjTqzaERYiOZSE18Wu2tPRI2tJMEoUh96BWKsgAa4GIuU109B7SssLxP/5jXJfrNJsqu/kuDcKURLxVFUhscT6HwmGjURa8wUSU+eJTa6o7V9kCxctnq5OMs+lPD6NTQnonRV8ekQVQr5c+OmS/Grb4rZrKUYDRqKaKCr7W3Iu/NpgMu7La3BDaG4HwDcytevFOerj8UvOamIuA8UCEgVCTz2jPnS4PW3VZpYg7P/pKcGUDyULV0IoFso4dXzqM2hCUHyMEnDuJbQdyQ5/++leBakXy1aAoRR86thevyTLky/KCdXQANcTm5b7Vx02ca14iz8kwSXzgE40BGl6oBHZbF/+Hgpfvs3IOK2E6MYEV1dSKsYUYKS4l+9LOXrvhZ37TIJrl2K6m+VQBZ6kmjSXJLTX5P0pJdxfW2i69Yf9Qr8YAU0wP1gQfL9W1oYOaB7ZBd/JP4FUj7ASWPNi9jGVBC0DRPF/fTsN0D56C1G02aoeSGCqgSXOlogdnFJEnbRZc1uWS/uhmWqi5tIAWhJK8H1KCum9uDPjZ0sqTGTxGyOiE4fegUeWgENcA8tRj5/GZSViXvyqGQ3rBAfXLTgxnVEalkABQr2IOoSMMzu/cQeP0Vx0Mw2HaKo7RkvSphFNIeurnfmhGR3bhF3zRJcKtDYROrKtBX0EqPx8yAKdwVJeLykJ0wRAw4m+tArwBXQAJfnvweMhFwQbJ2dm8Fl26082kQpCQAQVCDgcatXf7EHjxS7PxQIINuasDSqbwfTVu8CeHmH94izdyf4ebtBXykD0LE+hwiUQNeyjVg9QBSe+qokEX0q/7n6diP6eup0BTTA1ely1+2buSWnxQVJ1z2wW3HNQkRCis/GOheAzezYTSxwzOxBI8TuM1BMpKP1/WB31Tl6SLwDALkDe8QrOQWi8P3ovnBPAiF/8q3fSoPZ8xCBNqjvt6Ov7ymvgAa4p7zAdX56SqKuXxXvGHSj+xGx7doKGyMAGykVFXW0xHPNxezSQ+yhYyQ1cqyYzzVVYvk6v9af8Yaqlgh1hbv7G/GPHxCfRGFEeQm4lKTmvSvFE6dqYvDPWN98eakGuDzZSUZkAYi6PiKaLCI2d+USNBCg9WTnkw0E0CmUewdqa+YgKBCmviJWs+Y5B2w/3C7/zm1xoLhwt22Q8O5tMQcMl/T0OWIxzVY+dD98hf6+kFZAA1yu7zYK7UFpqYpgHCgCslQEgPZBq3AVsbE+lcLgFygArAEjJAVbomSXbrl+1z+6fkZ0VEVYrZ6grgAVJqDsDLZORmMNgD9axDz8gQa4XN5UgJcPP7Ys/NaySz8V/8QhABvqTpUOung8YafEGjVJ0jPnSRIF+II8WHMEqPk3r4tz7JD4kKMVMcpr2SqKcAtyUQrjpjXA5fA++4hYyt77L3GWw0ySjH92FCsP1KOscdOkaNZ88Nl6Aujg1lFRg6t8SqF8Dmi6CS+67BKoNY7ur9CyhvL8ByvEeL7+N1YKZZ+exn1qgHsaq1pH52T9qezPv5PsikWI3Oi0wWIbUlJ0Gq1Rk6X4jb8Vq2PnaIpVgYJbZttGyS77TEW3nB9B/zrSSkJYNDX9aI0GuDr6XX1Wb6MB7lmtfC28L+tJZQs/gCrhr2D53490pAQy1OUqGwr2S7Mk9eIYUEDQUCigI4MOsrMcwHb6BGzV4VCCFPWBbhWd5rDsvga4Avh90ACXy5tMSsil82pGgrPnG/F2b5EwW6681KI5CaYYzVuJAe+25IvjJDVsdF6bR9IYwD1/FhHbQmUc4J//FtSRzPfAxr3m/wA0wOXyb32Nrl0DXI2Wq34+mR1E/3yJuIfAC4MDrwugS4AWoigiFNGji6qGu/QZDFLvi8pe3ID9UL4cSuUAMHMg5SL/zzuyH8CGbillaAAzRW5OIYVH9i5ZqB+YouoILl+2/4n3oQHuicuTWw+G5eUY7nIUnLC1mH9wTHHiSH5VQMfJV/gjt7r2FmsQhsP0Gy42uqq5LGeiA4qPCJbmAUrZcHCvBCA1U4SvIlik6kZr8P4w34GRm48OKik0/FoDXG79bv/Uq9UA91NXrr6+TlEiXMns3CruN+vFP3lEAphZPqhBsdAOGomlVAzjxewGwINLb67ZgXuY1OWfgcZ2D0i+SM/Dy+fRSUYXmSkogC/xfAsxO3QUGyMJk8PHwjnlWyn/5M9oNhxUgK8Brr7+AtfudWmAq931rFdn8+/ekezmdeJu34BpWKeUJbmKbJi+ol5FQLDGTpXUqIlid+slBiRbiSToJPX1AHiTzEtZVmbHZvE2roTN+YUKGRruCTloAlGq0RzgNmycFMFW3cRQaToSZwH4GuDq68Y+vevSAPf01rbenNm/dUMyG1eLA6shmkcqcGOkg5pUiE5sAnNJkxNeltS4ycq118Bc0joxt4y7Qkg1aZsU3LopGTiJZBe+L8H1i5FPnTLhxI3gs9HoOSXVKl7wKzGhaHh4doMGuLiLnV/P0wCXX/v5xLvxrl1VE+mdz99TgEFzS5XSEUBgFW40f0Hsl2ZK0czXFa2Ekc8zPyivAlHXwYjB8r/8ASk31Bp0CanU2DLlRtRp9YO+9s1fSapX38desga4xy5L3v9QA1zeb/FDN0h6BEjAAQjCpYs/EXfJXyLi6wOVAyIhPCfRtIXYM+dL+tUFEEgABJ/REWQzyhEl8yUUCAd3Vlg94WIYfYLXxvGC9vAJkpqzQFJ9BkRqjSoG0WiAe0ab+IzfVgPcM96A2nj7ALW2AOaPscf4AcToPOKhMF++fLF432wQKbsXyb14QQAQ1rISTRpLcu67UjR6AtK/xrVxqbHPkd27QzJffyE+KB/k9ik7ddVAwCAcpKvWUPD6psxQ7sOUWyWqob1ogIu99Hn1RA1wObyd/EPPrMOoPdiQM2Wz4MqbnorCepPnY90VpUv+lUvi0cp88xpQLXZFigjVaCBpDEV7EIXNNp0kibmkycEvwjsu3rljXcBjnpQ9DB+7tV8paVVwDeMDyVujeQBAWWAJZXTvKymk0XavfmK2xjAcjg8k8FVzZGBIUP4JBuycOqLWSndRq1mwPHlYA1wOb6SPKKzs/f9WzP0ELZGQWhpdYWQ5ZIykR42Poq4Yf/yc1+BDAeAeOwjKxXZlBx66MI+EE4kgDeT8AwNgYvUaoCgXdt+BYjRsVGsrF2LYjYfOaHbDSvFBVFYdX9qR89pRH+Rno2U7NS/C7jMIHV8MgG6A94/h98axiO6RA5LF/wi8vduhQYX7L5srmuhba/tXn0+kAa4+704110axfSnE9s6KxeCxQZlAMi+oFEaHrpEV+ZBRUQoXc8YCKRju2ZPi0eYcbrneMThvkFLCuhbtwIswZR7DXcwBIAoPfFGSPftEpNpqrrOqh1kP5HhAxWU7DFt1RG/hnZsqwlIohBdyzoKJWRHJvlBhDB4hZkz3D57bPQ7S84Ed4oEA7GM6V8g0nPeDyJXdYy22r2pn8ufnGuByeC8fATjlJlJxM/jjDpHSWb0HKlCw+w1VriJG4yax7lZ1LQEK7o51SF8hVr98DqDAuak4+Lkhptyrcw/DLAcAT6euEQhGz6j2Ywgg9jG93jtxGDMj4D4MR16+B6NQNUCGRF10dC1EoxYcepMANqtdh2rPyycw7fYunMdwmr0YTrNdRYRh6R1cHzrCzLoxs0GBJs7d6Lf/KolajERjXaB+Up2ugAa4Ol3u2n2zxwIca1WI4hh1RWkmKBR9hoo9cgKiOdatQHyNM1aPpFrW+DasUoqIABGQcuUgwLHkRXoGokZr5GRJjxwnnPFgNmsRdTKfcJv+7VswnDwD8IECYccmJSdTcjHSPnDOBLls4LCZQ0dj1ulLYnfs8oSzff8Qhfbk+/klJyWza5v4IAHTEikasoPnYT0SGC9o4nxUcaQnTBWzEdJcRnT6yNsV0ACXw1v7KMAhRUVNKlHcSKWVwV3MYyDQ8aBVUDHSy4HDJYVJ8DbkWQbBiKlnjMO/CaIwp8xDERFc/Dbqaqph0UA6KiLQlLBnvCFp2DJZHboApBor9cCDUxMsaSkOyRi7o85qEI45DYvvT2DjdXLsH15non5YNHOuWO07RT52D07y+C84i4IDor1zcBGBqaWzerGaRZFI0kwgaj4odUObtmJBtpWePAvd5hcefzL907xbAQ1wObyljwBcKol0C6njy/MQAbUR58PfRxEXgUgd+MzJ9aBTWKOnSPG8t1XEZQD44hTreQoXc0kza5aKuwnR0e3rqPlFAEKAYrSUaI6JVtNflRQmzVuUSCHlpCA+vH9X6M+W/fTP0ISexjBevI4kYx54LSkeZo/+UvQ3/4h0t1s8AwC+J3hyPjSpma3rxVkF0LxY8v0sCuajiM4MAL6FDnB62hyx23dUb6k/FM4KaIDL4b1+BOAQRSUaNZHkvF9JwzlvIL3MRGReuNmGNy4jykJ9S9WhkMIC6Fhkt+f9Whq+8Usxm7eswSqEqsZVtnShOIvfB4YAqFg7Y7SkFBHlYpBWMgsR3aTpALTzUvY//6ZG+ylBP6M2dkcZVQKEzJ4Atnf+WVIDBkc/j3klvL/yVcsk+9VHEkBnq+p3ato9gA0OKgQ/+5W3pMHctxBVEtgqwDjm+fXT8mMFNMDl8D4+FuDeiACOf9C0T/KuX0bUtVxc0CSCG1e+tzZn5MSUNl0k9vS5SN1mi9W2fbzVQFRGN+Hg2mUp/eIjcdd8qc6l5kIQSPgfKRysbxH0WLcD7qhIkQoEpLVW/6GSwryIFLh1lF7VxLapbN1Kcb6AHhVE5ZAW5DxwP7Rq52GNnS7Fry2A0L6CJxczFVcv1h/yagU0wOXwdj4R4CqK5+wqUprlgefmgOzqIMUMS28DUCoMLwFACZBlDYCBPXqSpCZMFytmRKfOfeM66l9noDqAIgKUDAHwKaAjoJHDRrQz8I+pKpoWJrqurAMmQf0wWrwQEXVj7AH5bFl0dp0vPpAA1JLg7i11TnV+AhtqeFZvnHvmaxFPjjVGpaXFe+ujYFdAA1wOb30cgKu8PdVlRJHfO3FEsrQ3X788UgeoWhjQCMV+2iXR3tweNEo5i5hN4tFKKh113eOgfWxbr/hzguiRzQdlD46ozWjXGcA2HbSSQYpLZzSG9CtGBzPArAmX1wy1hvK2AyFYqRqY5pKEDGAzu/UFOE9UnD+rPYbsPEyZqVwA/bkgV0ADXA5ve00ArvI2GUV5MH90wBPzYBbpgWArqFc9qM+hTqd4YpBC2TCKTA0aLgZpJQSUao4AzQTvzClxDu5SqgEfpGFSMyxQPpIDQFXph6gNpOM43dsA7ibeKRpagvLBay05XaGXBWiSooKU1OzRV3WGk/2HiNkZNJWYhOZqbkM/nEcroAEuhzfzsQD35m+k4ezXq42OfKSMHqy+3T1bMcPgAJj+Z5BegjdG2gYVEaihqcio7wCxoIiwu1IehY5rjMP/7qaSR/lnjkniOXjNDR2Frmobdc4YLxf3zEkoEHbhH9QNcCQOb0PdQFcTpUf1xUCn1eqJqA3aW8rG4qobSGD2Ss6ID6qL1Q+SL3R6FVUlzkXp5+TkCmiAy8ltiy76EYBDJ5OjAq0pc9AZfQdaUYrQqyexkp/mUE2weytmFgDo0Dh4ENExBQTNhMRYewiG1UCLyuE1cYCOSgoCZaKSDlLdOuP5yoYcYvjsbk4I2ybhdzciom7FaxNNmokJ1YQ9AhZJHIVI2RabGdUcqtmC1NYloFPdcPaEWJgy1ujdf4q85ap5vX44d1dAA1zu7p08AnBFaBowvWzdQdLoijLCsdq0i2YtxEgveS4HoOLAVYSppYqa2PpERBdi9B4HuVhDkGqiEWH36CNmi1Y/S4dauezssNK6ieoGApu76svIWp2UFl43/4MG1mjTXsm20mgimM/DWp2RZjWH8r6DJMzF7IbsNxvFw9StEARo2rKHaFpoLWo1C5gHD2uAy+FN5MyFsr/+L8T2n+MuiAT4h6iJf7zWiEmSnvEqOoqYtQD7JDVpKsa9+t/dAhhsEmfJh8oiXHmx4bQ8wqwDMnFjsRH9pKe+An5ZJ8xZfS5WFBWd4aGPiNjYGfWvXkIEuUsyn72vyMOqu8uuK7uwmBlhYHiMNQg2UHPeFDsujQXd2+Au6oGYuJVZs0y8besjwAYZWkW1eG/tJvLQXuTxlxrgcnhzWUfLkvpBx9uje1S0pf6ACXQku+KfPR4s/lcWwPmjYkRgjMiHS8LuZdmyReJ89kdFmo1SQSIdkIeKCDQe7PEzpHj+O/CIg+EkO6YxIkWeW7mI3P5OAWl2ySeQbZ1AqohGBq+NfDamtqR9jH5J0uDKJTHeMNaB14bo2NIVpfRLOBYvXyhSCgcRXtvD960BLtZy5sOTNMDl+C5WpnhZ+LgxCqKhY0J5pVVEQQQLpJcmdJhFc9+WZPde8e6YYAGdZwDftNJFH4u7cpEIa2IEi0pFBICCR3L+30mD2fNUh7S6kxN0yzeshofdpxKcPhqdi7VCYmelwmLSLFzrL1RjQ9XwYtTZ+L7k+5WB1Jz94N/xDX5AUOO5yccjcKqUF99rgONyFcShAS4ftpl/sKBVsEGQAdBlP/8/+KrdAB0DnUeCA9M9sPkNTM8yB46IwCOm/RCBgRGRh8nxSnC/bR2K/xiuTP85ohIep7DdQF3MmvKKpMdNEQtuII87yrdAM7rsEzh+wJuN1BREoAp0QPsIXQ/NjLFSBJmZhS6pAedgRnFxDv/mdcls2wih/SKMEbyI6JUysOja+D5GM9QLYQbKtDS8eUWth05R46xs7j9HA1zu7+H3dwDA8AFGlDBl4KzhroVqAWAkxsMF+wbgudGOaIwUw7VDzUJ9OH37/myPfKVSP7iKuKeOIS1GwX77JgDG3ai2x+gIgML6nNmxm9iwOUqNGKsmc5F355w4KpmvPoZm9CTqeogCmeISgMhnQzRIOkpqcoUNOegkar5CjHQ3uIO5r7u2irNlrRoCHd67rdJb1RjBHIdEuhi1yImY+zpBgtu3JQsr9OAMosYEGifa0feR/c3XbzTA5enOepAzeeCQ0fTRg3IhvH5VFe2jyAbyLBTvzQ6d0TAYj3+wOYI8KxEHVNgYQJTkHTsMEi44dAA7dVAWxYgM6bCBc5k94D0HsAvh/+Yd3oMu6VkAWzZKG0k/AagqMATlgwRgC/QPZYMe5xogB3Pg+ebs2iIB7tG/jqhMkZWRktI+KfTVtK3ksNGwWe8vFjzwnEMYO6gn2+fpb3vVt6UBruq1yflHlLvtuRLwv/aBNLsTPLfDUURH0iyjLoCBAf82E7QPe9AIZQtuYip8nIOdWheqBXc/qB0H9oGQe1CdT9W9UPcTNZWrqQKe8BaiSNbu+HP843tacBlODhgGOguAsFnzOG+pmhPOkUPg7GGqPe5JgaYaSgNg47ktyLa69sa9DIGYH/fTrUdkn4Sz66lasZY4756kAS7vtvTHN8Q00YXBpIt0jsDgnTmB7uLdSB3AqAsHHXktzFmwIXsiz82A9VK1B0CSTYPsPqgOSBQ+flB8akUZTam0FyDKiKwCTBMQ9Csb8sGYFQEJWFW1uh++L62dvIvnMAyHNuSQgR3aHqW5TL0JbIwaoUqIbNRHSmrYyIhg/FA0qAHuh6taGN9rgCuMfVZ3qSZMnT4hzvqvxTu6PyrIsw7GTmOAz1AdmF16SRKNAhs6T6oGDM4bfQgoqlouyqCyOzYDRLeIf/o4am2I2iqATtXm2nUUcxiswlGfM1u9gLdE1FXNQWBm+kmxvUq1t6wBsKGBwOYDgY3EZjRODIBzErrZ5MjxsCGHiP8xhwa4xyxKAfxIA1yubzKjKAAJ6SJxJFS8XUZdmX27xWHhH7rM4A7szRXQIdpC2qoK/70GgYP2mupomrA1istz41yELDqa7qbViObOg7LSAAoEdm7hz0b1QwxvNkVPwTV50Mdmt64XF00EKiuizi1vADVEAJnxQvuooTFqYrXRoAY47nzhHRrgcnnPAW4EJweuGyGIuSmM8yMHToFRzPsqw6wFZyk4aZBKRcaUEbdNcdJoTDl2KqgbUBEgmqNvXFxtKZscFM1z6nyqV99YVxMSrCvUDZl1K8TF4JgAhp3KrZddV/BdGPklihqIDQJwGr5ycdNczmtQTYaTh1T6rLuosbYk55+kAS6Ht5ApZ+kf/0OyMIEUcNHM7r2l6N1/kfTAIVENLEZqydsPME8hsx7k26XgqJ0+BkAhmReNCB6I9kLfEXvyqwC6X0gS4/ZUyhrz3NFJqv9Icb4HQM0s+VRc3I+aj4ramqrlkahLagk4ffar70j69bfFpu1SrGtAHRCGAZmt66X84z8ByE9pgKt+O/LmGRrgcngrKZAve+93kv16USSqZzHfMtGZHCRFv/wHsbt0r4h+qrlJRk4AFxJmWUfLAmSCC2cip40HIIK0kENtRk+WohmvY5xf52pOGv9h1u/Kt4IE/JffqwE1IQGtImITB8AGGZc1chJsyDFfAQN1BDbryhI9xlt4Vy5J+bLPVTQY3rmlQFIrGWIsXJ48RQNcDm+kEtsT4DAAJhq6gq4iwQGcNANgZKJbmZ42O5I8xVEFoI5HDaqPjiVdf7OLP4zIvLQ3Z4aIDwmbHcs2Yg2D6mDG3BoOrHl0samQyO7ficExn0lwqQQuIujsRm+k6oRMielFl5o0A2DdQ6W7kQ35o+d53HceTAMyyxeJt2sTiM8X1PlUN5f/E2BUCi1X0w9WqnM+7vX6Z/mxAhrgcngfWYz3MOiY7h/uNxsUmz+RRGoJpj67jIkGLMRjQjyALoXIy+7aPdbdqiI/BzSDWlKOc3tbVokgyiJwqoN1MA5oRmfUYmcUtTDVvaQsLMZBEHUO7BEHsi//5GHU2UBC5lwFdlY9dEmRHhPYkiQh94Q1E6K2WDbkAHdGg5ktG9CYWCU+5GXhPTRQkP6qgw0UeuaNmiRFo3FuGGbGlYPFuC39lHq4Ahrg6uGm1OiS8MfL1FLNQ4DtkAtPt+DqhUhCRREqHqcOk5beNpoQNkT38W2HQnHPlYh3/ABUCzCKBA9NpXmVQIcLNVq2xbm7qPOmYE1ODWlVR4g6mkMuG/h4Pmgq/sXzkYswO6sA5NCBHhVa2eTQEWL1xewGKC3idoaVbOvQHnG3ontbchYR4beIZnH/BF3W7wDIVp8BkbswjDvtzt2qukz98zxaAQ1webKZBA9yxhzMWXAxE8EHoTe8D20mOW488MeegOjc4myEPgPxhz4aNkcAoxhRFyM69+QxdV7v4B7xwHMT6j4rbMT5uNm1l5Jc2VQnkEMH8f2DA+DlnDwON1049QLgPOhZpQwRIYGNIIRrpLrBBqgpG/Le/SPZ1oMTVP0Fgc2FK4m7b6fi9pFsrO6ZjifkzMEs0yKJmQRmEpmVbRSaKPooiBXQAJdn20yqh3e+BM68q6EXhbLg7ClQSFDbYrNATbkH0LVqJ8kxcOZFJGNRtdC4SSx+miIKQzjvoBHhI6pTcxwcTM9ix1WlmJjj0B2zEoZgVgKkWCYmyXOqvXdkv2Spid25OSL/MgIksIFYTKcPs1tPyKugQBj3UnxiMekkcCVxjh5AnQ0KDVwPDQFUyslroWyrXSdcTx+kuohaCZpVkIDz7FdA385DK6AB7qHFyLcvs0cPirt+BSKbfahzXQPH7H4UsQFcOKdA/fFjDiojJ9bTKHaPQ71Qo/yOH5LMisVqqnxwDWJ31rkIokwHUQe0MP/UGjoSjr1QIsBLrtL2vDJiY0fWZNQGQXxqwrRHI74nbASjRf/SBUSRcDXZtAYRIaaCYa5ENHSaKSkaIUzJO3ST1EuzovmrAHB9FOYKaIArgH13Du6TzKrF4u/bgYn0ZVHqxtQUYEE5FOteNuyKOIzZAjGX0+7jHATJDOYoOIs/gMPIJXRcATQK6PBqerwxkgLoKRtyYJ/ypYOPnNGsJeaYwq13Ioi6bdrFeSt1PtJi2OEtX/YFosGN6IZC88qhNsA1ptq0RzJa4twzF0gxosG49xHvAvSzcnEFNMDl4q79hGsOAEZM5zKLQebdvxVpJdNEnIhRF2gTPCi2T81ZICmM1CNxOC4lg68tXfoFFBEfRfpW/oB0D56bb8L3wQeqIOwZ86Vo+pz4wAbAZOrpI0osWwoL9S/ei5QarP8pSgnPH4rRqq3Y0+ZK8azXozSXb6mPgl8BDXCF9CsAsAgwoyCLBkT5n/5TpZdqGE1lV5Q+bbA1MnsOlvSCX0u6P4Au7oHan0/C7uql4iz/HBrXkoibh58zrbRnzpdi2JCTqJsgOCnwq/7klHzxnO7iv8K1GBEiamvqtaCEMIJkF9eeBpUF+H5WU9guxdC6Vv+u+hn5sgIa4PJlJ+PeB+tviNhIsqW9ucM5DpfPIcVDR7MSHFjHSjcQE4X/4jffRbTVNp4GlTy0MhT/USPLbl0nDrh5Zuv2kn7tl2J36AQlBLSsjBxjHJyRmkH9UOlRr1xAigr3EIKiun649TZqKvbEmbBInywWVBVGcYOovhjj3PophbMCGuAKZ69/dKcEuQBj+7J0x12/XAnuVbG+kr4B00qzKYYtD8OYQNToLDQi4rmBuGoADN18BXZLJizS4xoAUJ2R3bAyIi6fP6usxZXDCcGNDQx8sl+epyzRrY5dMOgGM1JppqkPvQKPWQENcI9ZlEL7kX/jmuK2OXvBoSNR+NK5SHDP2hmaBcreHDNJraEV6gLQP2r7II8vs3ktgA3qhrOn4Sd3TTVBVNTG1Blgy8HT9ogxYoOKolJdDWy1vQ15dz4NcHm3pT/thhT9Ap1QF5w1F9QLb/9uCW5ciRQRSAthKSKJltCgwrHE7j8cXDeoDaqYnlWTK6C0yjl2SGlG3eNHVF1QdWIrurwCayQLJpzWEJB0wa2zMCPVqEyla/JG+rkFuQIa4Apy26u+aeUqwhraTmhQaW8OLp1kUdxnjQ6KBB5GK0Rzg0EtofIA8i+T0+1jNg0q3zm4dw+GlqcVmLrQpXqHduEUoK6wRkd6CagqZvvOsCHHewwcBnAbJAaGTetDr0BNVkADXE1Wq4Cey5TRLYGj7pqv4BF3FPZJEK5DPaCArBLooBRIjp8G6Rf4c51hbw733gfSsCrWivNbvUvnxT2K4TGwNyewhRzxB5eSyFUYsi3MV6D0KzlyPLh5w1Bn00TdKpZT/7iaFfh/AAAA///0iK/5AAAk0klEQVTtnQe0JEUVhmsjC5JRQBBBBCUHyUqUJBkUFRQTmBVzRkVBxIjxYECCEQWVjCAggqIISFJAQXKQnMPusrvl/12sd3rqVfd0z/S8nd1Xdc6cme7prr51q+qvm+r2BK/icskcqODAjKuvcDPOOcXNvv4aN+fhB52bMd25iROcmzPH+Zkz3eS1N3ILbLezm7zq6m7yMsu5CQsuNLo2XTv7/nvdrJuud9MvPNfNuuJi5x572LkpU5+5VtVNXHQJN3GZ5d2UHXZ3C2ywmZu0+BKj68lnMgcacGBCBrgG3BrHl/qnZ7oZl1/iZpwtoLvmcudnP+3c7DnPAN2sp52fMcNN3mRrN22nvdzU1dZyExZa2E2YKvASsM154nE358H73BNnnORmXXiWgO0R5/hvwkTj6ITJk92ExRZ3U3bd1y207U5u4sKLjGNO56a3yYEMcG1ycxzUBVgBdNNPOd7NvvYKN2HaNAGVxC+nz8wZ9nvyRlu4aXvs66auvpab89ij7okzT3YzTzzKTQAQpywgUBSwzZnt3KxZAral3JRtd3UL7b2fmwSwWV3jgJG5iWPCgQxwY8Lm+eghsmh4AdOcRx5yM6681D113JHOP3S3m2DANUkNlcVD10xYZDE3YallnBcg+vtuF3BNGWGCn/6UgG1JN3XLHSXx7ekmL7u8m7CAgC+D2wiP8o92OJABrh0+jr9aUD2fetLNuf8eN/2Si9zMU48X0D3gnNRNN1FAh1DHt64zaU2//QwB27QF3eTNt3fTttjeTVl51WeAkHtyyRwYAAcywA2AqeOqSklrsx960M2541Y3/dKL3NMXnef8vXdJFZXEZjY2SXTY6J5+2k3ZZhe3wCabu8mrrO4mLbX0M+rtuGJWbuxYcyAD3FhzfD5+3qy77nCzbrjGzbziEjfrqsvcnHvuNIlt0lobuskbbiKb3Hpuygor2rn5mA25aUPEgQxwQ9QZ8wMpXtLarNtucTOvvszNvu1GhX7IO7r+pm7yGuu6SUh1uWQOjCEHMsCNIbPH06PMPvf4Y89IcIssOp6ants6RBzIADdEnZFJyRzIHGiXAxng2uVnri1zIHNgiDiQAW6IOiOTkjmQOdAuBzLAtcvPXFvmQObAEHEgA9wQdUYmJXMgc6BdDmSAa5efubbMgcyBIeJABrgh6oxMSuZA5kC7HMgA1y4/c22ZA5kDQ8SBDHBD1BmZlMyBzIF2OZABrl1+5toyBzIHhogDGeCGqDMyKZkDmQPtciADXLv8zLVlDmQODBEHMsANUWdkUjIHMgfa5UAGuHb5mWvLHMgcGCIOZIAbos7IpGQOZA60y4EMcO3yM9eWOZA5MEQcyAA3RJ2RSckcyBxolwMZ4NrlZ64tcyBzYIg4kAFuiDojk5I5kDnQLgcywLXLz1xb5kDmwBBxYJ4CuNmzZ7vHH39cL0DnrcLPFM9b1HW8gN6MzieXseMAvH9a7zt96im90Dnqk0mTJrlp06bpPdDz/kudGXfTp083xk6dOlWvfB2et4PBf2iboxdsF/uA42c961nG/+L5sRsdw/GkeQbg6LCHH37YnXnmmQZkEydONA7OnDnTLbzwwm6NNdZwL3zhC4eDq+OEilmzZrk77rjDXXTRRY6JX+yTpZZayr3kJS9xz372s+dpbjzxxBPu7rvvdv/5z38cgL788su75z//+W7RRRftAJS51Uj4f80117j777/fFpRAB3RvvfXWbrnllpsvFpnQrsbf6rR5osyYMcNffvnlfokllvCSDDo+W265pT/ppJPmiXbMT0Q+9thj/sQTT/QCsY7+oH923313f9VVV83TzZV05I866ii/8sorj7TvOc95jn/f+97nH3300aFo29lnn+133XXXEfqKc+PUU0/1ArqhoHNuEcGqNE+UKoDbZptt/GmnnTZPtGN+InJ+Bjip3f6Pf/yjX2WVVbxUvREAWXDBBf1KK63kP/rRjw5FV55//vl+r732GqEvA1xnt2SA6+THmBxJrfZPPvlk8iNVfExoaOMh8zPASeXzH/nIR5IaA4C30047+fvuu68NNvZVByD8yle+MgNcCRfnGRsctjZsDdtuu60ZtYu6+GabbeY+9KEPOYnqxdND+RuD9fe//3133nnnddCHMV6SqHvd617nFltssY7/hvUAh89ZZ53l3vWud5nzp0jnDjvs4A499FC3zjrrFE/PM7+xux144IHu97//vWPsxWWTTTZxxx57rHvBC14Q/zWmxxdccIH79re/bbbp+MEnnHCCzZeFFloo/mv8HJcA39Cdnl9UVOw673znO0etuAI1/4EPfMDfe++9Q8f7MoLGqwSHGrjddtv5Bx98sIw1Y3Y+S3DVrM4qajV/Wv+3CuAkhWaAa53jvVWIDQ771ote9KIOGxzg9uIXv9gfdthhXtJ4b5W3eFcGuGpmZoCr5k/r/2aAa52lA6tQ8WX+C1/4gt9tt928Ql78uuuu62Ui8Ycccoi/4YYbBvbcJhVngKvmVga4av60/m8GuNZZOvAKL774Yv+jH/3If+973/OynXocEMNSMsBV90QGuGr+tP5vBrjWWTquK8wAV939GeCq+dP6vxngWmfpuK4wA1x192eAq+ZP6/9mgGudpeO6wgxw1d0/V+LgFCDpbrnlFnfnnXfaHjqFgNi+vuc+97lu1VVXddoa4+LYnUHFwbGXTwZjd9ttt1ksF5vE2dsKLSuuuKJT1HpyL5/Y6ohpK24m55iNzWFPZirYiD2CCgdxP/vZzzr+Zi/nq1/9aifvnFtmmWVG/mMPLh9K8VkjF5T8YJ8oPA58JmYttI39iYrQt32VnKtTUm3rNQ5O4RVG16233mr9T9/Cs9D/7PVko3gVH+vQzDUpusO98Ojmm282WqBphRVWcGuvvbZbZJFFwiWOa+BRWxvWoYfxz3gL4z/E2WmXhPUJY+55z3ue8WCEkJIfYxEHBw8o9EdZn7BP/PrrrzdePvTQQ8Y3eZytPfJEW7xgWzwsYUXy9JgBHB1LZ5xyyinu2muvddrLZ1kQJNGMTGCygTCwATc2Cms/o1t99dUte0NbAAcddMDvfvc7p/2rNsG0q8CCh/mPApDQOXyg5VWvepXbZZddbOMyHUxn/uEPf7CA3WKnAXraNuP23HNPm6yKabP2/vrXvx5hPs9g4/Y999wzco4f1KN9jgbugF0o1MnG7pe+9KUWzBzOp74ZiOGZ2qNobSPTB9km4rbRrmWXXdZoVUyXW3rppa1KAlzhzS9/+cuOR0DHG97wBrfHHnsYPfzZFOD+/ve/Gz+uuOIKm+TQRr9SNyX0PxN9iy22MJ6TRIEx0a3Qbuj+xS9+0XEpdb/+9a93ivY34GKxoP/pkzPOOMMBbNDBOCRQnKBlgI7rHnnkEfe2t73NKd6vo04WiJ133tkWpI4/Sg6o6/bbb3eSthz9ArDRJ3yK7WdsMeZoP58NN9zQveIVr3Drr79+afB3GwAHDSy4JLKI20qT4OHHP/5x97KXvaxjQz/33aJF9Pjjj3d/+9vf3AMPPDDCS+4J7aH/aA/9wDwa0wQMImSghQDdq6++2oJbBVpeg8Nrco0KdFXHdpyTJOc1iPzXvvY1r9XOtxHoi/frN7/5jX/Na17jNXi8VuqOZ8Y0hGPCAwRyXpHhXuDmBU5e0ePJe9nec9NNNxlPJaH4T3ziE8nrQt11vuEZwcFVRcDkf/KTn/i9997ba/dArbYtvvjifqONNvJvfetbvXYkeAGWl0TjP/OZzyRp1s4Er0E8QkadQF+BrsX2ETdGuAUb1wXYyfqLvGAP6I477ug///nP+yuvvHLkmWU/4DXXFusIvzlPUC4bz//85z9b/9OnktQ7rj/ggAP8jTfeaI/QguDhKbwP9YTvNddc0x9xxBFlpIycD3UceeSR1i8bbLCBX3LJJUfVF+qNv6VB+Je//OW2uV9gbHNgpPL//xBo9rVVi3kFfZtuumlpvxx88MFei7KnL0NhLmkRtKQKyuIzipdxWzim/W984xv9OeecY2Mt1DXI74Ha4BhUv/3tb/2+++7ridRPNbrbOUlwNuH++c9/2kBPDZA6m+2JW2JQbrXVVj3RAZ2SKry253htGRsagJN0YAsIg5BB2o2fqf+V2sjARCux/8c//tEKwLEBnGwi//73v/273/1uA7YYUFK0xOeYPADwGaefXjkPqgAOYGZRInBX0nUpj9oEOPYa//Wvf/WSCP16661Xa1GP2x6OZbLw22+/vf/sZz9r8XfYcUPpB+AAN20btEUutdizELHYwdsiuMFLFlPmQ6Cx7jd1so8XQUMScmjGwL4HBnAgPBIPgZF1G192Hav+e97zHv+5z30uucp0A7jrrr3WVve11lqrb1qkKvoPf/jDXvayZF1jLcEh3bADgtW+jH91zwP+ZMlAck7d00SC23zzzU36JrVQqq4m56Q++92UEggpBqkoVaoATuqVl/rl3/72t1fS0hbAIdkSL6d9xZXPa8IDrmUhev/7328LLEHIlF4BTuqll1pq4JtaeABVxjkSe5Hn7PA4XYsNc64p/cXrAeyTTz7ZQ8cgy0BscNhmxHjbBPynP/2pxDLxzGk12uw/IRsvRnh0ea0uHfehz6PHYy8TQzr+q9psj03pmKOPdj/+8Y/dbbKDVBVsXSRqxAaHPQt7BDYabCh1y3vf+14nicWMqjgwJPG54/SZpDop1Itth3akCvad2PDP5ns24n/lK1/puAUDuYJP3c9//nOjs+PPwgEZaDGcU09oG3Yo7KBN2nbQQQdZ2yRFW+1VNjiexQdjelwCLfQ9fQkv/vvf/8aXdRxzrdRK953vfMdpq5Ql2CxewHOOO+44d/jhhxdP228Bt9kNFbBrtr9RF/z/BDaiT33qU2YHhS84A0jayRgoFhKrCgzdBz/4weJp+40t7y9/+YuT2ueUj23U/8UT9AsOLfhEn2PTkmBgtrl4jHMf12OTltnGSd0z+3AvNjj6DRsybYVv0Fws2MiwJcNLbLVFOzOOBJJFMO7igh0XBwnjg/lKv951113mfIiv5Rg7JmMKHg+qtA5wdMwll1zivvvd75ohN0U4HQWQwBC8RRhTZQ+yS2GI1CTLFMtvJmK3UgZwDBgm/w9+8AMndSlZDQZQvJY8H28PXjQmEwArqcDJfmiGeyZgGSgVKy4CHBPjQjlWLpdxfarqpGDQJkOFVO7ibTYg4MdrX/tam4xF4MHpQNYKvKyhsBAwiY7TpJbNL5zu+Gbi4Ejgg9cU7zRtw7j9r3/9ywYeCwAOD851K00ALlUXXlIcKXjK4TUTgfHC82UbM/5igAd4WQjiwgInG6OTqjbi8AnXVAFcuCb+5vksasGpg5PhHe94h2Xs7RXgpJK7r371qzbu4ueFY8Y+Y46PJG/rFxZ4FlTGKQ4Txj19Ay8o9Ntqq63mJFUZMAA8lKYAR30XXnihk2RtfC+OM+qDJ4Dbl7/85aRzB4cCAIujsFiUiNaccThzoJM5TjugjzHKeC8+C0BnDOy///6OOTOwogHWasEIX2akVieZkZV9fezxw3CZKuj7l112mdkvBIBdDZhlKup1111nhm2em/oghmP4RpUuy+2lAWH2AtS2VObauN6iippqG+ewy8T3CYxM1dSgKLut47xW4Eo1AeP4m970JjPoltk6UD+OPvpoM2Sj/sQ0xcdNVNTivTiVBNBeEoHZ5LD9xIU+xxmFSosRH34U6yj+Josw46xYqlTU4r1a0DwqryaX18QyW5K8r+ZkQd2nvynBQdDEyYDaiJ1MXtgk7aiCCoExNZPtX1owi00Y+U3boEkSpdUFvfJgmpotkBi5jh9NVFScSGT5pS+KPAm/eQ78j3kbHghPGAPh+uL3W97yFuvbcG34xl6I/RtbelCFeQ6OMEwHWmjDpQP5bt0Gh16N56fY+PCbgb7PPvt4uZRrNQb9XO58Y0aoI/WdAjgGwic/+UnLvpq6h4GOZ0+SWS1aAEA8mbQhVV841w3g6PCydEl1s4nQNmwY4ZnxN2075phjaqfzYaEBDLu1rReAk9TlJUGa3aiuvUWhRGbA5t64bRxj34vTodcBOOqTxGSJLJnERdtSPAh6ATi9m8IM6Cmaeba0A0+K8TJgi2lgIcDuKFXSHCTx/xzXBTjGHXwlOiFFH2PmYx/7WCm48Sx4VhYVwDwtA0YWLyILADmcGcwRnE9jUVoFOFYwJmnKIwNTCc+Q+lrbsMhEZjAAmnrZR7JjqDcFcLJ/2fnUpCWvPtIE3qCqQV7sAK6TymyDIDVAwrmxADjFk3klXEzyA6lUKoGBW922MQBZZbs5BHoBOMWxeakztfscnjOO6HNyrgW+Fr8ZX4QoFCXTOgCHZPj1r3/dpLRYEir2Nb97ATj4JzV8FM2MQSQ3xj5G+m7PDrRwHbzAaZGSermuDsDRvzLVWDYUgKzIy/CbUBrCYqpoQ+LHCRXuKX7/9Kc/9VKrA+mjvqFBphmT2Og3jseitApwiPjEYRUbHn4DKniW6OCmBbVNdrRkvdSfAjjc2Eyu8PzwjSrGSzoAt6ZM5noGKeJ4qC/+HguAQ/LEsxw/m8mFt5nwnLrgFvoC6Yr+KUt/zbOaApwCVE0CR3poWpgEgFGZxCEDf4cU0A3g4A0AVGaKiOlrCnCyAXoF5Y7KHQffMG0gPQFUbZcqgEPNZb4dq9CmjTfeuFTwYLGHf93GTJUER/1yrlTOKVTkXsZCPzxrFeDkqTRGxhMP3Rt9mxWilwKwIAWglqVWoBTAAUJIMzEtgB52iKqVqopGOonVqszOMhYAR3tTNiqCVy+99NKe28YAlnNoFM8CD5sAHAsJNqQytaWKx+E/bHIy+ifpYUJhhwylG8CxqAEGdUtTgEOVJHg88Cp8Y2/SDpCeFp06tFYBHOmdvvWtb3kC7FPjBRq/9KUv+ZsV3F1nsQecyoKpiW8jLk5ebtMG6poj6rSxn2taBThALDXxYS5G1V6kt9A4pBJ2D6Q6qghwABfiPBMgGDXDYEO1Qe3pZ9JBj7YaWfByqLf4PUiAY9IhgchLlZxIxF3Vte8EvsbfCuuxCVFsU/jdBOBwJP3whz+Mq290TFsA3JQDhHM4h8LErAI4XjWJalVUabsR0hTgDv/iF+0NXIFX4ZsdGQS1DkpyqQI4HBMY81P8Y27g6EPyDDzsxhP+RzhgvoX2xd8sspiiDpLd8IRf/cpU0jL1us7z+r2mNYCjA/fbb79RgbgwEuMqKmGvUhONxBaBcyL1XtQiwDEweRZppWPmA76896DfgmPiG9/4xqj6ed4gAQ4eYwZg0sRtw4BbZ/tQt7ZjDP70pz89qn6e1wTg8E7zHtt+CxOK7WRxezkGQJGoKVUAh6qMmtakNAW4A/bf35wpMZ1MeOzB/Yz9KrqrAC6mJRwDeDj7sCnTziYFLYztkylbY6if72WlPW0hZxC7UA5VBmTADmcW83gsS2sAx2qbst/ATMV2NVo9UwygIxQjlVyNigAHCKDOpkCA1axfqQLasKUgPRQ7NPweJMCxEmKoTbn5cToABv0WdqDAo9Ce4ncTgEOa7NUkUWwDNs+yHQEAOvRSqgAOiQIPZ5PSFOC0iTy5+LL/somE1IRGru0F4LCHE6oEwPVCGxoMu0JSJqDieAm/EXI21iLF3MA5hEo8KIk25t/AAQ4bBHsR2zCw4qVJidtFgEP3xw6VMsKjtrI3tt8C0GBzCR1Y/B4kwAXv4ooKdSg+k99bbrmlbSTvt22o72zhievnuAnAvfnNb26lz7HDpeIGoeeLUgtDmE8VwOF4aRpv1RTgttI2t1T0AHa5QZZeAA7eATrYy3DgNZUuAcVgH0VoSEUqpMYP59A0iJNFuu/XnFKHrwMHOFYL0D4EUNYhquwa3NTdAI6VgTAKNmnHTAbgCD/otwA0p5122qj6ed4gAQ5gRUpLARwTDDtnv4VFBGdRzDuOmwAccXVNbF5ldKOSK2VRkh4M5EFKrAI47G9KV1T2iOT5pgBH7CeG9phvcxvgEDDw4qacc9BK0HSv/cRiSEiSdhKZSQiJDuCMeZA6xpyFdN6LBJnssJKTrQEcDgRSCsWNwWamHGJ9G/YZcBhEtZVk1DOKEhwMYwdDSkXFg/rNb36zhBX1TwPWiNpxWzkeJMAhneIEKJNO21BRAQw8b6m2NQE4MsigAvVbSG+UMn1AH3ZQFj1KFcARKBuAsC49TQGOLCWpxXduqqjMPdITEbqVcv7BQxJQYPbo1euJ9EcaKjQaJGUypwB0zNNuYLe/Ih2CBF63X5pe1xrA8eCyDBs0NthKmhIYrgdAkVC6ORlgOFJIyslARD0ZI/otGI21Vy8JAoMEOKRTUjWlYsM4R3xcv4XFoSzgtwnAkRKnDYkSDyQBuinAJdYxTMy5DXBs+0oFowMgqMcA5iBKlYrKWGTHACBStgOBHRbMW2LY+im0j/HJPMfeiYe2W/quNSVwHCGHxSBLqwB3sHKSpaQLRPeQULHXxhAeAdNSakBRgqN+mM12nvhabAW4zvtdNRgMJGNMTbpeAQ5aDzzwQPMAl/EorJbYMeJns1qiJvVr1yCtEPs04/o5bgJwhLKgQvZTUIG0cT0pCbBYYW4I9qO5DXAEoqeAGHMCoS4BiPvhR+reKoCDP3iZ0WpwDKS2CNKvCCBEF7B49luYe5hw6Dtl+7U9tcQBplRkxiwOyDbs82V0twpweBYBlnhy0DjUDBrcS2FloIOwq6X2J8YAxzNYsdgeE9MCAKPahInRlB46jiSB2BbjujnuFeAwUO+jzu6m1kE36h+2lfj5gApOlF7bhmTKIpIylvOsJgBHvCKmCerstbCzgjridnKsdPYde5rnNsCR3BJbVEwrvERNxZg/CCmuCuCwE6M+Ulj4qviJCkuiACIV2iq0F4AliSqB96lkFQgKbBMcVGkV4CA05dIHlNDLCT+omy2j2GDiZ0j0Fw+ecJwCODY1E/8UrgnfTDwGIkzvZVXFzpUC8VB/N4ADfFJeQaTLtaSKhXTnxfbHv8kAkpLiUN/Z7cFCwqLQpODAYIcGXrHQlvi7CcBxLwsM/OilAIwkS0hl86BuPKhFx8HcBjgWPrZqxTzjmH4hWWuwF/bCj7J7qgCOsRoAjvuhkQUwNS+gkwWSbVt1JCpUUepiQewW28bYYtuYcsWN4g9aB8LLoEqrAEdDsQOtmJCcYCDZcJlETUCOHPkwMaX6hsGUAjhUWlb51M4HBhyBjqRkqru7gtUIAz/3lUk40NMN4OhIwmYC7cVvaCXEpRvwAmBlIEvbWC2VmLBrPWFQMQAZrGWb2wONTQEO0Ebd5a3wTVRnwA31tgxsUU9RpYt9N7cBDl4y9lPqfeADYRlNnR0ErROSUXZfE4CDRoCJLVyhT+NvnAT8XyZtIuGhqaHubiXPPaCo/HIdfcFzigUVucx2TMbvODNM8d5+f7cKcBBzQcVLMGAmDaKjCcatQn5WEWxdqJrshIg7onicAjhoYWtXVZpyYrVY5RhEZR1KPQwuvKZ4o8okikBPHYA7WKrAcomsE9TBClpHTcAzmAr4DXTgKODlHkgNVSornmnCQgC3KuCm3qYAxz3YFonmp128V6MISvC2WAB24qN4TlWf029xLsFhADiAqOqdD0hOqIGM66rQDMYiY47+O0S7AHCMsXuA7YpxaQpwjAXqJnSLlw6F8RK+MSeh4aABxQV6CLnBjh2uZ8yw6ONQKkqLxXvpc7KZpDy5OKNuVuDvoErrGX0VQuHk3XIKx7DXo6UydSqEw0k0tdeQyQhr2X2lxgK2I+mrJblZ5lt1oKX4TtUTzqlD7JV6ZGQtFg16e8+oQKy0DgXIOoGuZfIVeFlqb7KrapBZNlUx37LfkhmYbK3dSjGjb9m1x+vVdmQ8vlyvz4sL6bgVI+Rok6Qxy/SrQWkZbjX4LPsrKaQ1mZwkW6dBV5qNd4cddrBU5wILe40h94fU2FpALBMwGWR5hR787lb6zeirbTtOsYiWXVg2TMtSS9s0MSyDLbw+//zz7dV6kjRGkQPtmiSWLpt6JBmNXCOgtsyxAtKRc+GHUnhZBluZScKprt/QJS2gUcpy7lGIjZMpxknKTj5DwOBkd3KMO1Kfa8uTpeIPqeSlRtq8IeMyY1+Ab5l+yXxNNl/Sqss4P5JGvGlGX4hibAvknJxajlcKyE7WQSv185pKeMl4hO8Uxhttgy9x4ZWS2p5n84i+JUuyzCT2ik1Jb052bycQtIzW4V7mPK8GlcDT8S7a8H8b360DHESRclwJF+1dizHzikTL6Gh59mVPsnclSpS1nPS8Y1H2vA7GM6lhNNfEpQzguE4vyLDU3qTEhuFlRWEWTiqRTSCpipaynHdZ8h5LhZ2MvFeU+8k3Dy2p+uoAnFRjp1RATl6uMnIM4BhcDHyew6CEPtnv7Bw3yhZn+fHj9OdxpZJiLS28VDtLJQ240Tbeg6nVteNy+Ez7eF5c+gU46mNQa2+ptUXeO2ubJGjrb0k2yedyHzQB+JJMLa04fVQswwBw0AMdRx11lIFtCqSLNEsCN8AHEFhU6QsWGsY/QBcX0uoDFLxbNIBcLwBHvYAx76nlvQx8x+MA/vI+YGlQBsKMQ/oHwUXOi5g0O5Z666QJ2JyWZGfCiiRtd7quv0zP4JnFwvhm0WPODKwMSjREDCdFTUoMDuJt3W/UHGxwZKjAnhHfV6aihrZpwJk9B/E7vrfpMd5TAobLVN86KiqBwqhhqcDQMnrY3EwOtKJ9DrsWxvZuanNZnfF5PLPYVFK7QLi2iYqKLVDSeSu00efY3QgpENiHbu34HgYVNRCETQkTAY61mMe9HuOoQx0kgB27tBYge5ykvNJA6NjJEOgrfmN6QSUlZCOmjXmHaoxKy/OwpWH2aWO8MT70PoaOnH5Futr63boNrkgYNglsbinmxcwsO2Zw0wHE9DBwiNmJr+0GcBjRsTMRDNsPyNEObBeEBNR58XORF/FvHBZsAk8Bdtw+jlMAR53YKtl0joOibl2p+pk8xELh5Ch7p0YTgMO2ctJJJ1nSSiZK6pl1zjGxAQrsPGU2HvgwTAAHPdiYWZD6aXvgD/0KIBBugh2zuMj1C3DQikOHhS08L/4uvgMDTyy7gWgXfRNfW+eYOYjHmTCWQZeBAhyIL1uEBbD2Kslh/GYrCRMZdzIdHTOxG8DBRBwaEudNqozvr3tMqAqR4cSq9QtwDFI6uCz1eExTGcBJ7Ld9vtRV5lmN64qPkSQJY8C5gXTQBsDhwcZhgMecuMFUv8V0pI6RlJEikHppa1kZNoBj7BNQjgc51a4m5/BsEmIFuFBvsbQBcMwtFu4ymohfQxpEUKAP8MQSqoQ2U3ZP1Xkyr+AFp75Bl4ECHMTTIQACe9X2U4bX5fW2p6rGh/+Y+AxsVixWbjwxZVu1cFcj4XUrqHRsm6Fz8ATVXV1RjQijIHwBYAII9I7SZDvqqKiBTgYW21rKIswDL/hGRWOnQ3H1DvUw6EJAJVHzhCrUlZrx0OExI6yGviK8hDYUnx1+xxIcoKPXyCUDOAE4JG5UG7bOsaeU7LwpT1qov/iNRAEdhCDUiR8bS4CDv4cpdKlbgZ+AEgkD2JGR2spVbHP8G82FOcDCTj2pwuJP7r34Xo7rqKjUyfhB4ixLakBdqMZIcvQnH+hhPtJHdecRdbDFkXHBeB2LMhAnQ8pgiKcMA+zN8pRheOQFsgKKEeMmxm1NSvMsycZl787ECIsjAgOnmGrG/nPPPXeUIVoSiL0QF49st0I9ctEbHdCDhwfDriaRvXiX+3keBnANZDOYyv5nzgcMp9BJWxSQa57M+HkYTrlPnR7/lTzGuCvgtPqoU4uBOVegE08UtODQoI28IBfvGwb3VNGEMh7hoNGEN8M9nl+cJBrEdgt14mwQgNgHjzYeOqlB9j+8oW/4xAVvLO0LL+nG+QHtUmtHOVzwDmJ0ho8UAbPRRP9DE/XTVnhJCf1PH9L/8HwlvUQYzyeOiW5Fi4WNK03UUZdqC5XRXaeecLMmnzmacFJJ0gin7Rtv9Moam+voRdR1CrwPjhRJdTb26GtJt6M84LKDmpcZPodxR9/zntFUgYd4XKk3LowV+oEx1K3Ql/QLdfE7voexRf/jjCv2P3OY+aM9zHY/xxIk7HH0KeOKPlWokPUnc4P2hHfRdqOr3//HDOACoQx0ob+5mgkpgXGhwDgaj1eJQRTc0+F/Jn3s7eE/JjwDoGwQhPvjb6mtIy/ZZaJRP4X66BjAFTCI62XAQjdtiQsDg84rA6H4+nDMhOJF0fCECcUzaD8f6tIqaq50QLZOwXtNfbj04Rn1U6iPhYSJBJ9jHvNc2lXsl/A82gUvGLgU6uS6GAD4j3q5Pq6fyQPg4mEElIo8pP/x3sFzaIzvpd6yUkU3NENLoLusjtR5xkXgXfifeujnMNHD+TrfTH7az4JK3TGfaTdzgLEHIHejmfvhaRi7RRoYM/CwWx3hHuqgP+BlPH7DuVSfcj/9CWAzfqEnFK7H+0ufMnbjesN1g/oec4AbVENyvZkDmQOZAzEHMsDFHMnHmQOZA/MNBzLAzTddmRuSOZA5EHMgA1zMkXycOZA5MN9wIAPcfNOVuSGZA5kDMQf+B7rWoU3VuVLSAAAAAElFTkSuQmCC;" vertex="1" parent="1">
          <mxGeometry x="193" y="470" width="79" height="40" as="geometry" />
        </mxCell>
        <mxCell id="LdxUq8u8mY5ZMptnZAze-21" value="" style="edgeStyle=orthogonalEdgeStyle;rounded=0;orthogonalLoop=1;jettySize=auto;html=1;flowAnimation=1;" edge="1" parent="1" source="LdxUq8u8mY5ZMptnZAze-16" target="LdxUq8u8mY5ZMptnZAze-20">
          <mxGeometry relative="1" as="geometry">
            <Array as="points">
              <mxPoint x="349" y="290" />
              <mxPoint x="400" y="290" />
            </Array>
          </mxGeometry>
        </mxCell>
        <mxCell id="LdxUq8u8mY5ZMptnZAze-16" value="Data Cleaning&lt;div&gt;(Remove null , Duplications and format checks)&lt;/div&gt;" style="rounded=0;whiteSpace=wrap;html=1;" vertex="1" parent="1">
          <mxGeometry x="284" y="210" width="130" height="60" as="geometry" />
        </mxCell>
        <mxCell id="LdxUq8u8mY5ZMptnZAze-18" value="" style="shape=image;verticalLabelPosition=bottom;labelBackgroundColor=default;verticalAlign=top;aspect=fixed;imageAspect=0;image=data:image/png,iVBORw0KGgoAAAANSUhEUgAAATgAAACeCAYAAACmTRYtAAAMTGlDQ1BJQ0MgUHJvZmlsZQAASImVVwdYU8kWnltSIQQIREBK6E0QkRJASggtgPQiiEpIAoQSY0JQsaOLCq5dRLCiqyCKHRCxYVcWxe5aFgsqK+tiwa68CQF02Ve+N983d/77z5l/zjl35t47ANDb+VJpDqoJQK4kTxYT7M8al5TMInUCHOgBLTASaPMFciknKiocwDLQ/r28uwkQZXvNQan1z/7/WrSEIrkAACQK4jShXJAL8UEA8CaBVJYHAFEKefOpeVIlXg2xjgw6CHGVEmeocJMSp6nwlT6buBguxE8AIKvz+bIMADS6Ic/KF2RAHTqMFjhJhGIJxH4Q++TmThZCPBdiG2gD56Qr9dlpP+hk/E0zbVCTz88YxKpY+go5QCyX5vCn/5/p+N8lN0cxMIc1rOqZspAYZcwwb0+yJ4cpsTrEHyRpEZEQawOA4mJhn70SMzMVIfEqe9RGIOfCnAEmxGPkObG8fj5GyA8Ig9gQ4nRJTkR4v01hujhIaQPzh5aJ83hxEOtBXCWSB8b225yQTY4ZmPdmuozL6eef82V9Pij1vymy4zkqfUw7U8Tr18ccCzLjEiGmQhyQL06IgFgD4gh5dmxYv01KQSY3YsBGpohRxmIBsUwkCfZX6WOl6bKgmH77nbnygdixE5liXkQ/vpqXGReiyhX2RMDv8x/GgnWLJJz4AR2RfFz4QCxCUUCgKnacLJLEx6p4XE+a5x+jGovbSXOi+u1xf1FOsJI3gzhOnh87MDY/Dy5OlT5eJM2LilP5iZdn8UOjVP7ge0E44IIAwAIKWNPAZJAFxK1d9V3wTtUTBPhABjKACDj0MwMjEvt6JPAaCwrAnxCJgHxwnH9frwjkQ/7rEFbJiQc51dUBpPf3KVWywVOIc0EYyIH3ij4lyaAHCeAJZMT/8IgPqwDGkAOrsv/f8wPsd4YDmfB+RjEwI4s+YEkMJAYQQ4hBRFvcAPfBvfBwePWD1Rln4x4DcXy3JzwltBEeEW4Q2gl3JokLZUO8HAvaoX5Qf37SfswPbgU1XXF/3BuqQ2WciRsAB9wFzsPBfeHMrpDl9vutzApriPbfIvjhCfXbUZwoKGUYxY9iM3Skhp2G66CKMtc/5kfla9pgvrmDPUPn5/6QfSFsw4ZaYouwA9g57CR2AWvC6gELO441YC3YUSUeXHFP+lbcwGwxff5kQ52ha+b7k1VmUu5U49Tp9EXVlyealqfcjNzJ0ukycUZmHosDvxgiFk8icBzBcnZydgVA+f1Rvd7eRPd9VxBmy3du/u8AeB/v7e098p0LPQ7APnf4Sjj8nbNhw0+LGgDnDwsUsnwVhysvBPjmoMPdpw+MgTmwgfE4AzfgBfxAIAgFkSAOJIGJ0PtMuM5lYCqYCeaBIlACloM1oBxsAltBFdgN9oN60AROgrPgErgCboC7cPV0gBegG7wDnxEEISE0hIHoIyaIJWKPOCNsxAcJRMKRGCQJSUUyEAmiQGYi85ESZCVSjmxBqpF9yGHkJHIBaUPuIA+RTuQ18gnFUHVUBzVCrdCRKBvloGFoHDoBzUCnoAXoAnQpWoZWorvQOvQkegm9gbajL9AeDGBqGBMzxRwwNsbFIrFkLB2TYbOxYqwUq8RqsUb4nK9h7VgX9hEn4gychTvAFRyCx+MCfAo+G1+Cl+NVeB1+Gr+GP8S78W8EGsGQYE/wJPAI4wgZhKmEIkIpYTvhEOEM3EsdhHdEIpFJtCa6w72YRMwiziAuIW4g7iGeILYRHxN7SCSSPsme5E2KJPFJeaQi0jrSLtJx0lVSB+kDWY1sQnYmB5GTyRJyIbmUvJN8jHyV/Iz8maJJsaR4UiIpQsp0yjLKNkoj5TKlg/KZqkW1pnpT46hZ1HnUMmot9Qz1HvWNmpqamZqHWrSaWG2uWpnaXrXzag/VPqprq9upc9VT1BXqS9V3qJ9Qv6P+hkajWdH8aMm0PNpSWjXtFO0B7YMGQ8NRg6ch1JijUaFRp3FV4yWdQrekc+gT6QX0UvoB+mV6lyZF00qTq8nXnK1ZoXlY85ZmjxZDa5RWpFau1hKtnVoXtJ5rk7SttAO1hdoLtLdqn9J+zMAY5gwuQ8CYz9jGOMPo0CHqWOvwdLJ0SnR267TqdOtq67roJuhO063QParbzsSYVkweM4e5jLmfeZP5aZjRMM4w0bDFw2qHXR32Xm+4np+eSK9Yb4/eDb1P+iz9QP1s/RX69fr3DXADO4Nog6kGGw3OGHQN1xnuNVwwvHj4/uG/GaKGdoYxhjMMtxq2GPYYGRsFG0mN1hmdMuoyZhr7GWcZrzY+ZtxpwjDxMRGbrDY5bvIHS5fFYeWwylinWd2mhqYhpgrTLaatpp/NrM3izQrN9pjdN6eas83TzVebN5t3W5hYjLWYaVFj8ZslxZJtmWm51vKc5Xsra6tEq4VW9VbPrfWsedYF1jXW92xoNr42U2wqba7bEm3Zttm2G2yv2KF2rnaZdhV2l+1Rezd7sf0G+7YRhBEeIyQjKkfcclB34DjkO9Q4PHRkOoY7FjrWO74caTEyeeSKkedGfnNydcpx2uZ0d5T2qNBRhaMaR712tnMWOFc4Xx9NGx00es7ohtGvXOxdRC4bXW67MlzHui50bXb96ubuJnOrdet0t3BPdV/vfoutw45iL2Gf9yB4+HvM8Wjy+Ojp5pnnud/zLy8Hr2yvnV7Px1iPEY3ZNuaxt5k333uLd7sPyyfVZ7NPu6+pL9+30veRn7mf0G+73zOOLSeLs4vz0t/JX+Z/yP8915M7i3siAAsIDigOaA3UDowPLA98EGQWlBFUE9Qd7Bo8I/hECCEkLGRFyC2eEU/Aq+Z1h7qHzgo9HaYeFhtWHvYo3C5cFt44Fh0bOnbV2HsRlhGSiPpIEMmLXBV5P8o6akrUkWhidFR0RfTTmFExM2POxTJiJ8XujH0X5x+3LO5uvE28Ir45gZ6QklCd8D4xIHFlYvu4keNmjbuUZJAkTmpIJiUnJG9P7hkfOH7N+I4U15SilJsTrCdMm3BhosHEnIlHJ9En8ScdSCWkJqbuTP3Cj+RX8nvSeGnr07oFXMFawQuhn3C1sFPkLVopepbunb4y/XmGd8aqjM5M38zSzC4xV1wufpUVkrUp6312ZPaO7N6cxJw9ueTc1NzDEm1JtuT0ZOPJ0ya3Se2lRdL2KZ5T1kzploXJtssR+QR5Q54O/NFvUdgoflI8zPfJr8j/MDVh6oFpWtMk01qm201fPP1ZQVDBLzPwGYIZzTNNZ86b+XAWZ9aW2cjstNnNc8znLJjTMTd4btU86rzseb8WOhWuLHw7P3F+4wKjBXMXPP4p+KeaIo0iWdGthV4LNy3CF4kXtS4evXjd4m/FwuKLJU4lpSVflgiWXPx51M9lP/cuTV/ausxt2cblxOWS5TdX+K6oWqm1smDl41VjV9WtZq0uXv12zaQ1F0pdSjetpa5VrG0vCy9rWGexbvm6L+WZ5Tcq/Cv2rDdcv3j9+w3CDVc3+m2s3WS0qWTTp83izbe3BG+pq7SqLN1K3Jq/9em2hG3nfmH/Ur3dYHvJ9q87JDvaq2KqTle7V1fvNNy5rAatUdR07krZdWV3wO6GWofaLXuYe0r2gr2KvX/sS913c3/Y/uYD7AO1By0Prj/EOFRch9RNr+uuz6xvb0hqaDsceri50avx0BHHIzuaTJsqjuoeXXaMemzBsd7jBcd7TkhPdJ3MOPm4eVLz3VPjTl0/HX269UzYmfNng86eOsc5d/y89/mmC54XDl9kX6y/5HaprsW15dCvrr8eanVrrbvsfrnhiseVxrYxbceu+l49eS3g2tnrvOuXbkTcaLsZf/P2rZRb7beFt5/fybnz6rf83z7fnXuPcK/4vub90geGDyp/t/19T7tb+9GHAQ9bHsU+uvtY8PjFE/mTLx0LntKelj4zeVb93Pl5U2dQ55U/xv/R8UL64nNX0Z9af65/afPy4F9+f7V0j+vueCV71ft6yRv9Nzveurxt7onqefAu993n98Uf9D9UfWR/PPcp8dOzz1O/kL6UfbX92vgt7Nu93tzeXilfxu/7FcCA8miTDsDrHQDQkgBgwHMjdbzqfNhXENWZtg+B/4RVZ8i+4gZALfynj+6Cfze3ANi7DQArqE9PASCKBkCcB0BHjx6sA2e5vnOnshDh2WBzzNe03DTwb4rqTPqD30NboFR1AUPbfwFwjIMkIb2NPwAAAIplWElmTU0AKgAAAAgABAEaAAUAAAABAAAAPgEbAAUAAAABAAAARgEoAAMAAAABAAIAAIdpAAQAAAABAAAATgAAAAAAAACQAAAAAQAAAJAAAAABAAOShgAHAAAAEgAAAHigAgAEAAAAAQAAATigAwAEAAAAAQAAAJ4AAAAAQVNDSUkAAABTY3JlZW5zaG90tcDkjwAAAAlwSFlzAAAWJQAAFiUBSVIk8AAAAdZpVFh0WE1MOmNvbS5hZG9iZS54bXAAAAAAADx4OnhtcG1ldGEgeG1sbnM6eD0iYWRvYmU6bnM6bWV0YS8iIHg6eG1wdGs9IlhNUCBDb3JlIDYuMC4wIj4KICAgPHJkZjpSREYgeG1sbnM6cmRmPSJodHRwOi8vd3d3LnczLm9yZy8xOTk5LzAyLzIyLXJkZi1zeW50YXgtbnMjIj4KICAgICAgPHJkZjpEZXNjcmlwdGlvbiByZGY6YWJvdXQ9IiIKICAgICAgICAgICAgeG1sbnM6ZXhpZj0iaHR0cDovL25zLmFkb2JlLmNvbS9leGlmLzEuMC8iPgogICAgICAgICA8ZXhpZjpQaXhlbFlEaW1lbnNpb24+MTU4PC9leGlmOlBpeGVsWURpbWVuc2lvbj4KICAgICAgICAgPGV4aWY6UGl4ZWxYRGltZW5zaW9uPjMxMjwvZXhpZjpQaXhlbFhEaW1lbnNpb24+CiAgICAgICAgIDxleGlmOlVzZXJDb21tZW50PlNjcmVlbnNob3Q8L2V4aWY6VXNlckNvbW1lbnQ+CiAgICAgIDwvcmRmOkRlc2NyaXB0aW9uPgogICA8L3JkZjpSREY+CjwveDp4bXBtZXRhPgqvhmTVAAAAHGlET1QAAAACAAAAAAAAAE8AAAAoAAAATwAAAE8AACTPgXLc/QAAJJtJREFUeAHsXfeXHFV6/bpCd88ogSLKOeeEckIJBYRACC0sNrvrcNY+/tl/hn+w1z5er8/ugtklCiSEJJSzhHLOaVDOKM1Md0Xf+2pGSKDR1MBoNN396qBJ3V1d9d7M5Qv33i8R4hB96BXQK6BXIA9XIKEBLg93tR7cUpgpl6CsVBLJlBgNG9WDK9KXUIgroAGuEHf9Kd5z6LkS3Lop7qmj4p0vEbNJM7F79xOzdTtJ2LZIIvEU312fWq/AoyugAe7R9dDf/dQVQKUjuHtXvCvnJbt5vbgbV0iArxNFxWINHSfpV+aJ1b6zGE2ek4QFoNOHXoE6WAENcHWwyPn+FqHjSHD/rpStWCLuykUSXL2gUlMxLRGWeD1HwkxG7FfekuKZr4vVtj0eT4oYZr4vjb6/Z7wCGuCe8Qbk+tuHvielX38lzqd/kPC7GwAtgBqBi8AWBrg9pKSGgc/43nUlkUqLNWm2FM2YK3bnbrl++/r66/kKaICr5xtUXy8vuHdXsnu2S/bz98W/elGBFzFMAZnjihQ3kESrtiL37khw/SIitiKFdeo5piFGi9Zij35J0lNni/UCnqcPvQJPYQU0wD2FRc3nUwal98U9vF8ya5ZKcPKwBHe+Ewl8FaWFrqPqa1b/4ZIcP02sTl0kvH9PMts3i7tioQhSWbEQ4fFAlJcobihm2w5iDUeNbspsMRs31k2IaHX0x1paAQ1wtbSQ+X6a0MmKc/iAONs3in9sv/hXLomABqIAC2lqCJCz+g4R+8Wxkuw7WAEX6SGh54l/7Yo4AEN3xxbxd2+TsPTuI0BnPN9cjI5dJDl6snq92bAhmq2625rvv1N1cX8a4OpilXP8PZwjB8Xdu008RG7+t6clvHe7AtgQufmBGF17iT1wqNgDhondvY/qlP7wloMgEO/UcfGO7hN33y7xjh8WuY/ojx1VPMaandmpuxjde0ty2BhJ9h7w2PP88Lz6e70CT1oBDXBPWp0CfoyRl3fxnHiH9oqzf6f4B/dEkZdZ0UBA48Bo0UbMXn0BbiMkOXRkRYrJhkLVh4oEjyGa27NN/MP7xANgSjkiQRtdVXDoFND1GYRzAiz7DUGa202Mxk2qPqF+RK/AE1ZAA9wTFqcQHwrR6QxuXRcXEVZ23w7xNq0SgSrh+9qZIYnGTcXs3F2sgS9KeuI0ABsAqIYpJZsU7pEDkt26VnyQgoPLF6JaXsKQ0Ee3NYlua6+BYo8YB6Jwf7HadZREGo0KfegVqMEKaICrwWLl81ND30fqeUe8cyXojm4T5+vFEt6+roi6UfsTH9EZNVq3FWvIaDQFZonVsvXPXhLVjd2/S5yln4EYfBFk4VsAOtWOjTqzaERYiOZSE18Wu2tPRI2tJMEoUh96BWKsgAa4GIuU109B7SssLxP/5jXJfrNJsqu/kuDcKURLxVFUhscT6HwmGjURa8wUSU+eJTa6o7V9kCxctnq5OMs+lPD6NTQnonRV8ekQVQr5c+OmS/Grb4rZrKUYDRqKaKCr7W3Iu/NpgMu7La3BDaG4HwDcytevFOerj8UvOamIuA8UCEgVCTz2jPnS4PW3VZpYg7P/pKcGUDyULV0IoFso4dXzqM2hCUHyMEnDuJbQdyQ5/++leBakXy1aAoRR86thevyTLky/KCdXQANcTm5b7Vx02ca14iz8kwSXzgE40BGl6oBHZbF/+Hgpfvs3IOK2E6MYEV1dSKsYUYKS4l+9LOXrvhZ37TIJrl2K6m+VQBZ6kmjSXJLTX5P0pJdxfW2i69Yf9Qr8YAU0wP1gQfL9W1oYOaB7ZBd/JP4FUj7ASWPNi9jGVBC0DRPF/fTsN0D56C1G02aoeSGCqgSXOlogdnFJEnbRZc1uWS/uhmWqi5tIAWhJK8H1KCum9uDPjZ0sqTGTxGyOiE4fegUeWgENcA8tRj5/GZSViXvyqGQ3rBAfXLTgxnVEalkABQr2IOoSMMzu/cQeP0Vx0Mw2HaKo7RkvSphFNIeurnfmhGR3bhF3zRJcKtDYROrKtBX0EqPx8yAKdwVJeLykJ0wRAw4m+tArwBXQAJfnvweMhFwQbJ2dm8Fl26082kQpCQAQVCDgcatXf7EHjxS7PxQIINuasDSqbwfTVu8CeHmH94izdyf4ebtBXykD0LE+hwiUQNeyjVg9QBSe+qokEX0q/7n6diP6eup0BTTA1ely1+2buSWnxQVJ1z2wW3HNQkRCis/GOheAzezYTSxwzOxBI8TuM1BMpKP1/WB31Tl6SLwDALkDe8QrOQWi8P3ovnBPAiF/8q3fSoPZ8xCBNqjvt6Ov7ymvgAa4p7zAdX56SqKuXxXvGHSj+xGx7doKGyMAGykVFXW0xHPNxezSQ+yhYyQ1cqyYzzVVYvk6v9af8Yaqlgh1hbv7G/GPHxCfRGFEeQm4lKTmvSvFE6dqYvDPWN98eakGuDzZSUZkAYi6PiKaLCI2d+USNBCg9WTnkw0E0CmUewdqa+YgKBCmviJWs+Y5B2w/3C7/zm1xoLhwt22Q8O5tMQcMl/T0OWIxzVY+dD98hf6+kFZAA1yu7zYK7UFpqYpgHCgCslQEgPZBq3AVsbE+lcLgFygArAEjJAVbomSXbrl+1z+6fkZ0VEVYrZ6grgAVJqDsDLZORmMNgD9axDz8gQa4XN5UgJcPP7Ys/NaySz8V/8QhABvqTpUOung8YafEGjVJ0jPnSRIF+II8WHMEqPk3r4tz7JD4kKMVMcpr2SqKcAtyUQrjpjXA5fA++4hYyt77L3GWw0ySjH92FCsP1KOscdOkaNZ88Nl6Aujg1lFRg6t8SqF8Dmi6CS+67BKoNY7ur9CyhvL8ByvEeL7+N1YKZZ+exn1qgHsaq1pH52T9qezPv5PsikWI3Oi0wWIbUlJ0Gq1Rk6X4jb8Vq2PnaIpVgYJbZttGyS77TEW3nB9B/zrSSkJYNDX9aI0GuDr6XX1Wb6MB7lmtfC28L+tJZQs/gCrhr2D53490pAQy1OUqGwr2S7Mk9eIYUEDQUCigI4MOsrMcwHb6BGzV4VCCFPWBbhWd5rDsvga4Avh90ACXy5tMSsil82pGgrPnG/F2b5EwW6681KI5CaYYzVuJAe+25IvjJDVsdF6bR9IYwD1/FhHbQmUc4J//FtSRzPfAxr3m/wA0wOXyb32Nrl0DXI2Wq34+mR1E/3yJuIfAC4MDrwugS4AWoigiFNGji6qGu/QZDFLvi8pe3ID9UL4cSuUAMHMg5SL/zzuyH8CGbillaAAzRW5OIYVH9i5ZqB+YouoILl+2/4n3oQHuicuTWw+G5eUY7nIUnLC1mH9wTHHiSH5VQMfJV/gjt7r2FmsQhsP0Gy42uqq5LGeiA4qPCJbmAUrZcHCvBCA1U4SvIlik6kZr8P4w34GRm48OKik0/FoDXG79bv/Uq9UA91NXrr6+TlEiXMns3CruN+vFP3lEAphZPqhBsdAOGomlVAzjxewGwINLb67ZgXuY1OWfgcZ2D0i+SM/Dy+fRSUYXmSkogC/xfAsxO3QUGyMJk8PHwjnlWyn/5M9oNhxUgK8Brr7+AtfudWmAq931rFdn8+/ekezmdeJu34BpWKeUJbmKbJi+ol5FQLDGTpXUqIlid+slBiRbiSToJPX1AHiTzEtZVmbHZvE2roTN+YUKGRruCTloAlGq0RzgNmycFMFW3cRQaToSZwH4GuDq68Y+vevSAPf01rbenNm/dUMyG1eLA6shmkcqcGOkg5pUiE5sAnNJkxNeltS4ycq118Bc0joxt4y7Qkg1aZsU3LopGTiJZBe+L8H1i5FPnTLhxI3gs9HoOSXVKl7wKzGhaHh4doMGuLiLnV/P0wCXX/v5xLvxrl1VE+mdz99TgEFzS5XSEUBgFW40f0Hsl2ZK0czXFa2Ekc8zPyivAlHXwYjB8r/8ASk31Bp0CanU2DLlRtRp9YO+9s1fSapX38desga4xy5L3v9QA1zeb/FDN0h6BEjAAQjCpYs/EXfJXyLi6wOVAyIhPCfRtIXYM+dL+tUFEEgABJ/REWQzyhEl8yUUCAd3Vlg94WIYfYLXxvGC9vAJkpqzQFJ9BkRqjSoG0WiAe0ab+IzfVgPcM96A2nj7ALW2AOaPscf4AcToPOKhMF++fLF432wQKbsXyb14QQAQ1rISTRpLcu67UjR6AtK/xrVxqbHPkd27QzJffyE+KB/k9ik7ddVAwCAcpKvWUPD6psxQ7sOUWyWqob1ogIu99Hn1RA1wObyd/EPPrMOoPdiQM2Wz4MqbnorCepPnY90VpUv+lUvi0cp88xpQLXZFigjVaCBpDEV7EIXNNp0kibmkycEvwjsu3rljXcBjnpQ9DB+7tV8paVVwDeMDyVujeQBAWWAJZXTvKymk0XavfmK2xjAcjg8k8FVzZGBIUP4JBuycOqLWSndRq1mwPHlYA1wOb6SPKKzs/f9WzP0ELZGQWhpdYWQ5ZIykR42Poq4Yf/yc1+BDAeAeOwjKxXZlBx66MI+EE4kgDeT8AwNgYvUaoCgXdt+BYjRsVGsrF2LYjYfOaHbDSvFBVFYdX9qR89pRH+Rno2U7NS/C7jMIHV8MgG6A94/h98axiO6RA5LF/wi8vduhQYX7L5srmuhba/tXn0+kAa4+704110axfSnE9s6KxeCxQZlAMi+oFEaHrpEV+ZBRUQoXc8YCKRju2ZPi0eYcbrneMThvkFLCuhbtwIswZR7DXcwBIAoPfFGSPftEpNpqrrOqh1kP5HhAxWU7DFt1RG/hnZsqwlIohBdyzoKJWRHJvlBhDB4hZkz3D57bPQ7S84Ed4oEA7GM6V8g0nPeDyJXdYy22r2pn8ufnGuByeC8fATjlJlJxM/jjDpHSWb0HKlCw+w1VriJG4yax7lZ1LQEK7o51SF8hVr98DqDAuak4+Lkhptyrcw/DLAcAT6euEQhGz6j2Ywgg9jG93jtxGDMj4D4MR16+B6NQNUCGRF10dC1EoxYcepMANqtdh2rPyycw7fYunMdwmr0YTrNdRYRh6R1cHzrCzLoxs0GBJs7d6Lf/KolajERjXaB+Up2ugAa4Ol3u2n2zxwIca1WI4hh1RWkmKBR9hoo9cgKiOdatQHyNM1aPpFrW+DasUoqIABGQcuUgwLHkRXoGokZr5GRJjxwnnPFgNmsRdTKfcJv+7VswnDwD8IECYccmJSdTcjHSPnDOBLls4LCZQ0dj1ulLYnfs8oSzff8Qhfbk+/klJyWza5v4IAHTEikasoPnYT0SGC9o4nxUcaQnTBWzEdJcRnT6yNsV0ACXw1v7KMAhRUVNKlHcSKWVwV3MYyDQ8aBVUDHSy4HDJYVJ8DbkWQbBiKlnjMO/CaIwp8xDERFc/Dbqaqph0UA6KiLQlLBnvCFp2DJZHboApBor9cCDUxMsaSkOyRi7o85qEI45DYvvT2DjdXLsH15non5YNHOuWO07RT52D07y+C84i4IDor1zcBGBqaWzerGaRZFI0kwgaj4odUObtmJBtpWePAvd5hcefzL907xbAQ1wObyljwBcKol0C6njy/MQAbUR58PfRxEXgUgd+MzJ9aBTWKOnSPG8t1XEZQD44hTreQoXc0kza5aKuwnR0e3rqPlFAEKAYrSUaI6JVtNflRQmzVuUSCHlpCA+vH9X6M+W/fTP0ISexjBevI4kYx54LSkeZo/+UvQ3/4h0t1s8AwC+J3hyPjSpma3rxVkF0LxY8v0sCuajiM4MAL6FDnB62hyx23dUb6k/FM4KaIDL4b1+BOAQRSUaNZHkvF9JwzlvIL3MRGReuNmGNy4jykJ9S9WhkMIC6Fhkt+f9Whq+8Usxm7eswSqEqsZVtnShOIvfB4YAqFg7Y7SkFBHlYpBWMgsR3aTpALTzUvY//6ZG+ylBP6M2dkcZVQKEzJ4Atnf+WVIDBkc/j3klvL/yVcsk+9VHEkBnq+p3ato9gA0OKgQ/+5W3pMHctxBVEtgqwDjm+fXT8mMFNMDl8D4+FuDeiACOf9C0T/KuX0bUtVxc0CSCG1e+tzZn5MSUNl0k9vS5SN1mi9W2fbzVQFRGN+Hg2mUp/eIjcdd8qc6l5kIQSPgfKRysbxH0WLcD7qhIkQoEpLVW/6GSwryIFLh1lF7VxLapbN1Kcb6AHhVE5ZAW5DxwP7Rq52GNnS7Fry2A0L6CJxczFVcv1h/yagU0wOXwdj4R4CqK5+wqUprlgefmgOzqIMUMS28DUCoMLwFACZBlDYCBPXqSpCZMFytmRKfOfeM66l9noDqAIgKUDAHwKaAjoJHDRrQz8I+pKpoWJrqurAMmQf0wWrwQEXVj7AH5bFl0dp0vPpAA1JLg7i11TnV+AhtqeFZvnHvmaxFPjjVGpaXFe+ujYFdAA1wOb30cgKu8PdVlRJHfO3FEsrQ3X788UgeoWhjQCMV+2iXR3tweNEo5i5hN4tFKKh113eOgfWxbr/hzguiRzQdlD46ozWjXGcA2HbSSQYpLZzSG9CtGBzPArAmX1wy1hvK2AyFYqRqY5pKEDGAzu/UFOE9UnD+rPYbsPEyZqVwA/bkgV0ADXA5ve00ArvI2GUV5MH90wBPzYBbpgWArqFc9qM+hTqd4YpBC2TCKTA0aLgZpJQSUao4AzQTvzClxDu5SqgEfpGFSMyxQPpIDQFXph6gNpOM43dsA7ibeKRpagvLBay05XaGXBWiSooKU1OzRV3WGk/2HiNkZNJWYhOZqbkM/nEcroAEuhzfzsQD35m+k4ezXq42OfKSMHqy+3T1bMcPgAJj+Z5BegjdG2gYVEaihqcio7wCxoIiwu1IehY5rjMP/7qaSR/lnjkniOXjNDR2Frmobdc4YLxf3zEkoEHbhH9QNcCQOb0PdQFcTpUf1xUCn1eqJqA3aW8rG4qobSGD2Ss6ID6qL1Q+SL3R6FVUlzkXp5+TkCmiAy8ltiy76EYBDJ5OjAq0pc9AZfQdaUYrQqyexkp/mUE2weytmFgDo0Dh4ENExBQTNhMRYewiG1UCLyuE1cYCOSgoCZaKSDlLdOuP5yoYcYvjsbk4I2ybhdzciom7FaxNNmokJ1YQ9AhZJHIVI2RabGdUcqtmC1NYloFPdcPaEWJgy1ujdf4q85ap5vX44d1dAA1zu7p08AnBFaBowvWzdQdLoijLCsdq0i2YtxEgveS4HoOLAVYSppYqa2PpERBdi9B4HuVhDkGqiEWH36CNmi1Y/S4dauezssNK6ieoGApu76svIWp2UFl43/4MG1mjTXsm20mgimM/DWp2RZjWH8r6DJMzF7IbsNxvFw9StEARo2rKHaFpoLWo1C5gHD2uAy+FN5MyFsr/+L8T2n+MuiAT4h6iJf7zWiEmSnvEqOoqYtQD7JDVpKsa9+t/dAhhsEmfJh8oiXHmx4bQ8wqwDMnFjsRH9pKe+An5ZJ8xZfS5WFBWd4aGPiNjYGfWvXkIEuUsyn72vyMOqu8uuK7uwmBlhYHiMNQg2UHPeFDsujQXd2+Au6oGYuJVZs0y8besjwAYZWkW1eG/tJvLQXuTxlxrgcnhzWUfLkvpBx9uje1S0pf6ACXQku+KfPR4s/lcWwPmjYkRgjMiHS8LuZdmyReJ89kdFmo1SQSIdkIeKCDQe7PEzpHj+O/CIg+EkO6YxIkWeW7mI3P5OAWl2ySeQbZ1AqohGBq+NfDamtqR9jH5J0uDKJTHeMNaB14bo2NIVpfRLOBYvXyhSCgcRXtvD960BLtZy5sOTNMDl+C5WpnhZ+LgxCqKhY0J5pVVEQQQLpJcmdJhFc9+WZPde8e6YYAGdZwDftNJFH4u7cpEIa2IEi0pFBICCR3L+30mD2fNUh7S6kxN0yzeshofdpxKcPhqdi7VCYmelwmLSLFzrL1RjQ9XwYtTZ+L7k+5WB1Jz94N/xDX5AUOO5yccjcKqUF99rgONyFcShAS4ftpl/sKBVsEGQAdBlP/8/+KrdAB0DnUeCA9M9sPkNTM8yB46IwCOm/RCBgRGRh8nxSnC/bR2K/xiuTP85ohIep7DdQF3MmvKKpMdNEQtuII87yrdAM7rsEzh+wJuN1BREoAp0QPsIXQ/NjLFSBJmZhS6pAedgRnFxDv/mdcls2wih/SKMEbyI6JUysOja+D5GM9QLYQbKtDS8eUWth05R46xs7j9HA1zu7+H3dwDA8AFGlDBl4KzhroVqAWAkxsMF+wbgudGOaIwUw7VDzUJ9OH37/myPfKVSP7iKuKeOIS1GwX77JgDG3ai2x+gIgML6nNmxm9iwOUqNGKsmc5F355w4KpmvPoZm9CTqeogCmeISgMhnQzRIOkpqcoUNOegkar5CjHQ3uIO5r7u2irNlrRoCHd67rdJb1RjBHIdEuhi1yImY+zpBgtu3JQsr9OAMosYEGifa0feR/c3XbzTA5enOepAzeeCQ0fTRg3IhvH5VFe2jyAbyLBTvzQ6d0TAYj3+wOYI8KxEHVNgYQJTkHTsMEi44dAA7dVAWxYgM6bCBc5k94D0HsAvh/+Yd3oMu6VkAWzZKG0k/AagqMATlgwRgC/QPZYMe5xogB3Pg+ebs2iIB7tG/jqhMkZWRktI+KfTVtK3ksNGwWe8vFjzwnEMYO6gn2+fpb3vVt6UBruq1yflHlLvtuRLwv/aBNLsTPLfDUURH0iyjLoCBAf82E7QPe9AIZQtuYip8nIOdWheqBXc/qB0H9oGQe1CdT9W9UPcTNZWrqQKe8BaiSNbu+HP843tacBlODhgGOguAsFnzOG+pmhPOkUPg7GGqPe5JgaYaSgNg47ktyLa69sa9DIGYH/fTrUdkn4Sz66lasZY4756kAS7vtvTHN8Q00YXBpIt0jsDgnTmB7uLdSB3AqAsHHXktzFmwIXsiz82A9VK1B0CSTYPsPqgOSBQ+flB8akUZTam0FyDKiKwCTBMQ9Csb8sGYFQEJWFW1uh++L62dvIvnMAyHNuSQgR3aHqW5TL0JbIwaoUqIbNRHSmrYyIhg/FA0qAHuh6taGN9rgCuMfVZ3qSZMnT4hzvqvxTu6PyrIsw7GTmOAz1AdmF16SRKNAhs6T6oGDM4bfQgoqlouyqCyOzYDRLeIf/o4am2I2iqATtXm2nUUcxiswlGfM1u9gLdE1FXNQWBm+kmxvUq1t6wBsKGBwOYDgY3EZjRODIBzErrZ5MjxsCGHiP8xhwa4xyxKAfxIA1yubzKjKAAJ6SJxJFS8XUZdmX27xWHhH7rM4A7szRXQIdpC2qoK/70GgYP2mupomrA1istz41yELDqa7qbViObOg7LSAAoEdm7hz0b1QwxvNkVPwTV50Mdmt64XF00EKiuizi1vADVEAJnxQvuooTFqYrXRoAY47nzhHRrgcnnPAW4EJweuGyGIuSmM8yMHToFRzPsqw6wFZyk4aZBKRcaUEbdNcdJoTDl2KqgbUBEgmqNvXFxtKZscFM1z6nyqV99YVxMSrCvUDZl1K8TF4JgAhp3KrZddV/BdGPklihqIDQJwGr5ycdNczmtQTYaTh1T6rLuosbYk55+kAS6Ht5ApZ+kf/0OyMIEUcNHM7r2l6N1/kfTAIVENLEZqydsPME8hsx7k26XgqJ0+BkAhmReNCB6I9kLfEXvyqwC6X0gS4/ZUyhrz3NFJqv9Icb4HQM0s+VRc3I+aj4ramqrlkahLagk4ffar70j69bfFpu1SrGtAHRCGAZmt66X84z8ByE9pgKt+O/LmGRrgcngrKZAve+93kv16USSqZzHfMtGZHCRFv/wHsbt0r4h+qrlJRk4AFxJmWUfLAmSCC2cip40HIIK0kENtRk+WohmvY5xf52pOGv9h1u/Kt4IE/JffqwE1IQGtImITB8AGGZc1chJsyDFfAQN1BDbryhI9xlt4Vy5J+bLPVTQY3rmlQFIrGWIsXJ48RQNcDm+kEtsT4DAAJhq6gq4iwQGcNANgZKJbmZ42O5I8xVEFoI5HDaqPjiVdf7OLP4zIvLQ3Z4aIDwmbHcs2Yg2D6mDG3BoOrHl0samQyO7ficExn0lwqQQuIujsRm+k6oRMielFl5o0A2DdQ6W7kQ35o+d53HceTAMyyxeJt2sTiM8X1PlUN5f/E2BUCi1X0w9WqnM+7vX6Z/mxAhrgcngfWYz3MOiY7h/uNxsUmz+RRGoJpj67jIkGLMRjQjyALoXIy+7aPdbdqiI/BzSDWlKOc3tbVokgyiJwqoN1MA5oRmfUYmcUtTDVvaQsLMZBEHUO7BEHsi//5GHU2UBC5lwFdlY9dEmRHhPYkiQh94Q1E6K2WDbkAHdGg5ktG9CYWCU+5GXhPTRQkP6qgw0UeuaNmiRFo3FuGGbGlYPFuC39lHq4Ahrg6uGm1OiS8MfL1FLNQ4DtkAtPt+DqhUhCRREqHqcOk5beNpoQNkT38W2HQnHPlYh3/ABUCzCKBA9NpXmVQIcLNVq2xbm7qPOmYE1ODWlVR4g6mkMuG/h4Pmgq/sXzkYswO6sA5NCBHhVa2eTQEWL1xewGKC3idoaVbOvQHnG3ontbchYR4beIZnH/BF3W7wDIVp8BkbswjDvtzt2qukz98zxaAQ1webKZBA9yxhzMWXAxE8EHoTe8D20mOW488MeegOjc4myEPgPxhz4aNkcAoxhRFyM69+QxdV7v4B7xwHMT6j4rbMT5uNm1l5Jc2VQnkEMH8f2DA+DlnDwON1049QLgPOhZpQwRIYGNIIRrpLrBBqgpG/Le/SPZ1oMTVP0Fgc2FK4m7b6fi9pFsrO6ZjifkzMEs0yKJmQRmEpmVbRSaKPooiBXQAJdn20yqh3e+BM68q6EXhbLg7ClQSFDbYrNATbkH0LVqJ8kxcOZFJGNRtdC4SSx+miIKQzjvoBHhI6pTcxwcTM9ix1WlmJjj0B2zEoZgVgKkWCYmyXOqvXdkv2Spid25OSL/MgIksIFYTKcPs1tPyKugQBj3UnxiMekkcCVxjh5AnQ0KDVwPDQFUyslroWyrXSdcTx+kuohaCZpVkIDz7FdA385DK6AB7qHFyLcvs0cPirt+BSKbfahzXQPH7H4UsQFcOKdA/fFjDiojJ9bTKHaPQ71Qo/yOH5LMisVqqnxwDWJ31rkIokwHUQe0MP/UGjoSjr1QIsBLrtL2vDJiY0fWZNQGQXxqwrRHI74nbASjRf/SBUSRcDXZtAYRIaaCYa5ENHSaKSkaIUzJO3ST1EuzovmrAHB9FOYKaIArgH13Du6TzKrF4u/bgYn0ZVHqxtQUYEE5FOteNuyKOIzZAjGX0+7jHATJDOYoOIs/gMPIJXRcATQK6PBqerwxkgLoKRtyYJ/ypYOPnNGsJeaYwq13Ioi6bdrFeSt1PtJi2OEtX/YFosGN6IZC88qhNsA1ptq0RzJa4twzF0gxosG49xHvAvSzcnEFNMDl4q79hGsOAEZM5zKLQebdvxVpJdNEnIhRF2gTPCi2T81ZICmM1CNxOC4lg68tXfoFFBEfRfpW/oB0D56bb8L3wQeqIOwZ86Vo+pz4wAbAZOrpI0osWwoL9S/ei5QarP8pSgnPH4rRqq3Y0+ZK8azXozSXb6mPgl8BDXCF9CsAsAgwoyCLBkT5n/5TpZdqGE1lV5Q+bbA1MnsOlvSCX0u6P4Au7oHan0/C7uql4iz/HBrXkoibh58zrbRnzpdi2JCTqJsgOCnwq/7klHzxnO7iv8K1GBEiamvqtaCEMIJkF9eeBpUF+H5WU9guxdC6Vv+u+hn5sgIa4PJlJ+PeB+tviNhIsqW9ucM5DpfPIcVDR7MSHFjHSjcQE4X/4jffRbTVNp4GlTy0MhT/USPLbl0nDrh5Zuv2kn7tl2J36AQlBLSsjBxjHJyRmkH9UOlRr1xAigr3EIKiun649TZqKvbEmbBInywWVBVGcYOovhjj3PophbMCGuAKZ69/dKcEuQBj+7J0x12/XAnuVbG+kr4B00qzKYYtD8OYQNToLDQi4rmBuGoADN18BXZLJizS4xoAUJ2R3bAyIi6fP6usxZXDCcGNDQx8sl+epyzRrY5dMOgGM1JppqkPvQKPWQENcI9ZlEL7kX/jmuK2OXvBoSNR+NK5SHDP2hmaBcreHDNJraEV6gLQP2r7II8vs3ktgA3qhrOn4Sd3TTVBVNTG1Blgy8HT9ogxYoOKolJdDWy1vQ15dz4NcHm3pT/thhT9Ap1QF5w1F9QLb/9uCW5ciRQRSAthKSKJltCgwrHE7j8cXDeoDaqYnlWTK6C0yjl2SGlG3eNHVF1QdWIrurwCayQLJpzWEJB0wa2zMCPVqEyla/JG+rkFuQIa4Apy26u+aeUqwhraTmhQaW8OLp1kUdxnjQ6KBB5GK0Rzg0EtofIA8i+T0+1jNg0q3zm4dw+GlqcVmLrQpXqHduEUoK6wRkd6CagqZvvOsCHHewwcBnAbJAaGTetDr0BNVkADXE1Wq4Cey5TRLYGj7pqv4BF3FPZJEK5DPaCArBLooBRIjp8G6Rf4c51hbw733gfSsCrWivNbvUvnxT2K4TGwNyewhRzxB5eSyFUYsi3MV6D0KzlyPLh5w1Bn00TdKpZT/7iaFfh/AAAA///0iK/5AAAk0klEQVTtnQe0JEUVhmsjC5JRQBBBBCUHyUqUJBkUFRQTmBVzRkVBxIjxYECCEQWVjCAggqIISFJAQXKQnMPusrvl/12sd3rqVfd0z/S8nd1Xdc6cme7prr51q+qvm+r2BK/icskcqODAjKuvcDPOOcXNvv4aN+fhB52bMd25iROcmzPH+Zkz3eS1N3ILbLezm7zq6m7yMsu5CQsuNLo2XTv7/nvdrJuud9MvPNfNuuJi5x572LkpU5+5VtVNXHQJN3GZ5d2UHXZ3C2ywmZu0+BKj68lnMgcacGBCBrgG3BrHl/qnZ7oZl1/iZpwtoLvmcudnP+3c7DnPAN2sp52fMcNN3mRrN22nvdzU1dZyExZa2E2YKvASsM154nE358H73BNnnORmXXiWgO0R5/hvwkTj6ITJk92ExRZ3U3bd1y207U5u4sKLjGNO56a3yYEMcG1ycxzUBVgBdNNPOd7NvvYKN2HaNAGVxC+nz8wZ9nvyRlu4aXvs66auvpab89ij7okzT3YzTzzKTQAQpywgUBSwzZnt3KxZAral3JRtd3UL7b2fmwSwWV3jgJG5iWPCgQxwY8Lm+eghsmh4AdOcRx5yM6681D113JHOP3S3m2DANUkNlcVD10xYZDE3YallnBcg+vtuF3BNGWGCn/6UgG1JN3XLHSXx7ekmL7u8m7CAgC+D2wiP8o92OJABrh0+jr9aUD2fetLNuf8eN/2Si9zMU48X0D3gnNRNN1FAh1DHt64zaU2//QwB27QF3eTNt3fTttjeTVl51WeAkHtyyRwYAAcywA2AqeOqSklrsx960M2541Y3/dKL3NMXnef8vXdJFZXEZjY2SXTY6J5+2k3ZZhe3wCabu8mrrO4mLbX0M+rtuGJWbuxYcyAD3FhzfD5+3qy77nCzbrjGzbziEjfrqsvcnHvuNIlt0lobuskbbiKb3Hpuygor2rn5mA25aUPEgQxwQ9QZ8wMpXtLarNtucTOvvszNvu1GhX7IO7r+pm7yGuu6SUh1uWQOjCEHMsCNIbPH06PMPvf4Y89IcIssOp6ants6RBzIADdEnZFJyRzIHGiXAxng2uVnri1zIHNgiDiQAW6IOiOTkjmQOdAuBzLAtcvPXFvmQObAEHEgA9wQdUYmJXMgc6BdDmSAa5efubbMgcyBIeJABrgh6oxMSuZA5kC7HMgA1y4/c22ZA5kDQ8SBDHBD1BmZlMyBzIF2OZABrl1+5toyBzIHhogDGeCGqDMyKZkDmQPtciADXLv8zLVlDmQODBEHMsANUWdkUjIHMgfa5UAGuHb5mWvLHMgcGCIOZIAbos7IpGQOZA60y4EMcO3yM9eWOZA5MEQcyAA3RJ2RSckcyBxolwMZ4NrlZ64tcyBzYIg4kAFuiDojk5I5kDnQLgcywLXLz1xb5kDmwBBxYJ4CuNmzZ7vHH39cL0DnrcLPFM9b1HW8gN6MzieXseMAvH9a7zt96im90Dnqk0mTJrlp06bpPdDz/kudGXfTp083xk6dOlWvfB2et4PBf2iboxdsF/uA42c961nG/+L5sRsdw/GkeQbg6LCHH37YnXnmmQZkEydONA7OnDnTLbzwwm6NNdZwL3zhC4eDq+OEilmzZrk77rjDXXTRRY6JX+yTpZZayr3kJS9xz372s+dpbjzxxBPu7rvvdv/5z38cgL788su75z//+W7RRRftAJS51Uj4f80117j777/fFpRAB3RvvfXWbrnllpsvFpnQrsbf6rR5osyYMcNffvnlfokllvCSDDo+W265pT/ppJPmiXbMT0Q+9thj/sQTT/QCsY7+oH923313f9VVV83TzZV05I866ii/8sorj7TvOc95jn/f+97nH3300aFo29lnn+133XXXEfqKc+PUU0/1ArqhoHNuEcGqNE+UKoDbZptt/GmnnTZPtGN+InJ+Bjip3f6Pf/yjX2WVVbxUvREAWXDBBf1KK63kP/rRjw5FV55//vl+r732GqEvA1xnt2SA6+THmBxJrfZPPvlk8iNVfExoaOMh8zPASeXzH/nIR5IaA4C30047+fvuu68NNvZVByD8yle+MgNcCRfnGRsctjZsDdtuu60ZtYu6+GabbeY+9KEPOYnqxdND+RuD9fe//3133nnnddCHMV6SqHvd617nFltssY7/hvUAh89ZZ53l3vWud5nzp0jnDjvs4A499FC3zjrrFE/PM7+xux144IHu97//vWPsxWWTTTZxxx57rHvBC14Q/zWmxxdccIH79re/bbbp+MEnnHCCzZeFFloo/mv8HJcA39Cdnl9UVOw673znO0etuAI1/4EPfMDfe++9Q8f7MoLGqwSHGrjddtv5Bx98sIw1Y3Y+S3DVrM4qajV/Wv+3CuAkhWaAa53jvVWIDQ771ote9KIOGxzg9uIXv9gfdthhXtJ4b5W3eFcGuGpmZoCr5k/r/2aAa52lA6tQ8WX+C1/4gt9tt928Ql78uuuu62Ui8Ycccoi/4YYbBvbcJhVngKvmVga4av60/m8GuNZZOvAKL774Yv+jH/3If+973/OynXocEMNSMsBV90QGuGr+tP5vBrjWWTquK8wAV939GeCq+dP6vxngWmfpuK4wA1x192eAq+ZP6/9mgGudpeO6wgxw1d0/V+LgFCDpbrnlFnfnnXfaHjqFgNi+vuc+97lu1VVXddoa4+LYnUHFwbGXTwZjd9ttt1ksF5vE2dsKLSuuuKJT1HpyL5/Y6ohpK24m55iNzWFPZirYiD2CCgdxP/vZzzr+Zi/nq1/9aifvnFtmmWVG/mMPLh9K8VkjF5T8YJ8oPA58JmYttI39iYrQt32VnKtTUm3rNQ5O4RVG16233mr9T9/Cs9D/7PVko3gVH+vQzDUpusO98Ojmm282WqBphRVWcGuvvbZbZJFFwiWOa+BRWxvWoYfxz3gL4z/E2WmXhPUJY+55z3ue8WCEkJIfYxEHBw8o9EdZn7BP/PrrrzdePvTQQ8Y3eZytPfJEW7xgWzwsYUXy9JgBHB1LZ5xyyinu2muvddrLZ1kQJNGMTGCygTCwATc2Cms/o1t99dUte0NbAAcddMDvfvc7p/2rNsG0q8CCh/mPApDQOXyg5VWvepXbZZddbOMyHUxn/uEPf7CA3WKnAXraNuP23HNPm6yKabP2/vrXvx5hPs9g4/Y999wzco4f1KN9jgbugF0o1MnG7pe+9KUWzBzOp74ZiOGZ2qNobSPTB9km4rbRrmWXXdZoVUyXW3rppa1KAlzhzS9/+cuOR0DHG97wBrfHHnsYPfzZFOD+/ve/Gz+uuOIKm+TQRr9SNyX0PxN9iy22MJ6TRIEx0a3Qbuj+xS9+0XEpdb/+9a93ivY34GKxoP/pkzPOOMMBbNDBOCRQnKBlgI7rHnnkEfe2t73NKd6vo04WiJ133tkWpI4/Sg6o6/bbb3eSthz9ArDRJ3yK7WdsMeZoP58NN9zQveIVr3Drr79+afB3GwAHDSy4JLKI20qT4OHHP/5x97KXvaxjQz/33aJF9Pjjj3d/+9vf3AMPPDDCS+4J7aH/aA/9wDwa0wQMImSghQDdq6++2oJbBVpeg8Nrco0KdFXHdpyTJOc1iPzXvvY1r9XOtxHoi/frN7/5jX/Na17jNXi8VuqOZ8Y0hGPCAwRyXpHhXuDmBU5e0ePJe9nec9NNNxlPJaH4T3ziE8nrQt11vuEZwcFVRcDkf/KTn/i9997ba/dArbYtvvjifqONNvJvfetbvXYkeAGWl0TjP/OZzyRp1s4Er0E8QkadQF+BrsX2ETdGuAUb1wXYyfqLvGAP6I477ug///nP+yuvvHLkmWU/4DXXFusIvzlPUC4bz//85z9b/9OnktQ7rj/ggAP8jTfeaI/QguDhKbwP9YTvNddc0x9xxBFlpIycD3UceeSR1i8bbLCBX3LJJUfVF+qNv6VB+Je//OW2uV9gbHNgpPL//xBo9rVVi3kFfZtuumlpvxx88MFei7KnL0NhLmkRtKQKyuIzipdxWzim/W984xv9OeecY2Mt1DXI74Ha4BhUv/3tb/2+++7ridRPNbrbOUlwNuH++c9/2kBPDZA6m+2JW2JQbrXVVj3RAZ2SKry253htGRsagJN0YAsIg5BB2o2fqf+V2sjARCux/8c//tEKwLEBnGwi//73v/273/1uA7YYUFK0xOeYPADwGaefXjkPqgAOYGZRInBX0nUpj9oEOPYa//Wvf/WSCP16661Xa1GP2x6OZbLw22+/vf/sZz9r8XfYcUPpB+AAN20btEUutdizELHYwdsiuMFLFlPmQ6Cx7jd1so8XQUMScmjGwL4HBnAgPBIPgZF1G192Hav+e97zHv+5z30uucp0A7jrrr3WVve11lqrb1qkKvoPf/jDXvayZF1jLcEh3bADgtW+jH91zwP+ZMlAck7d00SC23zzzU36JrVQqq4m56Q++92UEggpBqkoVaoATuqVl/rl3/72t1fS0hbAIdkSL6d9xZXPa8IDrmUhev/7328LLEHIlF4BTuqll1pq4JtaeABVxjkSe5Hn7PA4XYsNc64p/cXrAeyTTz7ZQ8cgy0BscNhmxHjbBPynP/2pxDLxzGk12uw/IRsvRnh0ea0uHfehz6PHYy8TQzr+q9psj03pmKOPdj/+8Y/dbbKDVBVsXSRqxAaHPQt7BDYabCh1y3vf+14nicWMqjgwJPG54/SZpDop1Itth3akCvad2PDP5ns24n/lK1/puAUDuYJP3c9//nOjs+PPwgEZaDGcU09oG3Yo7KBN2nbQQQdZ2yRFW+1VNjiexQdjelwCLfQ9fQkv/vvf/8aXdRxzrdRK953vfMdpq5Ql2CxewHOOO+44d/jhhxdP228Bt9kNFbBrtr9RF/z/BDaiT33qU2YHhS84A0jayRgoFhKrCgzdBz/4weJp+40t7y9/+YuT2ueUj23U/8UT9AsOLfhEn2PTkmBgtrl4jHMf12OTltnGSd0z+3AvNjj6DRsybYVv0Fws2MiwJcNLbLVFOzOOBJJFMO7igh0XBwnjg/lKv951113mfIiv5Rg7JmMKHg+qtA5wdMwll1zivvvd75ohN0U4HQWQwBC8RRhTZQ+yS2GI1CTLFMtvJmK3UgZwDBgm/w9+8AMndSlZDQZQvJY8H28PXjQmEwArqcDJfmiGeyZgGSgVKy4CHBPjQjlWLpdxfarqpGDQJkOFVO7ibTYg4MdrX/tam4xF4MHpQNYKvKyhsBAwiY7TpJbNL5zu+Gbi4Ejgg9cU7zRtw7j9r3/9ywYeCwAOD851K00ALlUXXlIcKXjK4TUTgfHC82UbM/5igAd4WQjiwgInG6OTqjbi8AnXVAFcuCb+5vksasGpg5PhHe94h2Xs7RXgpJK7r371qzbu4ueFY8Y+Y46PJG/rFxZ4FlTGKQ4Txj19Ay8o9Ntqq63mJFUZMAA8lKYAR30XXnihk2RtfC+OM+qDJ4Dbl7/85aRzB4cCAIujsFiUiNaccThzoJM5TjugjzHKeC8+C0BnDOy///6OOTOwogHWasEIX2akVieZkZV9fezxw3CZKuj7l112mdkvBIBdDZhlKup1111nhm2em/oghmP4RpUuy+2lAWH2AtS2VObauN6iippqG+ewy8T3CYxM1dSgKLut47xW4Eo1AeP4m970JjPoltk6UD+OPvpoM2Sj/sQ0xcdNVNTivTiVBNBeEoHZ5LD9xIU+xxmFSosRH34U6yj+Josw46xYqlTU4r1a0DwqryaX18QyW5K8r+ZkQd2nvynBQdDEyYDaiJ1MXtgk7aiCCoExNZPtX1owi00Y+U3boEkSpdUFvfJgmpotkBi5jh9NVFScSGT5pS+KPAm/eQ78j3kbHghPGAPh+uL3W97yFuvbcG34xl6I/RtbelCFeQ6OMEwHWmjDpQP5bt0Gh16N56fY+PCbgb7PPvt4uZRrNQb9XO58Y0aoI/WdAjgGwic/+UnLvpq6h4GOZ0+SWS1aAEA8mbQhVV841w3g6PCydEl1s4nQNmwY4ZnxN2075phjaqfzYaEBDLu1rReAk9TlJUGa3aiuvUWhRGbA5t64bRxj34vTodcBOOqTxGSJLJnERdtSPAh6ATi9m8IM6Cmaeba0A0+K8TJgi2lgIcDuKFXSHCTx/xzXBTjGHXwlOiFFH2PmYx/7WCm48Sx4VhYVwDwtA0YWLyILADmcGcwRnE9jUVoFOFYwJmnKIwNTCc+Q+lrbsMhEZjAAmnrZR7JjqDcFcLJ/2fnUpCWvPtIE3qCqQV7sAK6TymyDIDVAwrmxADjFk3klXEzyA6lUKoGBW922MQBZZbs5BHoBOMWxeakztfscnjOO6HNyrgW+Fr8ZX4QoFCXTOgCHZPj1r3/dpLRYEir2Nb97ATj4JzV8FM2MQSQ3xj5G+m7PDrRwHbzAaZGSermuDsDRvzLVWDYUgKzIy/CbUBrCYqpoQ+LHCRXuKX7/9Kc/9VKrA+mjvqFBphmT2Og3jseitApwiPjEYRUbHn4DKniW6OCmBbVNdrRkvdSfAjjc2Eyu8PzwjSrGSzoAt6ZM5noGKeJ4qC/+HguAQ/LEsxw/m8mFt5nwnLrgFvoC6Yr+KUt/zbOaApwCVE0CR3poWpgEgFGZxCEDf4cU0A3g4A0AVGaKiOlrCnCyAXoF5Y7KHQffMG0gPQFUbZcqgEPNZb4dq9CmjTfeuFTwYLGHf93GTJUER/1yrlTOKVTkXsZCPzxrFeDkqTRGxhMP3Rt9mxWilwKwIAWglqVWoBTAAUJIMzEtgB52iKqVqopGOonVqszOMhYAR3tTNiqCVy+99NKe28YAlnNoFM8CD5sAHAsJNqQytaWKx+E/bHIy+ifpYUJhhwylG8CxqAEGdUtTgEOVJHg88Cp8Y2/SDpCeFp06tFYBHOmdvvWtb3kC7FPjBRq/9KUv+ZsV3F1nsQecyoKpiW8jLk5ebtMG6poj6rSxn2taBThALDXxYS5G1V6kt9A4pBJ2D6Q6qghwABfiPBMgGDXDYEO1Qe3pZ9JBj7YaWfByqLf4PUiAY9IhgchLlZxIxF3Vte8EvsbfCuuxCVFsU/jdBOBwJP3whz+Mq290TFsA3JQDhHM4h8LErAI4XjWJalVUabsR0hTgDv/iF+0NXIFX4ZsdGQS1DkpyqQI4HBMY81P8Y27g6EPyDDzsxhP+RzhgvoX2xd8sspiiDpLd8IRf/cpU0jL1us7z+r2mNYCjA/fbb79RgbgwEuMqKmGvUhONxBaBcyL1XtQiwDEweRZppWPmA76896DfgmPiG9/4xqj6ed4gAQ4eYwZg0sRtw4BbZ/tQt7ZjDP70pz89qn6e1wTg8E7zHtt+CxOK7WRxezkGQJGoKVUAh6qMmtakNAW4A/bf35wpMZ1MeOzB/Yz9KrqrAC6mJRwDeDj7sCnTziYFLYztkylbY6if72WlPW0hZxC7UA5VBmTADmcW83gsS2sAx2qbst/ATMV2NVo9UwygIxQjlVyNigAHCKDOpkCA1axfqQLasKUgPRQ7NPweJMCxEmKoTbn5cToABv0WdqDAo9Ce4ncTgEOa7NUkUWwDNs+yHQEAOvRSqgAOiQIPZ5PSFOC0iTy5+LL/somE1IRGru0F4LCHE6oEwPVCGxoMu0JSJqDieAm/EXI21iLF3MA5hEo8KIk25t/AAQ4bBHsR2zCw4qVJidtFgEP3xw6VMsKjtrI3tt8C0GBzCR1Y/B4kwAXv4ooKdSg+k99bbrmlbSTvt22o72zhievnuAnAvfnNb26lz7HDpeIGoeeLUgtDmE8VwOF4aRpv1RTgttI2t1T0AHa5QZZeAA7eATrYy3DgNZUuAcVgH0VoSEUqpMYP59A0iJNFuu/XnFKHrwMHOFYL0D4EUNYhquwa3NTdAI6VgTAKNmnHTAbgCD/otwA0p5122qj6ed4gAQ5gRUpLARwTDDtnv4VFBGdRzDuOmwAccXVNbF5ldKOSK2VRkh4M5EFKrAI47G9KV1T2iOT5pgBH7CeG9phvcxvgEDDw4qacc9BK0HSv/cRiSEiSdhKZSQiJDuCMeZA6xpyFdN6LBJnssJKTrQEcDgRSCsWNwWamHGJ9G/YZcBhEtZVk1DOKEhwMYwdDSkXFg/rNb36zhBX1TwPWiNpxWzkeJMAhneIEKJNO21BRAQw8b6m2NQE4MsigAvVbSG+UMn1AH3ZQFj1KFcARKBuAsC49TQGOLCWpxXduqqjMPdITEbqVcv7BQxJQYPbo1euJ9EcaKjQaJGUypwB0zNNuYLe/Ih2CBF63X5pe1xrA8eCyDBs0NthKmhIYrgdAkVC6ORlgOFJIyslARD0ZI/otGI21Vy8JAoMEOKRTUjWlYsM4R3xcv4XFoSzgtwnAkRKnDYkSDyQBuinAJdYxTMy5DXBs+0oFowMgqMcA5iBKlYrKWGTHACBStgOBHRbMW2LY+im0j/HJPMfeiYe2W/quNSVwHCGHxSBLqwB3sHKSpaQLRPeQULHXxhAeAdNSakBRgqN+mM12nvhabAW4zvtdNRgMJGNMTbpeAQ5aDzzwQPMAl/EorJbYMeJns1qiJvVr1yCtEPs04/o5bgJwhLKgQvZTUIG0cT0pCbBYYW4I9qO5DXAEoqeAGHMCoS4BiPvhR+reKoCDP3iZ0WpwDKS2CNKvCCBEF7B49luYe5hw6Dtl+7U9tcQBplRkxiwOyDbs82V0twpweBYBlnhy0DjUDBrcS2FloIOwq6X2J8YAxzNYsdgeE9MCAKPahInRlB46jiSB2BbjujnuFeAwUO+jzu6m1kE36h+2lfj5gApOlF7bhmTKIpIylvOsJgBHvCKmCerstbCzgjridnKsdPYde5rnNsCR3BJbVEwrvERNxZg/CCmuCuCwE6M+Ulj4qviJCkuiACIV2iq0F4AliSqB96lkFQgKbBMcVGkV4CA05dIHlNDLCT+omy2j2GDiZ0j0Fw+ecJwCODY1E/8UrgnfTDwGIkzvZVXFzpUC8VB/N4ADfFJeQaTLtaSKhXTnxfbHv8kAkpLiUN/Z7cFCwqLQpODAYIcGXrHQlvi7CcBxLwsM/OilAIwkS0hl86BuPKhFx8HcBjgWPrZqxTzjmH4hWWuwF/bCj7J7qgCOsRoAjvuhkQUwNS+gkwWSbVt1JCpUUepiQewW28bYYtuYcsWN4g9aB8LLoEqrAEdDsQOtmJCcYCDZcJlETUCOHPkwMaX6hsGUAjhUWlb51M4HBhyBjqRkqru7gtUIAz/3lUk40NMN4OhIwmYC7cVvaCXEpRvwAmBlIEvbWC2VmLBrPWFQMQAZrGWb2wONTQEO0Ebd5a3wTVRnwA31tgxsUU9RpYt9N7cBDl4y9lPqfeADYRlNnR0ErROSUXZfE4CDRoCJLVyhT+NvnAT8XyZtIuGhqaHubiXPPaCo/HIdfcFzigUVucx2TMbvODNM8d5+f7cKcBBzQcVLMGAmDaKjCcatQn5WEWxdqJrshIg7onicAjhoYWtXVZpyYrVY5RhEZR1KPQwuvKZ4o8okikBPHYA7WKrAcomsE9TBClpHTcAzmAr4DXTgKODlHkgNVSornmnCQgC3KuCm3qYAxz3YFonmp128V6MISvC2WAB24qN4TlWf029xLsFhADiAqOqdD0hOqIGM66rQDMYiY47+O0S7AHCMsXuA7YpxaQpwjAXqJnSLlw6F8RK+MSeh4aABxQV6CLnBjh2uZ8yw6ONQKkqLxXvpc7KZpDy5OKNuVuDvoErrGX0VQuHk3XIKx7DXo6UydSqEw0k0tdeQyQhr2X2lxgK2I+mrJblZ5lt1oKX4TtUTzqlD7JV6ZGQtFg16e8+oQKy0DgXIOoGuZfIVeFlqb7KrapBZNlUx37LfkhmYbK3dSjGjb9m1x+vVdmQ8vlyvz4sL6bgVI+Rok6Qxy/SrQWkZbjX4LPsrKaQ1mZwkW6dBV5qNd4cddrBU5wILe40h94fU2FpALBMwGWR5hR787lb6zeirbTtOsYiWXVg2TMtSS9s0MSyDLbw+//zz7dV6kjRGkQPtmiSWLpt6JBmNXCOgtsyxAtKRc+GHUnhZBluZScKprt/QJS2gUcpy7lGIjZMpxknKTj5DwOBkd3KMO1Kfa8uTpeIPqeSlRtq8IeMyY1+Ab5l+yXxNNl/Sqss4P5JGvGlGX4hibAvknJxajlcKyE7WQSv185pKeMl4hO8Uxhttgy9x4ZWS2p5n84i+JUuyzCT2ik1Jb052bycQtIzW4V7mPK8GlcDT8S7a8H8b360DHESRclwJF+1dizHzikTL6Gh59mVPsnclSpS1nPS8Y1H2vA7GM6lhNNfEpQzguE4vyLDU3qTEhuFlRWEWTiqRTSCpipaynHdZ8h5LhZ2MvFeU+8k3Dy2p+uoAnFRjp1RATl6uMnIM4BhcDHyew6CEPtnv7Bw3yhZn+fHj9OdxpZJiLS28VDtLJQ240Tbeg6nVteNy+Ez7eF5c+gU46mNQa2+ptUXeO2ubJGjrb0k2yedyHzQB+JJMLa04fVQswwBw0AMdRx11lIFtCqSLNEsCN8AHEFhU6QsWGsY/QBcX0uoDFLxbNIBcLwBHvYAx76nlvQx8x+MA/vI+YGlQBsKMQ/oHwUXOi5g0O5Z666QJ2JyWZGfCiiRtd7quv0zP4JnFwvhm0WPODKwMSjREDCdFTUoMDuJt3W/UHGxwZKjAnhHfV6aihrZpwJk9B/E7vrfpMd5TAobLVN86KiqBwqhhqcDQMnrY3EwOtKJ9DrsWxvZuanNZnfF5PLPYVFK7QLi2iYqKLVDSeSu00efY3QgpENiHbu34HgYVNRCETQkTAY61mMe9HuOoQx0kgB27tBYge5ykvNJA6NjJEOgrfmN6QSUlZCOmjXmHaoxKy/OwpWH2aWO8MT70PoaOnH5Futr63boNrkgYNglsbinmxcwsO2Zw0wHE9DBwiNmJr+0GcBjRsTMRDNsPyNEObBeEBNR58XORF/FvHBZsAk8Bdtw+jlMAR53YKtl0joOibl2p+pk8xELh5Ch7p0YTgMO2ctJJJ1nSSiZK6pl1zjGxAQrsPGU2HvgwTAAHPdiYWZD6aXvgD/0KIBBugh2zuMj1C3DQikOHhS08L/4uvgMDTyy7gWgXfRNfW+eYOYjHmTCWQZeBAhyIL1uEBbD2Kslh/GYrCRMZdzIdHTOxG8DBRBwaEudNqozvr3tMqAqR4cSq9QtwDFI6uCz1eExTGcBJ7Ld9vtRV5lmN64qPkSQJY8C5gXTQBsDhwcZhgMecuMFUv8V0pI6RlJEikHppa1kZNoBj7BNQjgc51a4m5/BsEmIFuFBvsbQBcMwtFu4ymohfQxpEUKAP8MQSqoQ2U3ZP1Xkyr+AFp75Bl4ECHMTTIQACe9X2U4bX5fW2p6rGh/+Y+AxsVixWbjwxZVu1cFcj4XUrqHRsm6Fz8ATVXV1RjQijIHwBYAII9I7SZDvqqKiBTgYW21rKIswDL/hGRWOnQ3H1DvUw6EJAJVHzhCrUlZrx0OExI6yGviK8hDYUnx1+xxIcoKPXyCUDOAE4JG5UG7bOsaeU7LwpT1qov/iNRAEdhCDUiR8bS4CDv4cpdKlbgZ+AEgkD2JGR2spVbHP8G82FOcDCTj2pwuJP7r34Xo7rqKjUyfhB4ixLakBdqMZIcvQnH+hhPtJHdecRdbDFkXHBeB2LMhAnQ8pgiKcMA+zN8pRheOQFsgKKEeMmxm1NSvMsycZl787ECIsjAgOnmGrG/nPPPXeUIVoSiL0QF49st0I9ctEbHdCDhwfDriaRvXiX+3keBnANZDOYyv5nzgcMp9BJWxSQa57M+HkYTrlPnR7/lTzGuCvgtPqoU4uBOVegE08UtODQoI28IBfvGwb3VNGEMh7hoNGEN8M9nl+cJBrEdgt14mwQgNgHjzYeOqlB9j+8oW/4xAVvLO0LL+nG+QHtUmtHOVzwDmJ0ho8UAbPRRP9DE/XTVnhJCf1PH9L/8HwlvUQYzyeOiW5Fi4WNK03UUZdqC5XRXaeecLMmnzmacFJJ0gin7Rtv9Moam+voRdR1CrwPjhRJdTb26GtJt6M84LKDmpcZPodxR9/zntFUgYd4XKk3LowV+oEx1K3Ql/QLdfE7voexRf/jjCv2P3OY+aM9zHY/xxIk7HH0KeOKPlWokPUnc4P2hHfRdqOr3//HDOACoQx0ob+5mgkpgXGhwDgaj1eJQRTc0+F/Jn3s7eE/JjwDoGwQhPvjb6mtIy/ZZaJRP4X66BjAFTCI62XAQjdtiQsDg84rA6H4+nDMhOJF0fCECcUzaD8f6tIqaq50QLZOwXtNfbj04Rn1U6iPhYSJBJ9jHvNc2lXsl/A82gUvGLgU6uS6GAD4j3q5Pq6fyQPg4mEElIo8pP/x3sFzaIzvpd6yUkU3NENLoLusjtR5xkXgXfifeujnMNHD+TrfTH7az4JK3TGfaTdzgLEHIHejmfvhaRi7RRoYM/CwWx3hHuqgP+BlPH7DuVSfcj/9CWAzfqEnFK7H+0ufMnbjesN1g/oec4AbVENyvZkDmQOZAzEHMsDFHMnHmQOZA/MNBzLAzTddmRuSOZA5EHMgA1zMkXycOZA5MN9wIAPcfNOVuSGZA5kDMQf+B7rWoU3VuVLSAAAAAElFTkSuQmCC;" vertex="1" parent="1">
          <mxGeometry x="439.38" y="259" width="59.25" height="30" as="geometry" />
        </mxCell>
        <mxCell id="LdxUq8u8mY5ZMptnZAze-33" style="edgeStyle=orthogonalEdgeStyle;rounded=0;orthogonalLoop=1;jettySize=auto;html=1;exitX=0;exitY=0.5;exitDx=0;exitDy=0;" edge="1" parent="1" source="LdxUq8u8mY5ZMptnZAze-19">
          <mxGeometry relative="1" as="geometry">
            <mxPoint x="320" y="135" as="targetPoint" />
          </mxGeometry>
        </mxCell>
        <mxCell id="LdxUq8u8mY5ZMptnZAze-19" value="Transform" style="text;html=1;align=center;verticalAlign=middle;whiteSpace=wrap;rounded=0;fillColor=#0050ef;fontColor=#ffffff;strokeColor=#001DBC;" vertex="1" parent="1">
          <mxGeometry x="319.38" y="120" width="60" height="30" as="geometry" />
        </mxCell>
        <mxCell id="LdxUq8u8mY5ZMptnZAze-24" value="" style="edgeStyle=orthogonalEdgeStyle;rounded=0;orthogonalLoop=1;jettySize=auto;html=1;flowAnimation=1;" edge="1" parent="1" source="LdxUq8u8mY5ZMptnZAze-20" target="LdxUq8u8mY5ZMptnZAze-22">
          <mxGeometry relative="1" as="geometry" />
        </mxCell>
        <mxCell id="LdxUq8u8mY5ZMptnZAze-20" value="Data Transformation&lt;div&gt;(Column operations, Flattening nested data etc)&lt;/div&gt;" style="whiteSpace=wrap;html=1;rounded=0;" vertex="1" parent="1">
          <mxGeometry x="378.63" y="320" width="120" height="60" as="geometry" />
        </mxCell>
        <mxCell id="LdxUq8u8mY5ZMptnZAze-26" value="" style="edgeStyle=orthogonalEdgeStyle;rounded=0;orthogonalLoop=1;jettySize=auto;html=1;flowAnimation=1;" edge="1" parent="1" source="LdxUq8u8mY5ZMptnZAze-22" target="LdxUq8u8mY5ZMptnZAze-25">
          <mxGeometry relative="1" as="geometry" />
        </mxCell>
        <mxCell id="LdxUq8u8mY5ZMptnZAze-22" value="Data Integration&lt;div&gt;(Enriching user data with posts and comments)&lt;/div&gt;" style="whiteSpace=wrap;html=1;rounded=0;" vertex="1" parent="1">
          <mxGeometry x="378.63" y="420" width="120" height="60" as="geometry" />
        </mxCell>
        <mxCell id="LdxUq8u8mY5ZMptnZAze-28" value="" style="edgeStyle=orthogonalEdgeStyle;rounded=0;orthogonalLoop=1;jettySize=auto;html=1;flowAnimation=1;" edge="1" parent="1" source="LdxUq8u8mY5ZMptnZAze-25" target="LdxUq8u8mY5ZMptnZAze-27">
          <mxGeometry relative="1" as="geometry">
            <Array as="points">
              <mxPoint x="570" y="540" />
            </Array>
          </mxGeometry>
        </mxCell>
        <mxCell id="LdxUq8u8mY5ZMptnZAze-25" value="Data Analysis&lt;div&gt;(Insights -&amp;gt; Follower count, identifying trends etc)&lt;/div&gt;" style="whiteSpace=wrap;html=1;rounded=0;" vertex="1" parent="1">
          <mxGeometry x="379.38" y="510" width="120" height="60" as="geometry" />
        </mxCell>
        <mxCell id="LdxUq8u8mY5ZMptnZAze-37" value="" style="edgeStyle=orthogonalEdgeStyle;rounded=0;orthogonalLoop=1;jettySize=auto;html=1;flowAnimation=1;" edge="1" parent="1" source="LdxUq8u8mY5ZMptnZAze-27" target="LdxUq8u8mY5ZMptnZAze-36">
          <mxGeometry relative="1" as="geometry">
            <Array as="points">
              <mxPoint x="580" y="310" />
              <mxPoint x="630" y="310" />
            </Array>
          </mxGeometry>
        </mxCell>
        <mxCell id="LdxUq8u8mY5ZMptnZAze-27" value="Data Visualisation&lt;div&gt;( Data bricks )&amp;nbsp;&lt;br&gt;&lt;div&gt;&lt;br&gt;&lt;/div&gt;&lt;/div&gt;" style="whiteSpace=wrap;html=1;rounded=0;" vertex="1" parent="1">
          <mxGeometry x="520" y="210" width="120" height="60" as="geometry" />
        </mxCell>
        <mxCell id="LdxUq8u8mY5ZMptnZAze-29" value="Load" style="text;html=1;align=center;verticalAlign=middle;whiteSpace=wrap;rounded=0;fillColor=#0050ef;fontColor=#ffffff;strokeColor=#001DBC;" vertex="1" parent="1">
          <mxGeometry x="550" y="120" width="60" height="30" as="geometry" />
        </mxCell>
        <mxCell id="LdxUq8u8mY5ZMptnZAze-35" value="" style="shape=image;verticalLabelPosition=bottom;labelBackgroundColor=default;verticalAlign=top;aspect=fixed;imageAspect=0;image=data:image/png,iVBORw0KGgoAAAANSUhEUgAAAgAAAAIACAYAAAD0eNT6AAAAAXNSR0IArs4c6QAAAERlWElmTU0AKgAAAAgAAYdpAAQAAAABAAAAGgAAAAAAA6ABAAMAAAABAAEAAKACAAQAAAABAAACAKADAAQAAAABAAACAAAAAAAL+LWFAABAAElEQVR4Ae3dCZQkVZ3o/19E5FJ7ZVWvdDebiAqC+lTGXVDoBueJjiDqmffGRqW7EeaNzBmX8wTPKYXuxnkcceZ/zqg4/xlGdJ5SdPeAOiqbM8L8/w+3EQRZpZVuGqp6r64lt4h49yZgd9K1ZGTGzYzlG+fUqcrMiLt8blbc343lhiUsCCCQGoGxDWtW+xX3OvVzol/1+nTFrYw9aWWd7ernk8u+dvsdqcGgogikXMBKef2pPgKpENj98TWvc6erW92Z8nHzVdjpzj3l9GQuWPKV238x33p8hgAC8RcgAIh/G1IDBOYVGFu3+qvuoeJ63/Mb+n+3bMt3+vJfX/b3d26YN2E+RACBWAs0tEOIdQ0pPAIpFdi74V2nVorFO92ZyjHNEDjd2Wf8XG71MV//0UPNbM82CCAQbQE72sWjdAgg0IzA2CWrrytNTP262c5f56m39Sdnfj227pwvNVMGtkEAgWgLcAQg2u1D6RAIJDC2/l0n+eXSXe50+fhAGy6wsr42wO7Nnr307370xAKr8jECCMREgCMAMWkoionAQgJj69eMuIemHgu789f56osHq/tnHtV5LFQOPkcAgXgIcAQgHu1EKRGYU2DPpe9eWSlO3+1Nl18250ohfGB3ZSW/bEDsnP0PbrbnLxeNfGsihGRJAgEEOiRAANAheLJFIAwBdX7+k+5UebO6pz8TRnqzpmFZkhvulexwz+GPLXlKPPujhU233HX4Tf5CAIE4CRAAxKm1KCsCzwvsWn/+Yrsyfbc7VTrdJIqdzzw36le/Z1l837f+biZX/vSKke9Oz/I5byGAQIQFCAAi3DgUDYHZBMY2nHupO1n8WzWbX3a2z0N5T+0ZskO9tZG/LLyXeML25OKBzVv/I5S8SQQBBNoisPC/dluKQSYIILCQwN7/8a6BylT5TneydMZC67byuZ17ftTfNeuof66kPTWp8JcGJ6avsv6fH5TmWon3EUAgOgIEANFpC0qCwJwCY+vO/TNvpvh1r+zm51wphA+yQz2SW9Sr+vLmdg2++L+xxF5b2Ljl5yEUhyQQQMCgQHP/5QYLRNIIIHBYQJ3r73Hc6R9WJ0tvE//w+2H/ZWcdyakr/NXsf2EkXVWTDm8ujC++2rrhhkoYCZIGAgiEL0AAEL4pKSIQisDYhvMu8KZmvqlG/d2hJDhHItlCtxr1qwcD2mHvDqxfeXb1w8NX3/rrObLmbQQQ6KBA2P/xHawKWSOQDAH/ooty4wP7v6tG/WvENzfstzKOusK/X5yenEm4sjpyMTL4uPPX1uioazIj0kYAgWACBADBvFgbAaMC4xvOPc+dLo16paoakptbMgNdklvSL+rJf+YyOTJlX+6zbWftwDWjjx75Nn8jgEDnBNr039+5CpIzAnEQ8EdG7PGd99xSPVR+n9lRvy35pWrU32v0WsK5yGd8y/qfhWu2/K3a8Zg7tDFX7ryPAAJ1AgQAdRy8QKD9AuMb1rxdTeN7q1uqFkzmnunXo/4+sZwOPwLEkn8XcT5SuGZ0u8n6kjYCCMwvQAAwvw+fImBUYOySs2+qTpb/m3jqunlDi+7wc2rUn+nryKh/rlpNqnsN/0rdLnjDXCvwPgIImBUwttMxW2xSRyDeArs/vuZ11anKD71iZbHJmjiq09eH/Ds+6p+7kj+qivOxxRtHn557FT5BAAETAgQAJlRJE4F5BMbWrf6qe6i43jc56lcX99VG/eqwfwyWA2pH9BeDG7feFIOyUkQEEiNAAJCYpqQiURfYu+Fdp1aKxTvdmcoxJsuqb+vTj+21Mh0+1x+0kr78i5PzN/SPbBsPuinrI4BAcAECgOBmbIFAYIGxS1Zfp57c95e+6xnrlfUtfbnFfZIZNDpvUOC6B9xgj3r40McL12y9JeB2rI4AAgEFCAACgrE6AkEExta/6yS/XLrLnS4fH2S7oOvqKXxro341pW8yFv9/W9nMnw+OjO5LRn2oBQLREyAAiF6bUKKECIytXzOizvV/zuSoXz+0J7e4V7KFnoSoHa6GmijgGduXdYObtn7/8Lv8hQACYQkQAIQlSToIPC+w59J3r6wUp+9W9/a/zCSK3fXcqN/OJWXUP5eW/w9utucvF418a2KuNXgfAQSCCxAABDdjCwTmFBhbd84n3anyZr/qZeZcqdUP9Kh/WI36h5M36p+TxpKnxLM/Wth0y11zrsMHCCAQSIAAIBAXKyMwu8Czl65ZKiX3TnWh3+mzrxHOu3Y+UzvXr3+ncPF93/q7UrnnM8uvu2kqhfWnygiEKkAAEConiaVRYGzDuZeqc/1/61fdrLH6q//U7FBvbeSvrpJP+/Jb25O1A5u3/kfaIag/Aq0IsCtpRY9tUy2w/4qzCqUJ53Z3snSGSQg79/yovyuVo/65aD01lfCXBrP9n7NGbizOtRLvI4DA3AIEAHPb8AkCcwqMrTv3z7yZ4te9smt0gv3sUI/kFvWqvo5/1dkawxf/N5bYa9UzBX4+2+e8hwACcwuwV5nbhk8QOEpg1/rzexx3+ofVydLbTD7Q1lb38+fUbH76/n6WBQWq6lFKmwvji6+2brihsuDarIAAAjUBAgC+CAg0KDC24bwLvKmZb6pRv9Gp9rKF7tqMfoz6G2yYP6xm/cqzqx8evvrWX//hLf5AAIE5BQgA5qThAwSeE/Avuig3PrD/u2rUv0Z8NT2NocXKOOoK/37Rc/mzNC1QVkdmRgYfd/7aGh11m06FDRFIgQABQAoamSo2LzC+4dzz3OnSqFeq9jWfysJbZga6JLdEPbZXzefPEoKAL/fZtrN24JrRR0NIjSQQSKQAe5tENiuValXAHxmxx3fcu0WN+v/E7KjflvxSda6/l1F/q202y/Yz6njNZwsbt/6N2tGZO3QzS8a8hUAcBAgA4tBKlLGtAuMb1rxdTeN7q1uqFkxmnOnXo/4+sRxjDwg0Wfz4pG3Jv4s4HylcM7o9PoWmpAiYFyAAMG9MDjESGLvknG+qUf+fiqeuKze06A4/t7RfMn1G7yA0VPrYJjupJlD6pHrM8NdiWwMKjkDIAsZ2ciGXk+QQMCqwZ915Z1RKpX/1ipXFJjNyVKefV50/o36TyvOm/SM1X+Mli0a27px3LT5EIAUCBAApaGSqOL+AGvV/Tc3mt843OepXF/fVRv3qsD9LxwUOqIcKfGJo07ZvdLwkFACBDgoQAHQQn6w7K6Ae4HOazFTucGcqy02WRN/Wl1eT+lgZzvWbdA6atiXWrY5f2dC36baxoNuyPgJJECAASEIrUofAAuqxvV9yJ8uf8F3PWK+sb+nLLe6TzKDReYMC150N6gT2qBsELits3DZa9y4vEEiBAAFAChqZKh4WGFv/rpP8Uulud6Z83OF3w//L6dajfnWuX03pyxIDAUu+rSZiunxwZHRfDEpLEREIRYAAIBRGEomDwNi61Z9X5/qvMjnq19P35hb3SrbQEwcSyniEgJoo4BnH8tcPXLPte0e8zZ8IJFaAACCxTUvFXhDYc+m7V1aL0z92p8snv/Ceid92V7Z2rt/OMeo34dvGNP/RzXZfsWjkWxNtzJOsEGi7AAFA28nJsJ0C6lz/J92p8ma/6mWM5atH/eqRvfrRvSwJEbDkKfHsjxY23XJXQmpENRA4SoAA4CgS3kiCgLrCf6mUqnepzv80k/Wx8xnJLx8QO2cuvjBZftKeV0BPH/yVYqn308uvu2lq3jX5EIEYChAAxLDRKPL8AmPr1lzmTpW+7FfVlC+mFvWfkx3qldxwr6gZ5liSLfBbT/yLhzduuzfZ1aR2aRNg15W2Fk9wffdfcVahNOHcri70O8NkNfVovzbqV6N/ltQIeCrS+9Jgtv9z1siNxdTUmoomWoAAINHNm57Kja0798+8meLXvbJrdIJ9fZ5fn+/XV/uzpFLgYdX4Hy5s3PLzVNaeSidKgL1YopozfZXZtf78Hsed/qF6gM/bTD7w1Vb38+fUuX5HXenPknqBqnpU1ObC+OKrrRtuqKReA4DYChAAxLbpKPjYhvMu8KZmvqlG/Uan2ssWumsz+jHq5ztXL2D9yrOrHx6++tZf17/PKwTiIUAAEI92opRHCPgXXZQbH9j/XTXqXyO+vlDbzKJmhqvN5qfn8mdBYA6BsjryNDL4uPPX1uioO8c6vI1AJAUIACLZLBRqLoHxDeee506XRr1StW+udcJ4PzOgRv1L+kTP58+CwIICvtxn287agWtGH11wXVZAICIC7N0i0hAUY34Bf2TEHt9x7xY16v8Ts6N+W/JL1bn+Xkb987cIn84iMKOOR322sHHr36gdq7lDU7NkzFsINCNAANCMGtu0VWB8w5q3q4f33OYVq4MmM870d0luqXqAD6N+k8xpSPsnYjkXF64Z3Z6GylLH+AoQAMS37VJR8rFLzvmmGvX/qXjqumtDi+XYtY4/02f0DkJDpSfZiApMqgmiPlm4ZuvXIlo+ioUAc5jxHYimwJ51551RKZV+4BUri0yW0FGdfl6P+lUQwIJA+AL+7W7W+tiika07w0+bFBFoTcDYqKq1YrF1mgXUqP9raja/db7JUb86zK8P9+vD/m1d1F0L6rZFUY8kbmu2Uc9MB2C1pygmc4KlA77vf2Jo07ZvRL0dKF+6BAgA0tXeka6teoDPaTJTucOdqSw3WVB9W19+2YBYmTaN+lWnX943LepxxKLuXlCXh3F92Kztqzp//XAl3T65YfVkxYQFA5ZYtzp+ZUPfptvGZq0/byLQZgECgDaDk93sAuqxvV9yJ8ufUCNjY72yvrgvt7hPMoNG5w2qq6AKZqQ8NiFehVvE62AWeFGbeVEFaU534mZe3KMiwMsKG7eNLkDAxwgYFyAAME5MBvMJjK1/10l+qXS3usr/uPnWa/Uzp1uP+tW5fjWlb7sWdfGilJ452K7sEplP/phBSeTFmZZ8W000dfngyOi+RDYclYqFgLHRVixqTyE7KjC2bvXn3UNTjxnt/NVh5NySfulaVWhr5+9XPSmPH+qobxIy14baMnGLLx/yK+5DE1e9792JqxsVio0ARwBi01TJKeieS9+9slqc/rE6J36yyVrZ6sE9+lx/7eIykxnNknZx10Fxp0qzfMJbQQWc3rx0rTA6BUTQIoW9/j+62e4rFo18ayLshEkPgfkEOAIwnw6fhS4wtn71p8sTE7832vnrUb8619997FBHOn89YqXzD++roy0TeRTgMNFHnMrMgweuuvCcw2/xFwLmBTgCYN6YHJSAusJ/qZSqd7lT5dNMguiryPPqsb12LmMym3nT1h2WPgLAEp6APgKgjwQkfNG3h3ylWOr99PLrbppKeF2pXgQEOAIQgUZIehHG1q25zJso7TTa+atQNjvcq0b9wx3t/HVbukV1qx9LqAIpMdUDssu68lP377vyfW8NFZDEEJhFgCMAs6DwVjgC+684q1CacO5Qk/q8PpwUZ09Fj/Zro341+o/CUlIXrlUPzkShKIkpg751U8/YmKLFU/O0Xj+YGbjKGrmxmKJ6U9U2CnAEoI3YacpqfP2atcU9/rOmO//sUI90H6fO9Uek89dtHKWyJOU7l0JTWz1P8K8OViZ+efBzF5yRlHakHtES4AhAtNoj9qXZtf78Hqc6/aPqVOmtJh+IWpsoRp3rd9SV/lFb1PMLZGbH/qgVK9blqV3QGcG2bhNqVV0ccG1h9+IvWDfcUGlTnmSTAgECgBQ0cruqqB7b+351Adw31Fz3Rqfayxa6a1f5R3aqWDXV7/STe0Q9y6Bd9InOR8/g2POSxYmbGjh4o1m/Ul+ptcObtjwQfFu2QOBoAQKAo014J6CAf9FFufGBA9+rThZXm5znXs2cVpvNT88VH/WlOlGUkpoCmKV1AT2XQ2agzQ9tar3YplIoq4Q/P/iY80VrdJT5pU0ppyRdAoCUNLSpao5vOPc8d7o0qh5y02cqD51uZkCN+pf0iR4NxmUp7jqg5gPQ+2uWZgWc3pyaBKjQ7ObJ3c6X+2zbWTtwzeijya0kNTMtEJ+9qWkJ0g8k4I+M2OM77t2q5rt/r9lRv62u/lbn+lVHELdFP/K39MyEqKmO41b0SJS39vyGY9RTG9WjgllmFZjxLf/KwjXbvqx25JxvmpWIN+cTIACYT4fPZhVQ5/rfrjq127xi1ej8rJn+LsmpW7/iNOqfDaxyYEbKeyZ5DPBsOLO99/xMjvpaD5aGBH6ioqSLC9eMbm9obVZC4HkBAgC+CoEExi4555tq1P+n4vnGvjt6xKc7/iQ9BU4fDdCPBtZ3CKjTJaJfsxwW0G2ub/XTz2/QjwBm1H/YpsG/JtW8AZ8sXLP1aw2uz2oIqK8MCwINCOxZd94ZlVLpB6oDW9TA6k2v4vTlaxO+0AE0TciGqRbwb3ez1scWjWzdmWoGKt+QAAFAQ0zpXkmN+r+mJvRZp25rM/Z90Yf5a6N+ddifBQEEWhI46Pv+Xwxt2vaNllJh48QLGNuhJ14uBRVUD/A5TWYqd6hD18tNVldf4Kcv9LMyXOxl0pm00yVgiXWr41c29G26bSxdNae2jQoQADQqlbL1xtad8yV3svwJda7aWK9cG/Wrx/bqed5ZEEDAiMAedfXpZYWN20aNpE6isRYgAIh184Vf+LH17zrJL5XuVlf5Hxd+6odTrN3itUxd4Z91Dr/JXwggYEbAkm+ribQuHxwZ3WcmA1KNowABQBxbzVCZx9at/rw613+VyVG/nr43p0b93OJlqBFJFoG5BZ61LX/dwDXbvjf3KnySJgECgDS19hx13XPpu1dWi9M/dqfLJ8+xSihv61u8ao/tZdQfiieJINCkwD+62e4rFo18i7mqmwRMymYEAElpySbrMbZ+9afVqH+TX/XMHYvXo/5FvaIf3cuCAAKRENihjsZ9tHDNljsjURoK0REBAoCOsHc+U3WF/1IpVe9Sc9WfZrI0enKX2qg/lzGZDWkjgEBwAT198FeKpd5PL7/upqngm7NF3AUIAOLegk2Uf2zdmsvUY3u/7FfdbBObN7aJ+mZlh3olN9yrHuPa2CashQACHRH4rSf+xcMbt93bkdzJtGMC7Jo7Rt/+jPdfcVahNOHcoQ75v95k7rYa7ddG/Wr0z4IAArEQ8FSgfv1gZuAqa+TGYixKTCFbFiAAaJkwHgmMr1+zVj2292te2c2bLLE+z6/P9+ur/VkQQCB2Ag9btqwdvHrrz2JXcgocWIC9dGCyeG2wa/35PU51+kfVqdJbTT4w1FZX9tdG/epKfxYEEIi1QFVdHHBtYffiL1g33FCJdU0o/LwCBADz8sT7Q/XY3verc/3fUKN+o1Pt6Xv69b39jPrj/X2h9Ai8SOB+9fiPDw9v2vLAi97nZUIECAAS0pBHVsO/6KLc+MCB71Uni6vF1xf6mlnUzGJq1N+vHt+aM5MBqSKAQKcFyqoAnx98zPmiNTrqdrow5B+uAAFAuJ4dT218w+o/dqcqN3vlqjoRb27R8/frUb+ez58FAQQSL/BT27PWDmze8kjia5qiCrL3Tkhj+yNnZcZ3ZG6pTpbea3bUb9ee3Kef4MfSpICnbrrymtw2oZupC89EbGPPnUqoWturVfQt/7OFzKv/xhoZ4Rvcdv7wMyQACN+07SnuXrf6zGqpcqtXrA6azDzT3yW5peoBPoz6AzL7Up0oiZpqWbxSRdQ1GQG3T8fqds4RO58VpycnmQF9swq7p4i2/E/EtT5SuHbLkxEtH8VqUID/sAahorra2CXn/LMa9X9I1NU6pspoOXat48/0Gb2D0FTxO5qummJZis8eFG+Gi6mDNITdnZWu5YNiZTgqEMStjetOqscMf0o9ZvirbcyTrEIWMNZphFxOknuRwJ51551RKZV+4BUri170UagvdadfG/WrIIAlmIBXLMvM0wdFBWfBNmTt5wTUkabulYNid3G6KbpfCf92N2t9bNHI1p3RLSMlm0uAvfpcMhF+f/ySs79ePjR1n8nOXx/m1/f1549RozA6/+DfBtXpF589ROcfXO7wFhgetojsX9YapyIP7r/ywrWRLSIFm1OAIwBz0kTvA/UAn9NkpnKHO1NZbrJ0+gK//NIBDr+2gFwePySVgzMtpMCmLwhk9R0n6toTlmgLWL7c5kh1fd+m28aiXVJK94IARwBekIj4bzWV7/XeweIDJjv/2qhf7Wi7VhTo/Fv4PviuT+ffgt+LN9WBlDZlibaAugrpPVUr89CBz174gWiXlNK9IMARgBckIvpb3dd/sld073RnyseZLKKezEdP6qMn92FpTUBf7V98+kBribB1nUDXykLt7oC6N3kRZYHv2J5/+cDmbXujXMi0l40jABH+BoyvO+dqdfvYI0Y7f/XQntwSNepfpUf9dP5hfB3U7ZhhJEMaRwhgegRGPP78oGdbD+678sLz41HcdJaSIwARbPe9l605tjJVvVt1/C81WTxHPbgnpy700w/yYQlPoDQ+IdWDPFE1PFGRzGBX7bqUMNMkrfYIqE7mRrfqXDH8xVF1SwxLlAQ4AhCl1lBlGVu/+tOlA8XtRjt/PepX0/h2HTtE52+g/Z1cxkCq6U4S0/i2v7p642I74/76wFUXnhPfWiSz5BwBiEi7qiv8l0pJjfqnyq80WSQ7n3nusb10UsaYa/f/7+AagDCBu48tMB9AmKCdSctXjyT/arHc+6nl19001ZkikOuRAhwBOFKjQ3+PrVtzmTdR2mm081ehXm5Rr3QfOyw2nb/RlrZzWfVkZGLrsJC1pTZlib2ApWZ3/nhXfur+fVe+762xr00CKsBeqoONuP+KswqlCecOd7L0epPF0B2+ntRHj/5Z2iNQ2Tcl5b0McsLQ1oFrdtjowy3DKCZpBBPwVDBw/WBm4Cpr5EYumAlmF9raBAChUQZLSN3Xv9adLn1NPRjG6AT72aGe2shfDUmDFZC1WxYo7tgvbpFnALQCqS9U1deqsCRW4GH1JMi1g1dv/VliaxjhitErtLlxdq0/v8epTv9IPcDH6CEwfWV/bdSvdqAsnRHwKlUp7ZpQT//jtsBmWqB25GqFvkuFI1fN+MVoGz3N0+bC7sVfsG64gYi5jQ1HANBG7PENa97vTpW+oUb93SazzRbU1KnqKn9G/SaVG0vb99WsgOpUQGW/nhaY2ewaU7MkO9QtWXXon2spGhNLyFr3q4eafnh405YHElKfyFeDAKANTeRfdFFufODA96qTxdWiOgRTi6VH/cv6Rc/qxxItAa9UFT1DoHqAk3glV01t60argB0ujeU46hoV9aOOWDk9Oa5X6XB7dDD7ssr784OPOV+0Rkf5JzHcEAQAhoHVVL5/7E5VblaHgY1exZTRD0xRo349nz8LAgggEHOBn9qetXZg85ZHYl6PSBef3sJQ8/gjZ2XGd2RuUef632t01J+xazOk6Sf4sSCAAAIJEij6lv/ZQubVf2ONjHgJqldkqkIAYKApdq9bfWa1VLlVzV8+aCD5PySZ6e+qPSaVUf8fSPgDAQSSJ/ATca2PFK7d8mTyqtbZGhEAhOw/dsk5/6xG/R8SdTVLyEn/ITnL0aN+da6/z+gdhH/Ijz8QQACBDgtMqotoP1XYuO2rHS5HorI31kklSqmByuxZd94ZlVLpB+oir0UNrN70KhnV6edU56+DABYEEEAgXQL+7W7W+tiika0701VvM7UlAAjBdfySs79enSx/zDc56lcX9+mOXx/2Z0EAAQRSLHDQF+sTQxu3/FOKDUKpOgFAC4zqAT6nyUzlDnemsryFZBbcVF/gl186IJa64I8FAQQQQEBNc+LLbY5U1/dtum0Mj+YECACacxM1le/11UPFT/iuZ8xQX9yXW9InmQGj8wY1KcBmCCCAQMcF9opvXVbYtOXmjpckhgUw1nnF0KKhIqv7+k/2iu6d7kz5uIY2aHIlPRmKntTHyjhNpsBmCCCAQGoEvmN7/uUDm7ftTU2NQ6gox5QDII6vO+fq6kTpEaOdv3poT25Jv3StLND5B2gbVkUAgVQLfNCzrQf3XXnh+alWCFh5jgA0ALb3sjXHVqaqd6uO/6UNrN70KvrJZzn92F41pS8LAggggEBwAdWp3ehWnSuGvzh6MPjW6dqCAGCB9laH/D9TPVTa6Fc9c72yHvXrZ56rR/eyIIAAAgi0LLBDzcD6scKmbXe0nFKCEyAAmKNx1RX+S6WkRv1T5VfOsUoob9v5zHOP7c3xyNNQQEkEAQQQeE7AVw/g/Gqx3Pup5dfdNAXK0QIEAEebqCv8V1+u7uu/3q+62Vk+DuctJZ8b1qN+9YwgWiEcU1JBAAEEjhZ40vPsi4c333LP0R+l+x26niPaf/8VZxXKE5k71WN7X3fE26H/aavRfl6f61ejfxYEEEAAAeMC6n5t/8sD2cErrZEbi8Zzi0kGBADPN5S6r39tdap0g19xjT5WT5/n1+f7RZ33Z0EAAQQQaKvAI5YtHx68euvP2pprRDNLfS+0a/35PU516nZ1yP8tJtvIzjnqvn416ldX+rMggAACCHRMwFXTCF47OL7k89YNN1Q6VooIZJzqAGB8w5r3u1Olb3hl1+hUe9lCt+QW9zHqj8AXvlNFcKfLon+8UrX2o2aQ7FRRIpmvfriVPiWmf/QkWPqHBQHDAverx7d8eHjTlgcM5xPZ5FMZAPgXXZQbH9z/fXV73znqVhFjjWOp+/n1bH5ONzszY8gRT9h3fSnvOSTVCU47BmmqzECXCpr1Uy9TuYsKQsW6rQmU1VTCXxh83L7WGh11W0sqflun7r9L3df/x+5U5WavXFUn4s0tmcHnRv16Pn+WdAr45arM7DogfoXRfjPfACtrS/cKNSMmt8g2w8c2wQR+anvW2oHNWx4Jtlm8105N7+SPnJUZ35HZUp0svcfoqF89sU+f6+cQZrz/MVotvb4BufjU/trh/lbTSvP2+pRA13FD6k7Z1Oyq0tzcna57UT1m+MpC9vQvWyMjqYjaU/FftXvd6jOrpcqtXrE6aPIblulXhy2XqsOWjPpNMsci7creKSnvY+6RMBqrNl+GvnOGBYE2CFiWf49ftS8uXLvlyTZk19EsEv8woLFLzvnn8qHiv5ns/PUFTF3HDNbu7afz7+j3ORKZ+54677+fzj+sxtCW2pQFgXYI+L71NnH8Bw5c+b5L25FfJ/NI7BGAPevOO6NSKv3AK1YWmQTO9OWfG/WrIIAFAS2gHholxZ0HwAhRoGtVgYtpQ/QkqYYF7lDzwX500cjWnQ1vEaMVE9lrjV9y9tfLh6buM9n561G/ns0vr0b++m8WBF4Q0Lf6sYQrgGm4nqTWsMBqpyIP7r/ywrUNbxGjFRN1BEA9wOc0manc4c5UlptsA6c3J/mlA2KpC/5YEHixQGlsgtv+XozS4mt9W6C+uJYFgU4JWL7c5kh1fd+m28Y6VYaw801MD6am8r3eO1h8wGTnr8/v6/v6u/StSXT+YX8XE5OeftYDS7gCmIbrSWrBBXxL3lO1Mg8d+OyFHwi+dTS3iP0RAHVf/8le0b1TnXc9ziSxvq1Pd/5WxjGZDWknQEDP+Fd8mmsAwmzKrpXqGgBmBwyTlLRaE/iO7fmXD2zetre1ZDq7dayPAIyvO+fq6kTpEaOdv3poT26JGvWrHRCdf2e/rHHJ/bmnPMY+to4Qt8WTMyPUGhSlJvBBz7Ye3HflhefH2SOWe6m9l605tjJVvVt1/C81ie90ZyWnH+CjpvRlQSCIgJ7+t7J/JsgmrDuHQHZIz6rZP8envI1AZwVUJ3qjW3WuGP7i6MHOliR47rE7AqAO+X+mdKC43Wjnr0f96uE9XauG6PyDf6fYQglkF/UJ561b/ypoQ23JgkBUBdQMFRfbGffXBz77vtVRLeNc5YrNEQB1hf9SKalR/1T5lXNVJoz39eFbfXsfO+8wNNOdhleq1K4F0A8EYgkuoB8EpE+92XkeoR1cjy06IuDLV4rl3k8tv+6mWMwEFosAYHz96surk+Xr/aqaksHUoiRqU44OqSlHY6FiCoJ0wxTQj/0tjR0S9djpMJNNfFpOb/65i26ZYyPxbZ3ACj7pefbFw5tvuSfqdYt0V7f/irMK5YnMndXJ4utMQtZG/fpcvxr9syBgQkA9elo8NUOgqyYJ8tWRAYNPoTZRfONpqrNuYqmRvqP+B231+OxMf954nmSAgEEBzxL/ywPZwSutkRsj+yzwyAYA4xvO/Yjq+L/qV9ycwUaS7FCP5PSDRvQeiAWBdgioMwLMbV8PXXuGBv+C9Si8SoLAI5Z4awc3/stPo1iZyP3LjV92Vp9ftH+oDvm/xSSYnXNqM4vZXebOKpgsP2kjgAACCMRCwBXLv3Ywk/mCNTJajlKJIxUAqHP9F6lJVP7JK7vdJpGyBTXqX8yo36QxaSOAAAII1Anc79v+2qGrt91f924HX0QiAPAvuig3Prj/++o86TkmT45a6n5+PZ+4vr+fBQEEEEAAgTYLlMW3vjD4uH2tNTrqtjnvo7LreACg7uv/Y3eqcrNXrqohubklM6gnE+mT2rlGc9mQMgIIIIAAAgsJ/NT2rLUDm7c8stCKJj/vWADgj5yVGd+R2VKdLL3H6KhfPbSnNupnHnGT3yPSRgABBBAIJlD0xbqykD39y9bIiBds03DW7kgAsHvd6jOrpcqtXrE6GE41Zk8l098luaXqAT7qKX4sCCCAAAIIRE3Asvx7/Kp9ceHaLU+2u2xt7xnHP7b6f1emih8Sz9zsaJaaPCSvOn6nj3uJ2/2FIj8EEEAAgcACU+pW9E8VrtnylcBbtrBB2wKAZ9eveYNfrHzfK1YWtVDeBTfNqE6/NupnBrEFrVgBAQQQQCBSAne44n5s0cZbd7SjVG0JAMYvWf33alKfj6rJT4zlp0f9uSV9agaxrna4kQcCCCCAAAImBA6qmUKvGNq09UYTiR+ZprEOWWcy9vHzXuVPl253ZyrLjsw07L+d3pw65D8glrrgjwUBBBBAAIG4C6jO+btO1lnfNzL6rKm6GAsAxtet/rK6wv8v1MNQjOWhL+7LLemXzACjflNfENJFAAEEEOiYwF6V8+WFjVu/Y6IEoXfO6r7+k9XV/XepUf+xJgr8QpqOuq0vv0xd4Z9xXniL3wgggAACCCRPwPJvtl25bGDzNh0QhLaEesx8/JI111QnSo8Y7fzVQ3v0qF8/J5zOP7TvAQkhgAACCERVwLc+4NnWQ/uvuuA9YRYxlCMAey9bc2xluvpjNY//SWEW7sVp6Sl8c/qxvWpKXxYEEEAAAQTSJqAeM/xPbjXzieEvjh5ste4tBwDqkP9n1Bz+G/2qZ65X1qN+9che/eheFgQQQAABBFIt4MtO9VDxjxY2bbujFYemA4BnL12zVEpq1D9VPrWVAiy0rd2Vee6xvbnMQqvyOQIIIIAAAikSsL5aLPV8cvl1N001U+mmAgD12N7Lq5Pl6/2qa+6xeqpkuWE96teP7W2mamyDAAIIIIBA4gWe9Dz74uHNt9wTtKaBulb92N6x/n3/4U6WXh80oyDr2zn12N7lg2LnGfUHcWNdBBBAAIFUCnhqoHz94KPOZ4I8ZrjhAGD3+nOPqRbLD6ipfBeb5HW6spJfMSh6Zj8WBBBAAAEEEGhY4IeVSvUDS/76tkONbNFwL+uWyj833fnr2/ry+vY+Ov9G2o51EEAAAQQQOFLgvGwme+ORb8z3d0MBwLPr1vyturd/xXwJhfFZfjmP7g3DkTQQQAABBFIqYPkXHPzs+z7USO0bCgD8mfJHG0mslXX0+X6nO9dKEmyLAAIIIIBA6gV8y/qrRhAWDADUuf//6pWr6lJ8s0tmoNtsBqSOAAIIIIBAOgRef+iq952yUFUXDAA8z3vHQomE8bm+8p8FAQQQQAABBFoXcMV65UKpLHyfne+/dKFEwvg8EfP6qxkLi72LpNQ3LL61YGwVBhtpIIAAAokXsHxP8pP7pGtKPQvH9xNf3zAq6Iu/4AP5GggApC3P2lV9Z2yXiWUny54TXyczA8vEc8zNjRRbIAqOAAIIhCBguxXpnhiTxdt/IQNjj4eQYnKTsHw7v1DtFg4AFkohxZ+72S7ZderZcmDFgqdaUqxE1RFAAIFwBPQAa2poVe2nsOthWfGbu8SpFMNJPIWpcJy6yUbXX8Qn3vzf6fyb9GMzBBBAoBUBPfDS+2COujavSADQpN0zp7xDyj2FJrdmMwQQQACBVgX0Pljvi1maEyAAaMJtcvEJsu/YVzWxJZsggAACCIQpoPfFep/MElyAACC4mexfdVoTW7EJAggggIAJAfbJzakSADThpq/2Z0EAAQQQiIYA++Tm2oEAIKCbl8lJqXco4FasjgACCCBgSkDvk/W+mSWYAAFAMC8pdw8G3ILVEUAAAQRMC7BvDi5MABDULM4zFgWtK+sjgAACcRFg3xy4pQgAApOxAQIIIIAAAvEXIACIfxtSAwQQQAABBAILEAAEJmMDBBBAAAEE4i9AABD/NqQGCCCAAAIIBBYgAAhMxgYIIIAAAgjEX4AAIP5tSA0QQAABBBAILEAAEJiMDRBAAAEEEIi/AAFA/NuQGiCAAAIIIBBYgAAgMBkbIIAAAgggEH8BAoD4tyE1QAABBBBAILAAAUBgMjZAAAEEEEAg/gIEAPFvQ2qAAAIIIIBAYAECgMBkbIAAAggggED8BQgA4t+G1AABBBBAAIHAAgQAgcnYAAEEEEAAgfgLEAAEbEPXzgTcgtURQAABBEwLsG8OLkwAENCslO0R3/cDbsXqCCCAAAKmBPQ+We+bWYIJEAAE8xLd9Ver1YBbsToCCCCAgCkBvU9mWBZclwAguJlUKgQATbCxCQIIIGBEgH1yc6wEAE24zcwUxXW9JrZkEwQQQACBMAX0vljvk1mCCxAABDerXQMwOTnZxJZsggACCCAQpoDeF3NdVnOiBADNudVOA0xOTvHFa9KPzRBAAIFWBHSnr/fBHP5vXpF72pq3k2KxVPvy9ff3SiYDZQuUbIoAAgg0LKAv+jt0aEqdinUb3oYVjxag1zraJNA7+gt44MCEZLOZWhCgAwHH0QdWrEDpsDICCCCAwFwCfu26K93x6x9G/XM5BXufACCY15xr6y8kX8o5efgAAQQQQCBiAlwDELEGoTgIIIAAAgi0Q4AAoB3K5IEAAggggEDEBAgAItYgFAcBBBBAAIF2CBAAtEOZPBBAAAEEEIiYAAFAxBqE4iCAAAIIINAOAQKAdiiTBwIIIIAAAhETIACIWINQHAQQQAABBNohQAAQUDlTLQXcgtURQAABBEwLsG8OLkwAENBs4MDTYlnM8heQjdURQAABYwJ6n6z3zSzBBAgAgnmJ5XuSE+afDsjG6ggggIAxAb1P1vtmlmACBADBvGpr9xUPNrEVmyCAAAIImBBgn9ycKgFAE24vf+xOcTgN0IQcmyCAAALhCuh9sd4nswQXIAAIbib54iF5ybO/amJLNkEAAQQQCFNA74v1PpkluAABQHCz2harnvqFLJsea3JrNkMAAQQQaFVA74P1vpilOQEeB9ycW22rUx/6vixdcrI8cuLbpOK3kBCbIoAAAgg0LJBVN2K9Yvs9snj34w1vw4pHCxAAHG0S6B39BXzTvt/JMytfIwcHlstkV0HKdlbmjwcs4XrVQMysjAACCRZ47lD03HtNfeN1zqtIX/GADE48K8c8/Stx3EqCRdpTNQKAEJz1F3HVUz+TVQ2m9btqXr68e7DBtZtfrbenR7q7u5tPgC0RQACBNgj8efYJKVh06G2grsuCawDqOHiBAAIIIIBAOgQIANLRztQSAQQQQACBOgECgDoOXiCAAAIIIJAOAQKAdLQztUQAAQQQQKBOgACgjoMXCCCAAAIIpEOAACAd7UwtEUAAAQQQqBMgAKjj4AUCCCCAAALpECAASEc7U0sEEEAAAQTqBAgA6jh4gQACCCCAQDoECADS0c7UEgEEEEAAgToBAoA6Dl4ggAACCCCQDgECgHS0M7VEAAEEEECgToAAoI6DFwgggAACCKRDgAAgHe1MLRFAAAEEEKgTIACo4+AFAggggAAC6RAgAEhHO1NLBBBAAAEE6gQIAOo4eIEAAggggEA6BAgA0tHO1BIBBBBAAIE6AQKAOg5eIIAAAgggkA4BAoB0tDO1RAABBBBAoE6AAKCOgxcIIIAAAgikQ4AAIB3tTC0RQAABBBCoEyAAqOPgBQIIIIAAAukQIABIRztTSwQQQAABBOoECADqOHiBAAIIIIBAOgQIANLRztQSAQQQQACBOgECgDoOXiCAAAIIIJAOAQKAdLQztUQAAQQQQKBOgACgjoMXCCCAAAIIpEOAACAd7UwtEUAAAQQQqBMgAKjj4AUCCCCAAALpECAASEc7U0sEEEAAAQTqBAgA6jh4gQACCCCAQDoECADS0c7UEgEEEEAAgToBAoA6Dl4ggAACCCCQDgECgHS0M7VEAAEEEECgToAAoI6DFwgggAACCKRDgAAgHe1MLRFAAAEEEKgTIACo4+AFAggggAAC6RAgAEhHO1NLBBBAAAEE6gQIAOo4eIEAAggggEA6BAgA0tHO1BIBBBBAAIE6AQKAOg5eIIAAAgggkA4BAoB0tDO1RAABBBBAoE6AAKCOgxcIIIAAAgikQ4AAIB3tTC0RQAABBBCoEyAAqOPgBQIIIIAAAukQIABIRztTSwQQQAABBOoECADqOHiBAAIIIIBAOgQIANLRztQSAQQQQACBOoFM3StedEygKyfy3jeX5eQVJVk2OC3d2WlVFj9geSzx7EXqZ0A8S//0i2VZAdOoX92ffli8qfvr3+zAKyt/vNgDb+pAzvVZ+qpJ9k74snPckx27PXn4d65MFYO2U32avEIAAQQ6IUAA0An1F+X5plNdWXv2s5K1pl70SYCXdp9I1yniOAPiBNhsoVUrJU/KfmWh1Yx/7thVyedaC2bCKuSqJZasWmLLG1WCUzO+/Mu9ZXngt25YyZMOAggg0BYBAoC2MM+dyRUXTMvpq55WK7QwisyuUp3/ySoNzujMLW3mk95uS/7b6ryc9hJXvn1nSbwWmtFMCUkVAQQQmF2AHmN2l7a8e+7rq6rz36nyaqHXUCN+6XqZSoOmbEujzZHJq09y5O2vyc7xKW8jgAAC0ROg1+hQmwz1i7z/zbtazF01X9epKo1oHBpvsTKx33z167OybIh/qdg3JBVAICUC7K061NCXnDepxuzF1nLPrVQD/97W0mDr0AQy6uKLNX/EUYDQQEkIAQSMChAAGOWdO/GVwzNzf9joJ+pqf5ZoCZywnH+paLUIpUEAgbkE2FvNJWP4/b58C1f8v1A2ff6fJVICfeqiwEIfp2Qi1SgUBgEEZhUgAJiVxeybXQVbnbUvt5iJajq7p8U02NyEwIrF/FuZcCVNBBAIV4A9VbieDaXm5Btabf6VLJpufqDOfZrl5trO4ZMzAgg0LEAv0jAVKyKAAAIIIJAcAQKA5LQlNUEAAQQQQKBhAQKAhqlYEQEEEEAAgeQIEAAkpy2pCQIIIIAAAg0LEAA0TMWKCCCAAAIIJEeAACA5bUlNEEAAAQQQaFiAAKBhKlZEAAEEEEAgOQIEAMlpS2qCAAIIIIBAwwIEAA1TsSICCCCAAALJESAASE5bUhMEEEAAAQQaFiAAaJiKFRFAAAEEEEiOAAFActqSmiCAAAIIINCwAAFAw1SsiAACCCCAQHIECACS05bUBAEEEEAAgYYFCAAapmJFBBBAAAEEkiNAAJCctqQmCCCAAAIINCxAANAwFSsigAACCCCQHAECgOS0JTVBAAEEEECgYQECgIapWBEBBBBAAIHkCBAAJKctqQkCCCCAAAINCxAANEzFiggggAACCCRHgAAgOW1JTRBAAAEEEGhYgACgYSpWRAABBBBAIDkCBADJaUtqggACCCCAQMMCBAANU7EiAggggAACyREgAEhOW1ITBBBAAAEEGhYgAGiYihURQAABBBBIjgABQHLakpoggAACCCDQsAABQMNUrIgAAggggEByBAgAktOW1AQBBBBAAIGGBQgAGqZiRQQQQAABBJIjQACQnLakJggggAACCDQsQADQMFVaV7QiUvGolCMiHBQDAQQQaFGAAKBFwKRvbmcGIlFFKyLliAQGhUAAAQRCECAACAExyUnYuUWRqJ6THY5EOSgEAgggkBQBAoCktKShelhOj+ifTi9RCUQ67UD+CCCAQFgCBABhSSY4nWzvyzpaO6drVSSCkI4ikDkCCCAQsgABQMigSUwuO3C62B06BG/ZeckPvSmJrNQJAQQQ6KgAAUBH+eOSuSX54beIWJk2F9iS3NAb1Oi/u835kh0CCCCQfAECgOS3cSg1tLND0r3sfHHyy0JJb6FE7Ey/dC09VzLdJyy0Kp8jgAACCDQh0O4hXRNFZJOoCNQ65SXnSmXyUXFnfi9eea/4fiW84ll27VSDkz9Gcuq0Q/uPOIRXFVJCAAEEoi5AABD1Fopg+bJ9Lxf9I+KLV5kQ352q/d1KUS27S3X+Q6rT56BUK45siwACCDQqQADQqBTrzSJgqU57UET/sCCAAAIIxEqA4VasmovCIoAAAgggEI4AAUA4jqSCAAIIIIBArAQIAGLVXBQWAQQQQACBcAQIAMJxJBUEEEAAAQRiJUAAEKvmorAIIIAAAgiEI0AAEI4jqSCAAAIIIBArAQKAWDUXhUUAAQQQQCAcAQKAcBxJBQEEEEAAgVgJEADEqrkoLAIIIIAAAuEIEACE40gqCCCAAAIIxEqAACBWzUVhEUAAAQQQCEeAACAcR1JBAAEEEEAgVgIEALFqLgqLAAIIIIBAOAIEAOE4kgoCCCCAAAKxEiAAiFVzUVgEEEAAAQTCESAACMeRVBBAAAEEEIiVAAFArJqLwiKAAAIIIBCOAAFAOI6kggACCCCAQKwECABi1VwUFgEEEEAAgXAECADCcSQVBBBAAAEEYiVAABCr5qKwCCCAAAIIhCNAABCOI6kggAACCCAQKwECgFg1F4VFAAEEEEAgHAECgHAcSQUBBBBAAIFYCRAAxKq5KCwCCCCAAALhCBAAhONIKggggAACCMRKgAAgVs1FYRFAAAEEEAhHgAAgHEdSQQABBBBAIFYCBACxai4KiwACCCCAQDgCBADhOJIKAggggAACsRIgAIhVc1FYBBBAAAEEwhEgAAjHkVQQQAABBBCIlUAmVqWlsG0RcD1fxvb58vRuT57d50nFbUu282ZiWyJLh2xZsdiSFYtsyWXVGywIIIAAAk0LEAA0TZe8DX1f5J4HKnL7zypSqUa3fpbq+//olIy8+01ZAoHoNhMlQwCBiAsQAES8gdpVvL2HPBm9qyzbn/XalWXT+ehA5b7fVOWJna584Oy8nLCMM1lNY7IhAgikVoA9Z2qb/nDFyxVf/t/vlmLR+R8utcjeCVXu75VEBy8sCCCAAALBBAgAgnklcu1/va9S60zjWDkdvIzeXRF9VIAFAQQQQKBxAQKAxq0Suebvxjz5Pw9F4Cq/FnS3P+PWTgm0kASbIoAAAqkTIABIXZPXV/jRp1w1eo7/8PlhVQ8WBBBAAIHGBQgAGrdK5Jo7x5Nx/lzfssiCAAIIINC4AAFA41aJXHPXnmSMnA9N+zIxFf8jGYn8klEpBBCIpAABQCSbpX2FcvQMOwlZMtzUmpCWpBoIINAOAQKAdihHOI+VS5LxFRjqt6Qnn5xgJsJfGYqGAAIJEUjG3j8hjdGJaiQlAFixmK9yJ74/5IkAAvEVYK8Z37YLpeSvPDEjSTgN8OqTnFA8SAQBBBBIiwABQFpaeo56HjNsyTtfF++T56880ZFXvzTedZijeXgbAQQQMCZAAGCMNj4Jv/O1WVkV02sBerssueDt+fhgU1IEEEAgIgIEABFpiE4WQ98IcMm78/Lal8VrFH3iMY5cfkGX9HV3Uo+8EUAAgXgKxGuPH0/jWJS6W11B/8F35uRVL3HkB/eVZfyARHaGwEKfJW99VVbeenpG9KOBWRBAAAEEggsQAAQ3S/QWp5zgyCkndEuxLKInCdq1x5eq2/kJdvRRiqVDtqxcakt/N71+or+EVA4BBNoiQADQFub4ZdKVE3nJCkf9xK/slBgBBBBAYGEBrgFY2Ig1EEAAAQQQSJwAAUDimpQKIYAAAgggsLAAAcDCRqyBAAIIIIBA4gQIABLXpFQIAQQQQACBhQUIABY2Yg0EEEAAAQQSJ0AAkLgmpUIIIIAAAggsLEAAsLARayCAAAIIIJA4AQKADjRp6YCeWKfFyWx8V03Vp35YIicwMdX5iZMih0KBEEAgcgIEAB1okmrJl4rf02LOqpPxDrWYBpuHLeCpZnl6txd2sqSHAAIIhC5AABA6aWMJHphqNQBQ+bgEAI1pt2+t8f2elKvty4+cEEAAgWYFCACalWtxu58/0dtiCmrz6u7W0yCFUAUe2s5pmVBBSQwBBIwJEAAYo50/4Vt+kpN9M4vmX2mhT939IpWnF1qLz9skMKZG/3f/stKm3MgGAQQQaE2AAKA1v5a2vu6WYfFFPXWnlaX0uLoWoNhKCmwbgoA+9z/647J6cmIIiZEEAggg0AYBAoA2IM+Vxdh+S66/7Tgpuf1zrbLw+/pOgJlfqOsB1NEAlo4IHJj05R++X5Id41z815EGIFMEEGhKgACgKbbwNnrod7b8xVeOkQd3rlKJOs0lrI8ATP9SpPSYujWQK9CaQwy+lav6+589UpXrby7K4zsZ+gcXZAsEEOikQKaTmZP3cwJV1ZFcv7VHbDlJ3ny6K2eeNi3LCzOSyfiSsS2xGw3T9F0BMw+I2HkVSywWyS5RGTS68eyt4Zb2iFd+ZvYP2/iunSmI031sG3Osz6pc8WVyRv+I7NrrycO/c2udvg4CGl0yji+nHluUV6yakr7u5gI137dkqtwjB2f6pFRt8fSRKvix/b9ptPhG19s1+VJx/dbr02ohS2W/dhunbmNO57SqyfZRFyAAiEgLfeTcorzp5ePqGMCLzufrOWUaHVxmlonkX6L6/BBuMXzeRXf+5YP/2XElp/uEjgYAuawlw/pnQOS4Zba88dRMLSD4uToCcMfPK/N2FicuK8l/P/P30pfVp2kCRAxHqlsqqOt6mQrs1IWjVpNHio5M7/m/p3beP8u77X/r1JedJHYm2/6M58hRB3b6lM5t95bl6T1NttkcafM2AlERIADocEuccIwnf/nevdKXa+EcvqVGTl0vF8ks7XBt0pV9X7clZ/2XrJxyglO7APDF1wDoYy8fPHO3vGbVdvVXo1HcLIbZ5SqwU+1r8e86i46RtxzVeCcst+XPL+iSH/9nRe76RUWCHO0xUigSRSBkgdaOD4dcmLQlN6yu/bvyoh2tdf76EH/P6+j8O/jlWTZky8f/pEuOWVT/7/SR1c+qzv8JVbJWOn91bUjXK+n8O9S++vTb2a/LygVndv70RIcIyDbBAvV7rARXNIpV++T796vuu9Ra0fInhXrIv7XCpHdrPWK86B25P1yvcdrxRXnZ0t+3BmJ3q5H/S1tLg61DEXj9yzPyiuPDO/USSqFIBIEWBQgAWgRsdvPz31iRZf0tzuTnDIrkjmu2CGwXssDKxbac+eps7bLLD71Fzc/Q7Pn+F8rVdUqo5/tfSJbfzQlc+Pac5KJzmUJzlWArBI4QIAA4AqOdf77plMnWs+Ocf+uGIafwqpMcOWlFUbJWi+2rr+twhkIuHcm1IjDQa6nrAjgK0Ioh20ZLgACgQ+0x3Dvdes5OCxMItZ47KcwisHzYltOOp21noUnEW8cuZZeZiIakEjUBvs0d+CLYanCXtUPoJGwCgA4037xZ6ovGXrKctp0XKcYfEgDEuPEo+lECBABHkZh/o2tQs+sb/FtY9C1h3BbWAqC5TXtzLV7YqYtmd5krICk3LTCoTgOwIJAUAQKADrSkhXoH1NuYJX1EG7Hb0Q3eAwAADjRJREFUm5VF27YXnNyMCtAVGeUlcQQQQAABBKIpQAAQzXahVAgggAACCBgVIAAwykviCCCAAAIIRFOAACCa7UKpEEAAAQQQMCpAAGCUl8QRQAABBBCIpgABQDTbhVIhgAACCCBgVIAAwCgviSOAAAIIIBBNAQKAaLYLpUIAAQQQQMCoAAGAUV4SRwABBBBAIJoCBADRbBdKhQACCCCAgFEBAgCjvCSOAAIIIIBANAUIAKLZLpQKAQQQQAABowIEAEZ5SRwBBBBAAIFoChAARLNdKBUCCCCAAAJGBQgAjPKSOAIIIIAAAtEUIACIZrtQKgQQQAABBIwKEAAY5SVxBBBAAAEEoilAABDNdqFUCCCAAAIIGBUgADDKS+IIIIAAAghEU4AAIJrtQqkQQAABBBAwKkAAYJSXxBFAAAEEEIimAAFANNuFUiGAAAIIIGBUgADAKC+JI4AAAgggEE0BAoBotgulQgABBBBAwKgAAYBRXhJHAAEEEEAgmgIEANFsF0qFAAIIIICAUQECAKO8JI4AAggggEA0BQgAotkulAoBBBBAAAGjAgQARnlJHAEEEEAAgWgKEABEs10oFQIIIIAAAkYFCACM8pI4AggggAAC0RQgAIhmu1AqBBBAAAEEjAoQABjljX/ilt0ViUpYdi4S5UhaIaLiGpVyJK19qQ8C8wkQAMynw2di5RZFQsGJSDkigRFiIazscIipNZeUnekTAoDm7NgKgVYECABa0UvBtk62IGI5Ha+plet8R9VxBAMFiEJgZWWjEWQa4CVJBCItQAAQ6eaJQuFssXNLO1oQy86Lk1GBCEvoAk5+WehpBk0wE4EyBC0z6yOQBAECgCS0ouE65At/1NGjAPnCGzuav2HejibvdK0Sp/u4jpXByS2WTN/LO5Y/GSOQZgECgDS3foN1t7ODkht4TYNrh7tapucEcXqODzdRUqsTyA+9UZ2D78DFnlZGcsNvVWWx6srDCwQQaI8AAUB7nGOfS7b/VMn2n6bq0b6dtdN9vOT06J/FqIDu/POL3yl2pt9oPkcmbjnd0rXoTJXnwJFv8zcCCLRRINPGvMgq1gKW5AZfqw4XHyvlffeKVz1krDb6ivBc4Q2S6TnRWB4kXC+gD8V3LXuPVA7+XCqTj6kP/foVQnzldJ8g+aE3qKMO+RBTJSkEEAgqQAAQVCzl6zu5JdK9/L3ilveJX9mnfu8V351WKq11GLozsNXV4PqqdH3Fv2VlUy7d/upb6m4PHXjpIz1eZa+4pX3q935VELfFwqgLSTOD4uRV26o2bueRhhYLzuYIJFqAACDRzWuqcrbqqBeL6Au4ek3lQbqdErCcXnH0T1fnLg7sVN3JF4E0CXANQJpam7oigAACCCDwvAABAF8FBBBAAAEEUihAAJDCRqfKCCCAAAIIEADwHUAAAQQQQCCFAgQAKWx0qowAAggggAABAN8BBBBAAAEEUihAAJDCRqfKCCCAAAIIEADwHUAAAQQQQCCFAgQAKWx0qowAAggggAABAN8BBBBAAAEEUihAAJDCRqfKCCCAAAIIEADwHUAAAQQQQCCFAgQAKWx0qowAAggggAABAN8BBBBAAAEEUihAAJDCRqfKCCCAAAIIEADwHUAAAQQQQCCFAgQAKWx0qowAAggggAABAN8BBBBAAAEEUihAAJDCRqfKCCCAAAIIEADwHUAAAQQQQCCFAgQAKWx0qowAAggggAABAN8BBBBAAAEEUihAAJDCRqfKCCCAAAIIEADwHUAAAQQQQCCFAgQAKWx0qowAAggggAABAN8BBBBAAAEEUihAAJDCRqfKCCCAAAIIEADwHUAAAQQQQCCFAgQAKWx0qowAAggggAABAN8BBBBAAAEEUihAAJDCRqfKCCCAAAIIEADwHUAAAQQQQCCFApkU1pkqBxA4NO1L1fUDbGFmVcuyZLDXEvWLJSSBSlVkcsYLKbXWkunO29KVay0NtkYAgWACBADBvBK/9nTJl3vvr8qO3Z48vduVqWJ0qpxX39YVi21ZscSWN56akaVDHMAK2joPbXflQfWza48n4wd88bzOB3e6DjrAWzTwXPuevMqRM16RIdgL2risj0BAAQKAgGBJXv3h37my5Sdl0aP+KC4lNWLd/qxX+7nvN1V51xty8pbTnVrnEcXyRqlMOrDbdk9FHnhCIUZw8X1f9hwU9ePKA7915T8fd+UD78jKUD9BXgSbiyIlRID/roQ0ZKvV+MF9Fbnxh6XIdv4vrl/VFfnu/1eWf/xBWVTfwTKPwO4Dnnzp28XIdv6zFf3JXa5cf3NJtj+jGpoFAQSMCBAAGGGNV6JP7PTk338VzZHhQpKPPuXKPQ9UFlottZ/rQ/yjP1ZHdWbiFyWVKr7crMquj/ywIIBA+AIEAOGbxirFYllk9N9KahQdvw7iBegf/bQi4/vjW/4X6mHi90/U9Ry/H4vGhX7N1G/fhC/fV0d6WBBAIHwBAoDwTWOV4i8fq8qByXh3nvp0wE84CnDU904HdXf/Mv7DZ329R5QuRj0KmjcQiKkAAUBMGy6sYu9UV/snYXk6IfUIsy30RXX6MHoSFn1HCgsCCIQrQAAQrmfsUtuVkB3r2L5ozFcQpS9AkjrNpASqUfp+UBYECABS/h3YdygZAK662O1gRG9f7JTwvkPJGP1rv/0xP03Vqe8A+SIwnwABwHw6Kfhs2XAyptbLqhkthtRMgSyHBZYNJ+ffe1khOXU53EL8hUBnBfiv6qx/x3NfqWbWS8KycpEttk0AcGRbJqVtdZ1WLqFtj2xb/kYgDIFk7P3DkEhpGsctS8ZX4NiE1CPMr2Ghz5KBBBwVcdRXVE8BzYIAAuEK8F8VrmfsUnvNyRlZpebWj/PS22XJO16bjXMVjJX93W+Kv8uaM7KSz3IEwNiXhIRTKxDvPX9qmy28iuuj5h94Z04yTnx3sBecmRMdBLAcLfDql2bk9JOcoz+IyTvHqyM7b381jyyJSXNRzJgJEADErMFMFHeZeqrehWdmRV9IF6dFP0HuHf8lK6edGN8Orh3e73tbXnRHGrdlScGSD5yd49qOuDUc5Y2NQMx2+bFxjV1BX/uyjBy33JZb7i7XnrYX9QosUk+Je/87cvKSFfHr2Npt29slcul783LPr6tyu5o2Wc+cGOVFxXXy1ldl5Lw/0kemolxSyoZAvAUIAOLdfqGWfvGALRve2yX6ATu/H/dkh/p5Vj03vhKBDkOfqlg2ZMmqpXbtmoVTT3Akx3nhhttf3yFx5qvV0ZKXOPLY759rWz25zsGpaMwV0KdO4axUbXusuh7lpFW2rFB3dbAggIBZAQIAs76xS12Pvl5xvFP7iV3hKfCCAvrIyZtOUz8LrskKCCCQdAHC7KS3MPVDAAEEEEBgFgECgFlQeAsBBBBAAIGkCxAAJL2FqR8CCCCAAAKzCBAAzILCWwgggAACCCRdgAAg6S1M/RBAAAEEEJhFgABgFhTeQgABBBBAIOkCBABJb2HqhwACCCCAwCwCCwcAlszMsl3ob/nRmI8k9HrNlqBTCaOyYaQxW+l4r1UBz1v432rBPHxvwVVYof0CUZgUq/21Np9jRtifha3si19cKM0F91S2Y/9koUTC+NwrV8NIJhZpDE8U1de9xae0+Wp6Pq8tsVksTKNUyLGDPa0Xx5tsPQ1SCF3gGTUzJku4Aj3iSp+Vnv1/uHrzpObL/fN8WvtowQDAsnM3L5RIGJ97xUoYycQmjelyb+tl9SZaT4MUQhWYKvry8I4Q2tY9FGq5SCwcAT19Mku4AsfYCw5Uw80wHan5Xq77FwtVdcEAYPFXv/e0nXNKCyXU6udpCwD2T4QwSnQJAFr93oW9/Y4xTx78vW7bFh9PrI8A6KM8LJESeEq1L0u4AsdYHMkMV7S29/nNopFvLdhBLBgA6II53dn/FXYBX5yeO1MRd6r84reT+/qnVXUaINda/SpPcxqgNcFQt/ZU33D7zypyYMqW7fuObTFtdU60/GSLabB5mAK/erwqz+4jAAjTVB/6f4OzL8wkSUsJuGL9z0YgGgoAln79zs85PTnje6PS+IT4XjouBhlUwc6jDy1rpI3mXkePEIsPz/05n7RV4Mf/WZGnnz9H/A93rJCK39da/uUd6j/5QGtpsHUoAoemfbn13nSdpgwFboFE/qvzjHSr7oolPAHVg940vHHLdxtJsaEAoJZQJnOOOhUw3Uiiza7jVz0pjamjFikJAlb+5pDs2ntMs1zPbefuFyn9Vv2djsCpNSxzWz+2w5W7fnG4gyhXLfnne08WT/ItZKratPgbjvK0IBjGpsWyL9+5uyzTJf7HwvB8IY03O3vlZJuLXV/wCOe39QvLLX2i0bQCnajcfvFZXb2286+VqdI7TPY3dlY9633ZgD710Gg9Yr3ezpP75eWvGRdbWrjUwimIdJ0qYnfH2iJuhdc3r3z//y/L/3lo9quYh/pcWb/m9zLcPdZ81SxHJP9Skeyq5tNgy6YEdGB3y7+V5eAUnX9TgLNsNGBV5Hw18j/RnprlU95qUqBiiXXNQHbvJmvk32bfGc2ScKAA4IXtxzacd4FVqfy553qneBV3iRq5qz1U+Eumv0vsrqz6yYiTz6grG5oqbvgFM5DipKrn9GvyUhguyUDPtGQtfbAl4E5HdxSZ5eqijQH106+CAX0IOrlmBpqhoST3TfiirwbXh/sfeKIq+w4t3E5nnX5IXnnsQVncPyndmUnVKoePFjSUqV7JGVTtu1i1q2pb3b5Wi9eQNJxxelYsqTk6du3x5WnVvtufceXB7RyebrX1bbUfW2yV5RirKMvVBX+vcg6q42JcS9Gqq2LdaVmWvtL/l65d3TZ89a2/Dprm/wUd8fNM1A18JwAAAABJRU5ErkJggg==;" vertex="1" parent="1">
          <mxGeometry x="670" y="301" width="39" height="39" as="geometry" />
        </mxCell>
        <mxCell id="LdxUq8u8mY5ZMptnZAze-36" value="Data Storage&amp;nbsp;&lt;div&gt;(Data Warehouse, Data lakes )&lt;/div&gt;&lt;div&gt;OLAP&amp;nbsp;&lt;/div&gt;" style="whiteSpace=wrap;html=1;rounded=0;" vertex="1" parent="1">
          <mxGeometry x="600" y="350" width="120" height="60" as="geometry" />
        </mxCell>
      </root>
    </mxGraphModel>
  </diagram>
</mxfile>
